<?xml version="1.0" standalone="no"?>
<!DOCTYPE svg PUBLIC "-//W3C//DTD SVG 1.1//EN" "http://www.w3.org/Graphics/SVG/1.1/DTD/svg11.dtd" >
<svg>
<metadata>
Created by FontForge 20120731 at Wed Mar 20 15:07:15 2013
 By Josef Pospíšil
Copyright (c) 2007 by Tomas Brousil. All rights reserved.
</metadata>
<defs>
<font id="Purista-SemiBold" horiz-adv-x="670" >
  <font-face 
    font-family="Purista SemiBold"
    font-weight="600"
    font-stretch="normal"
    units-per-em="1000"
    panose-1="0 0 0 0 0 0 0 0 0 0"
    ascent="740"
    descent="-260"
    x-height="520"
    cap-height="700"
    bbox="-47 -210 1109 925"
    underline-thickness="50"
    underline-position="-50"
    stemh="103"
    stemv="119"
    unicode-range="U+0020-FB02"
  />
    <missing-glyph />
    <glyph glyph-name="space" unicode=" " horiz-adv-x="300" 
 />
    <glyph glyph-name="A" unicode="A" horiz-adv-x="633" 
d="M389 700l244 -700h-125l-55 164h-276l-56 -164h-121l244 700h145zM314 574l-106 -307h212z" />
    <glyph glyph-name="B" unicode="B" horiz-adv-x="635" 
d="M592 547v-61c0 -63 -30 -112 -78 -136c50 -22 81 -71 81 -135v-62c0 -91 -62 -153 -153 -153h-377v700h374c92 0 153 -61 153 -153zM476 159v85c0 34 -21 55 -55 55h-237v-195h237c34 0 55 20 55 55zM474 458v83c0 35 -21 56 -56 56h-234v-195h234c35 0 56 21 56 56z" />
    <glyph glyph-name="C" unicode="C" 
d="M605 463h-119v78c0 35 -21 56 -55 56h-192c-34 0 -55 -21 -55 -56v-382c0 -35 21 -55 55 -55h192c34 0 55 20 55 55v79h119v-85c0 -91 -62 -153 -153 -153h-235c-90 0 -152 62 -152 153v394c0 92 62 153 152 153h235c91 0 153 -61 153 -153v-84z" />
    <glyph glyph-name="D" unicode="D" 
d="M486 159v382c0 35 -21 56 -55 56h-247v-493h247c34 0 55 20 55 55zM605 153c0 -91 -62 -153 -153 -153h-387v700h387c91 0 153 -61 153 -153v-394z" />
    <glyph glyph-name="E" unicode="E" horiz-adv-x="575" 
d="M65 0v700h470v-103h-351v-195h301v-103h-301v-195h351v-104h-470z" />
    <glyph glyph-name="F" unicode="F" horiz-adv-x="515" 
d="M65 0v700h450v-103h-331v-220h281v-103h-281v-274h-119z" />
    <glyph glyph-name="G" unicode="G" 
d="M605 372v-372h-88l-15 47c-27 -30 -67 -47 -115 -47h-170c-90 0 -152 62 -152 153v394c0 92 62 153 152 153h235c91 0 153 -61 153 -153v-69h-119v63c0 35 -21 56 -55 56h-192c-34 0 -55 -21 -55 -56v-382c0 -35 21 -55 55 -55h192c32 0 53 18 55 50v114h-184v104h303z
" />
    <glyph glyph-name="H" unicode="H" 
d="M486 0v299h-302v-299h-119v700h119v-298h302v298h119v-700h-119z" />
    <glyph glyph-name="I" unicode="I" horiz-adv-x="249" 
d="M65 0v700h119v-700h-119z" />
    <glyph glyph-name="J" unicode="J" horiz-adv-x="607" 
d="M424 700h118v-551c0 -89 -59 -149 -149 -149h-212c-89 0 -148 60 -148 149v89h118v-83c0 -32 19 -51 52 -51h169c33 0 52 19 52 51v545z" />
    <glyph glyph-name="K" unicode="K" horiz-adv-x="614" 
d="M461 0l-277 339v-339h-119v700h119v-339l277 339h143l-281 -344l291 -356h-153z" />
    <glyph glyph-name="L" unicode="L" horiz-adv-x="555" 
d="M65 0v700h119v-596h351v-104h-470z" />
    <glyph glyph-name="M" unicode="M" horiz-adv-x="750" 
d="M566 0v466l-191 -360l-191 360v-466h-119v700h115l195 -368l195 368h115v-700h-119z" />
    <glyph glyph-name="N" unicode="N" 
d="M494 0l-310 482v-482h-119v700h111l310 -482v482h119v-700h-111z" />
    <glyph glyph-name="O" unicode="O" 
d="M486 159v382c0 35 -21 56 -55 56h-192c-34 0 -55 -21 -55 -56v-382c0 -35 21 -55 55 -55h192c34 0 55 20 55 55zM605 153c0 -91 -62 -153 -153 -153h-235c-90 0 -152 62 -152 153v394c0 92 62 153 152 153h235c91 0 153 -61 153 -153v-394z" />
    <glyph glyph-name="P" unicode="P" horiz-adv-x="612" 
d="M461 408v133c0 35 -21 56 -55 56h-222v-245h222c34 0 55 21 55 56zM580 402c0 -92 -62 -153 -153 -153h-243v-249h-119v700h362c91 0 153 -61 153 -153v-145z" />
    <glyph glyph-name="Q" unicode="Q" 
d="M276 -140v140h-59c-90 0 -152 62 -152 153v394c0 92 62 153 152 153h235c91 0 153 -61 153 -153v-394c0 -91 -62 -153 -153 -153h-57v-140h-119zM486 159v382c0 35 -21 56 -55 56h-192c-34 0 -55 -21 -55 -56v-382c0 -35 21 -55 55 -55h192c34 0 55 20 55 55z" />
    <glyph glyph-name="R" unicode="R" horiz-adv-x="630" 
d="M585 402c0 -79 -46 -135 -116 -150l116 -252h-130l-109 249h-162v-249h-119v700h367c91 0 153 -61 153 -153v-145zM466 408v133c0 35 -21 56 -55 56h-227v-245h227c34 0 55 21 55 56z" />
    <glyph glyph-name="S" unicode="S" horiz-adv-x="660" 
d="M443 402c90 0 152 -61 152 -153v-96c0 -92 -62 -153 -152 -153h-225c-91 0 -153 61 -153 153v62h119v-56c0 -35 21 -55 55 -55h182c34 0 55 20 55 55v85c0 34 -21 55 -55 55h-204c-90 0 -152 61 -152 153v95c0 92 62 153 152 153h225c91 0 153 -61 153 -153v-62h-119v56
c0 35 -21 56 -55 56h-182c-34 0 -55 -21 -55 -56v-83c0 -35 21 -56 55 -56h204z" />
    <glyph glyph-name="T" unicode="T" horiz-adv-x="563" 
d="M0 597v103h563v-103h-222v-597h-119v597h-222z" />
    <glyph glyph-name="U" unicode="U" 
d="M486 700h119v-547c0 -91 -62 -153 -153 -153h-235c-90 0 -152 62 -152 153v547h119v-541c0 -35 21 -55 55 -55h192c34 0 55 20 55 55v541z" />
    <glyph glyph-name="V" unicode="V" horiz-adv-x="626" 
d="M244 0l-244 700h125l189 -552l190 552h122l-244 -700h-138z" />
    <glyph glyph-name="W" unicode="W" horiz-adv-x="866" 
d="M175 0l-179 700h122l128 -535l132 535h115l130 -535l129 535h118l-179 -700h-134l-124 483l-124 -483h-134z" />
    <glyph glyph-name="X" unicode="X" horiz-adv-x="642" 
d="M479 0l-161 253l-162 -253h-135l231 347l-231 353h142l160 -252l164 252h134l-231 -347l231 -353h-142z" />
    <glyph glyph-name="Y" unicode="Y" horiz-adv-x="635" 
d="M377 257v-257h-119v257l-256 443h142l176 -323l178 323h134z" />
    <glyph glyph-name="Z" unicode="Z" horiz-adv-x="627" 
d="M55 104l376 493h-376v103h517v-103l-375 -493h375v-104h-517v104z" />
    <glyph glyph-name="AE" unicode="&#xc6;" horiz-adv-x="1025" 
d="M0 0l433 700h537v-103h-351v-195h301v-103h-301v-195h351v-104h-469v164h-267l-101 -164h-133zM289 267h212v338z" />
    <glyph glyph-name="Eth" unicode="&#xd0;" 
d="M0 310v81h65v309h387c91 0 153 -61 153 -153v-394c0 -91 -62 -153 -153 -153h-387v310h-65zM486 159v382c0 35 -21 56 -55 56h-247v-206h158v-81h-158v-206h247c34 0 55 20 55 55z" />
    <glyph glyph-name="OE" unicode="&#x152;" horiz-adv-x="1011" 
d="M486 0v32c-26 -21 -60 -32 -99 -32h-170c-90 0 -152 62 -152 153v394c0 92 62 153 152 153h170c39 0 73 -12 99 -32v32h470v-103h-351v-195h301v-103h-301v-195h351v-104h-470zM486 159v387c-2 32 -23 51 -55 51h-192c-34 0 -55 -21 -55 -56v-382c0 -35 21 -55 55 -55
h192c34 0 55 20 55 55z" />
    <glyph glyph-name="Oslash" unicode="&#xd8;" 
d="M51 -52l55 95c-26 27 -41 65 -41 110v394c0 92 62 153 152 153h235c11 0 21 -2 31 -3l58 100l77 -44l-55 -96c26 -26 42 -65 42 -110v-394c0 -91 -62 -153 -153 -153h-235c-11 0 -22 1 -32 3l-57 -100zM486 159v365l-243 -420h188c34 0 55 20 55 55zM184 541v-363
l241 419h-186c-34 0 -55 -21 -55 -56z" />
    <glyph glyph-name="Thorn" unicode="&#xde;" horiz-adv-x="612" 
d="M461 283v134c0 34 -21 55 -55 55h-222v-244h222c34 0 55 20 55 55zM580 277c0 -91 -62 -153 -153 -153h-243v-124h-119v700h119v-125h243c91 0 153 -61 153 -153v-145z" />
    <glyph glyph-name="Aacute" unicode="&#xc1;" horiz-adv-x="633" 
d="M389 700l244 -700h-125l-55 164h-276l-56 -164h-121l244 700h145zM314 574l-106 -307h212zM336 740h-95l87 145h124z" />
    <glyph glyph-name="Abreve" unicode="&#x102;" horiz-adv-x="633" 
d="M389 700l244 -700h-125l-55 164h-276l-56 -164h-121l244 700h145zM314 574l-106 -307h212zM168 885h84c0 -63 22 -79 65 -79c42 0 65 16 65 79h84c0 -115 -56 -151 -149 -151s-149 36 -149 151z" />
    <glyph glyph-name="Acircumflex" unicode="&#xc2;" horiz-adv-x="633" 
d="M389 700l244 -700h-125l-55 164h-276l-56 -164h-121l244 700h145zM314 574l-106 -307h212zM378 885l104 -145h-103l-64 87l-65 -87h-100l104 145h124z" />
    <glyph glyph-name="Adieresis" unicode="&#xc4;" horiz-adv-x="633" 
d="M389 700l244 -700h-125l-55 164h-276l-56 -164h-121l244 700h145zM314 574l-106 -307h212zM146 744v121h96v-121h-96zM391 744v121h96v-121h-96z" />
    <glyph glyph-name="Agrave" unicode="&#xc0;" horiz-adv-x="633" 
d="M389 700l244 -700h-125l-55 164h-276l-56 -164h-121l244 700h145zM314 574l-106 -307h212zM392 740h-95l-115 145h123z" />
    <glyph glyph-name="Amacron" unicode="&#x100;" horiz-adv-x="633" 
d="M389 700l244 -700h-125l-55 164h-276l-56 -164h-121l244 700h145zM314 574l-106 -307h212zM145 767v81h342v-81h-342z" />
    <glyph glyph-name="Aogonek" unicode="&#x104;" horiz-adv-x="633" 
d="M389 700l244 -700h-28l-35 -50c-7 -10 -10 -22 -10 -31c0 -19 12 -33 35 -33h54v-86h-85c-52 0 -100 39 -100 96c0 26 9 54 31 85l13 19l-55 164h-276l-56 -164h-121l244 700h145zM314 574l-106 -307h212z" />
    <glyph glyph-name="Aring" unicode="&#xc5;" horiz-adv-x="633" 
d="M389 700l244 -700h-125l-55 164h-276l-56 -164h-121l244 700h145zM314 574l-106 -307h212zM207 817c0 60 45 101 109 101c65 0 109 -41 109 -101s-44 -101 -109 -101c-64 0 -109 41 -109 101zM273 817c0 -32 15 -49 43 -49c29 0 43 17 43 49c0 31 -14 49 -43 49
c-28 0 -43 -18 -43 -49z" />
    <glyph glyph-name="Atilde" unicode="&#xc3;" horiz-adv-x="633" 
d="M389 700l244 -700h-125l-55 164h-276l-56 -164h-121l244 700h145zM314 574l-106 -307h212zM242 804c-17 10 -36 6 -46 -12l-30 -55l-67 32l33 62c29 57 89 77 146 48l115 -60c18 -11 37 -7 47 12l26 49l68 -31l-30 -58c-29 -56 -89 -77 -147 -48z" />
    <glyph glyph-name="Cacute" unicode="&#x106;" 
d="M605 463h-119v78c0 35 -21 56 -55 56h-192c-34 0 -55 -21 -55 -56v-382c0 -35 21 -55 55 -55h192c34 0 55 20 55 55v79h119v-85c0 -91 -62 -153 -153 -153h-235c-90 0 -152 62 -152 153v394c0 92 62 153 152 153h235c91 0 153 -61 153 -153v-84zM355 740h-95l87 145h124z
" />
    <glyph glyph-name="Ccaron" unicode="&#x10c;" 
d="M605 463h-119v78c0 35 -21 56 -55 56h-192c-34 0 -55 -21 -55 -56v-382c0 -35 21 -55 55 -55h192c34 0 55 20 55 55v79h119v-85c0 -91 -62 -153 -153 -153h-235c-90 0 -152 62 -152 153v394c0 92 62 153 152 153h235c91 0 153 -61 153 -153v-84zM273 740l-104 145h103
l64 -87l65 87h100l-104 -145h-124z" />
    <glyph glyph-name="Ccedilla" unicode="&#xc7;" 
d="M605 463h-119v78c0 35 -21 56 -55 56h-192c-34 0 -55 -21 -55 -56v-382c0 -35 21 -55 55 -55h192c34 0 55 20 55 55v79h119v-85c0 -91 -62 -153 -153 -153h-235c-90 0 -152 62 -152 153v394c0 92 62 153 152 153h235c91 0 153 -61 153 -153v-84zM366 -200h-103l55 80
l-55 80h103l51 -80z" />
    <glyph glyph-name="Cdotaccent" unicode="&#x10a;" 
d="M279 740v129h111v-129h-111zM605 463h-119v78c0 35 -21 56 -55 56h-192c-34 0 -55 -21 -55 -56v-382c0 -35 21 -55 55 -55h192c34 0 55 20 55 55v79h119v-85c0 -91 -62 -153 -153 -153h-235c-90 0 -152 62 -152 153v394c0 92 62 153 152 153h235c91 0 153 -61 153 -153
v-84z" />
    <glyph glyph-name="Dcaron" unicode="&#x10e;" 
d="M273 740l-104 145h103l64 -87l65 87h100l-104 -145h-124zM486 159v382c0 35 -21 56 -55 56h-247v-493h247c34 0 55 20 55 55zM605 153c0 -91 -62 -153 -153 -153h-387v700h387c91 0 153 -61 153 -153v-394z" />
    <glyph glyph-name="Dcroat" unicode="&#x110;" 
d="M0 310v81h65v309h387c91 0 153 -61 153 -153v-394c0 -91 -62 -153 -153 -153h-387v310h-65zM486 159v382c0 35 -21 56 -55 56h-247v-206h158v-81h-158v-206h247c34 0 55 20 55 55z" />
    <glyph glyph-name="Eacute" unicode="&#xc9;" horiz-adv-x="575" 
d="M307 740h-95l87 145h124zM65 0v700h470v-103h-351v-195h301v-103h-301v-195h351v-104h-470z" />
    <glyph glyph-name="Ecaron" unicode="&#x11a;" horiz-adv-x="575" 
d="M225 740l-104 145h103l64 -87l65 87h100l-104 -145h-124zM65 0v700h470v-103h-351v-195h301v-103h-301v-195h351v-104h-470z" />
    <glyph glyph-name="Ecircumflex" unicode="&#xca;" horiz-adv-x="575" 
d="M65 0v700h470v-103h-351v-195h301v-103h-301v-195h351v-104h-470zM349 885l104 -145h-103l-64 87l-65 -87h-100l104 145h124z" />
    <glyph glyph-name="Edieresis" unicode="&#xcb;" horiz-adv-x="575" 
d="M116 744v121h96v-121h-96zM361 744v121h96v-121h-96zM65 0v700h470v-103h-351v-195h301v-103h-301v-195h351v-104h-470z" />
    <glyph glyph-name="Edotaccent" unicode="&#x116;" horiz-adv-x="575" 
d="M232 740v129h111v-129h-111zM65 0v700h470v-103h-351v-195h301v-103h-301v-195h351v-104h-470z" />
    <glyph glyph-name="Egrave" unicode="&#xc8;" horiz-adv-x="575" 
d="M362 740h-95l-115 145h123zM65 0v700h470v-103h-351v-195h301v-103h-301v-195h351v-104h-470z" />
    <glyph glyph-name="Emacron" unicode="&#x112;" horiz-adv-x="575" 
d="M116 767v81h342v-81h-342zM65 0v700h470v-103h-351v-195h301v-103h-301v-195h351v-104h-470z" />
    <glyph glyph-name="Eogonek" unicode="&#x118;" horiz-adv-x="575" 
d="M65 0v700h470v-103h-351v-195h301v-103h-301v-195h351v-104h-45l-35 -50c-7 -10 -10 -22 -10 -31c0 -19 12 -33 35 -33h54v-86h-85c-52 0 -100 39 -100 96c0 26 9 54 31 85l13 19h-328z" />
    <glyph glyph-name="Gbreve" unicode="&#x11e;" 
d="M186 885h84c0 -63 22 -79 65 -79c42 0 65 16 65 79h84c0 -115 -56 -151 -149 -151s-149 36 -149 151zM605 372v-372h-88l-15 47c-27 -30 -67 -47 -115 -47h-170c-90 0 -152 62 -152 153v394c0 92 62 153 152 153h235c91 0 153 -61 153 -153v-69h-119v63
c0 35 -21 56 -55 56h-192c-34 0 -55 -21 -55 -56v-382c0 -35 21 -55 55 -55h192c32 0 53 18 55 50v114h-184v104h303z" />
    <glyph glyph-name="Gcommaaccent" unicode="&#x122;" 
d="M281 -200l5 150h102l-30 -150h-77zM605 372v-372h-88l-15 47c-27 -30 -67 -47 -115 -47h-170c-90 0 -152 62 -152 153v394c0 92 62 153 152 153h235c91 0 153 -61 153 -153v-69h-119v63c0 35 -21 56 -55 56h-192c-34 0 -55 -21 -55 -56v-382c0 -35 21 -55 55 -55h192
c32 0 53 18 55 50v114h-184v104h303z" />
    <glyph glyph-name="Gdotaccent" unicode="&#x120;" 
d="M279 740v129h111v-129h-111zM605 372v-372h-88l-15 47c-27 -30 -67 -47 -115 -47h-170c-90 0 -152 62 -152 153v394c0 92 62 153 152 153h235c91 0 153 -61 153 -153v-69h-119v63c0 35 -21 56 -55 56h-192c-34 0 -55 -21 -55 -56v-382c0 -35 21 -55 55 -55h192
c32 0 53 18 55 50v114h-184v104h303z" />
    <glyph glyph-name="Hbar" unicode="&#x126;" 
d="M20 510v82h45v108h119v-108h302v108h119v-108h45v-82h-45v-510h-119v299h-302v-299h-119v510h-45zM184 402h302v108h-302v-108z" />
    <glyph glyph-name="Iacute" unicode="&#xcd;" horiz-adv-x="249" 
d="M65 0v700h119v-700h-119zM164 740h-95l87 145h124z" />
    <glyph glyph-name="Icircumflex" unicode="&#xce;" horiz-adv-x="249" 
d="M65 0v700h119v-700h-119zM187 885l104 -145h-103l-64 87l-65 -87h-100l104 145h124z" />
    <glyph glyph-name="Idieresis" unicode="&#xcf;" horiz-adv-x="249" 
d="M65 0v700h119v-700h-119zM-46 744v121h96v-121h-96zM199 744v121h96v-121h-96z" />
    <glyph glyph-name="Idotaccent" unicode="&#x130;" horiz-adv-x="249" 
d="M65 0v700h119v-700h-119zM68 740v129h111v-129h-111z" />
    <glyph glyph-name="Igrave" unicode="&#xcc;" horiz-adv-x="249" 
d="M65 0v700h119v-700h-119zM180 740h-95l-115 145h123z" />
    <glyph glyph-name="Imacron" unicode="&#x12a;" horiz-adv-x="249" 
d="M65 0v700h119v-700h-119zM-47 767v81h342v-81h-342z" />
    <glyph glyph-name="Iogonek" unicode="&#x12e;" horiz-adv-x="249" 
d="M65 0v700h119v-700h-1l-35 -50c-7 -10 -10 -22 -10 -31c0 -19 12 -33 35 -33h54v-86h-85c-52 0 -100 39 -100 96c0 26 9 54 31 85l13 19h-21z" />
    <glyph glyph-name="Kcommaaccent" unicode="&#x136;" horiz-adv-x="614" 
d="M253 -200l5 150h102l-30 -150h-77zM461 0l-277 339v-339h-119v700h119v-339l277 339h143l-281 -344l291 -356h-153z" />
    <glyph glyph-name="Lacute" unicode="&#x139;" horiz-adv-x="555" 
d="M160 740h-95l87 145h124zM65 0v700h119v-596h351v-104h-470z" />
    <glyph glyph-name="Lcaron" unicode="&#x13d;" horiz-adv-x="555" 
d="M248 580l8 200h105l-47 -200h-66zM65 0v700h119v-596h351v-104h-470z" />
    <glyph glyph-name="Lcommaaccent" unicode="&#x13b;" horiz-adv-x="555" 
d="M224 -200l5 150h102l-30 -150h-77zM65 0v700h119v-596h351v-104h-470z" />
    <glyph glyph-name="Ldot" unicode="&#x13f;" horiz-adv-x="555" 
d="M65 0v700h119v-596h351v-104h-470zM333 298v129h111v-129h-111z" />
    <glyph glyph-name="Lslash" unicode="&#x141;" horiz-adv-x="595" 
d="M20 262v96l85 21v321h119v-290l157 40v-96l-157 -40v-210h351v-104h-470v283z" />
    <glyph glyph-name="Nacute" unicode="&#x143;" 
d="M355 740h-95l87 145h124zM494 0l-310 482v-482h-119v700h111l310 -482v482h119v-700h-111z" />
    <glyph glyph-name="Ncaron" unicode="&#x147;" 
d="M273 740l-104 145h103l64 -87l65 87h100l-104 -145h-124zM494 0l-310 482v-482h-119v700h111l310 -482v482h119v-700h-111z" />
    <glyph glyph-name="Ncommaaccent" unicode="&#x145;" 
d="M281 -200l5 150h102l-30 -150h-77zM494 0l-310 482v-482h-119v700h111l310 -482v482h119v-700h-111z" />
    <glyph glyph-name="Ntilde" unicode="&#xd1;" 
d="M260 804c-17 10 -36 6 -46 -12l-30 -55l-67 32l33 62c29 57 89 77 146 48l115 -60c18 -11 37 -7 47 12l26 49l68 -31l-30 -58c-29 -56 -89 -77 -147 -48zM494 0l-310 482v-482h-119v700h111l310 -482v482h119v-700h-111z" />
    <glyph glyph-name="Oacute" unicode="&#xd3;" 
d="M355 740h-95l87 145h124zM486 159v382c0 35 -21 56 -55 56h-192c-34 0 -55 -21 -55 -56v-382c0 -35 21 -55 55 -55h192c34 0 55 20 55 55zM605 153c0 -91 -62 -153 -153 -153h-235c-90 0 -152 62 -152 153v394c0 92 62 153 152 153h235c91 0 153 -61 153 -153v-394z" />
    <glyph glyph-name="Ocircumflex" unicode="&#xd4;" 
d="M486 159v382c0 35 -21 56 -55 56h-192c-34 0 -55 -21 -55 -56v-382c0 -35 21 -55 55 -55h192c34 0 55 20 55 55zM605 153c0 -91 -62 -153 -153 -153h-235c-90 0 -152 62 -152 153v394c0 92 62 153 152 153h235c91 0 153 -61 153 -153v-394zM397 885l104 -145h-103l-64 87
l-65 -87h-100l104 145h124z" />
    <glyph glyph-name="Odieresis" unicode="&#xd6;" 
d="M164 744v121h96v-121h-96zM409 744v121h96v-121h-96zM486 159v382c0 35 -21 56 -55 56h-192c-34 0 -55 -21 -55 -56v-382c0 -35 21 -55 55 -55h192c34 0 55 20 55 55zM605 153c0 -91 -62 -153 -153 -153h-235c-90 0 -152 62 -152 153v394c0 92 62 153 152 153h235
c91 0 153 -61 153 -153v-394z" />
    <glyph glyph-name="Ograve" unicode="&#xd2;" 
d="M410 740h-95l-115 145h123zM486 159v382c0 35 -21 56 -55 56h-192c-34 0 -55 -21 -55 -56v-382c0 -35 21 -55 55 -55h192c34 0 55 20 55 55zM605 153c0 -91 -62 -153 -153 -153h-235c-90 0 -152 62 -152 153v394c0 92 62 153 152 153h235c91 0 153 -61 153 -153v-394z
" />
    <glyph glyph-name="Ohungarumlaut" unicode="&#x150;" 
d="M486 159v382c0 35 -21 56 -55 56h-192c-34 0 -55 -21 -55 -56v-382c0 -35 21 -55 55 -55h192c34 0 55 20 55 55zM605 153c0 -91 -62 -153 -153 -153h-235c-90 0 -152 62 -152 153v394c0 92 62 153 152 153h235c91 0 153 -61 153 -153v-394zM246 740h-88l92 145h116z
M452 740h-88l92 145h116z" />
    <glyph glyph-name="Omacron" unicode="&#x14c;" 
d="M163 767v81h342v-81h-342zM486 159v382c0 35 -21 56 -55 56h-192c-34 0 -55 -21 -55 -56v-382c0 -35 21 -55 55 -55h192c34 0 55 20 55 55zM605 153c0 -91 -62 -153 -153 -153h-235c-90 0 -152 62 -152 153v394c0 92 62 153 152 153h235c91 0 153 -61 153 -153v-394z" />
    <glyph glyph-name="Otilde" unicode="&#xd5;" 
d="M260 804c-17 10 -36 6 -46 -12l-30 -55l-67 32l33 62c29 57 89 77 146 48l115 -60c18 -11 37 -7 47 12l26 49l68 -31l-30 -58c-29 -56 -89 -77 -147 -48zM486 159v382c0 35 -21 56 -55 56h-192c-34 0 -55 -21 -55 -56v-382c0 -35 21 -55 55 -55h192c34 0 55 20 55 55z
M605 153c0 -91 -62 -153 -153 -153h-235c-90 0 -152 62 -152 153v394c0 92 62 153 152 153h235c91 0 153 -61 153 -153v-394z" />
    <glyph glyph-name="Racute" unicode="&#x154;" horiz-adv-x="630" 
d="M585 402c0 -79 -46 -135 -116 -150l116 -252h-130l-109 249h-162v-249h-119v700h367c91 0 153 -61 153 -153v-145zM466 408v133c0 35 -21 56 -55 56h-227v-245h227c34 0 55 21 55 56zM325 740h-95l87 145h124z" />
    <glyph glyph-name="Rcaron" unicode="&#x158;" horiz-adv-x="630" 
d="M253 740l-104 145h103l64 -87l65 87h100l-104 -145h-124zM585 402c0 -79 -46 -135 -116 -150l116 -252h-130l-109 249h-162v-249h-119v700h367c91 0 153 -61 153 -153v-145zM466 408v133c0 35 -21 56 -55 56h-227v-245h227c34 0 55 21 55 56z" />
    <glyph glyph-name="Sacute" unicode="&#x15a;" horiz-adv-x="660" 
d="M443 402c90 0 152 -61 152 -153v-96c0 -92 -62 -153 -152 -153h-225c-91 0 -153 61 -153 153v62h119v-56c0 -35 21 -55 55 -55h182c34 0 55 20 55 55v85c0 34 -21 55 -55 55h-204c-90 0 -152 61 -152 153v95c0 92 62 153 152 153h225c91 0 153 -61 153 -153v-62h-119v56
c0 35 -21 56 -55 56h-182c-34 0 -55 -21 -55 -56v-83c0 -35 21 -56 55 -56h204zM350 740h-95l87 145h124z" />
    <glyph glyph-name="Scaron" unicode="&#x160;" horiz-adv-x="660" 
d="M443 402c90 0 152 -61 152 -153v-96c0 -92 -62 -153 -152 -153h-225c-91 0 -153 61 -153 153v62h119v-56c0 -35 21 -55 55 -55h182c34 0 55 20 55 55v85c0 34 -21 55 -55 55h-204c-90 0 -152 61 -152 153v95c0 92 62 153 152 153h225c91 0 153 -61 153 -153v-62h-119v56
c0 35 -21 56 -55 56h-182c-34 0 -55 -21 -55 -56v-83c0 -35 21 -56 55 -56h204zM268 740l-104 145h103l64 -87l65 87h100l-104 -145h-124z" />
    <glyph glyph-name="Scedilla" unicode="&#x15e;" horiz-adv-x="660" 
d="M443 402c90 0 152 -61 152 -153v-96c0 -92 -62 -153 -152 -153h-225c-91 0 -153 61 -153 153v62h119v-56c0 -35 21 -55 55 -55h182c34 0 55 20 55 55v85c0 34 -21 55 -55 55h-204c-90 0 -152 61 -152 153v95c0 92 62 153 152 153h225c91 0 153 -61 153 -153v-62h-119v56
c0 35 -21 56 -55 56h-182c-34 0 -55 -21 -55 -56v-83c0 -35 21 -56 55 -56h204zM356 -200h-103l55 80l-55 80h103l51 -80z" />
    <glyph glyph-name="uni0218" unicode="&#x218;" horiz-adv-x="660" 
d="M276 -200l5 150h102l-30 -150h-77zM443 402c90 0 152 -61 152 -153v-96c0 -92 -62 -153 -152 -153h-225c-91 0 -153 61 -153 153v62h119v-56c0 -35 21 -55 55 -55h182c34 0 55 20 55 55v85c0 34 -21 55 -55 55h-204c-90 0 -152 61 -152 153v95c0 92 62 153 152 153h225
c91 0 153 -61 153 -153v-62h-119v56c0 35 -21 56 -55 56h-182c-34 0 -55 -21 -55 -56v-83c0 -35 21 -56 55 -56h204z" />
    <glyph glyph-name="Tcaron" unicode="&#x164;" horiz-adv-x="563" 
d="M219 740l-104 145h103l64 -87l65 87h100l-104 -145h-124zM0 597v103h563v-103h-222v-597h-119v597h-222z" />
    <glyph glyph-name="uni021A" unicode="&#x21a;" horiz-adv-x="563" 
d="M227 -200l5 150h102l-30 -150h-77zM0 597v103h563v-103h-222v-597h-119v597h-222z" />
    <glyph glyph-name="Uacute" unicode="&#xda;" 
d="M355 740h-95l87 145h124zM486 700h119v-547c0 -91 -62 -153 -153 -153h-235c-90 0 -152 62 -152 153v547h119v-541c0 -35 21 -55 55 -55h192c34 0 55 20 55 55v541z" />
    <glyph glyph-name="Ucircumflex" unicode="&#xdb;" 
d="M486 700h119v-547c0 -91 -62 -153 -153 -153h-235c-90 0 -152 62 -152 153v547h119v-541c0 -35 21 -55 55 -55h192c34 0 55 20 55 55v541zM397 885l104 -145h-103l-64 87l-65 -87h-100l104 145h124z" />
    <glyph glyph-name="Udieresis" unicode="&#xdc;" 
d="M164 744v121h96v-121h-96zM409 744v121h96v-121h-96zM486 700h119v-547c0 -91 -62 -153 -153 -153h-235c-90 0 -152 62 -152 153v547h119v-541c0 -35 21 -55 55 -55h192c34 0 55 20 55 55v541z" />
    <glyph glyph-name="Ugrave" unicode="&#xd9;" 
d="M410 740h-95l-115 145h123zM486 700h119v-547c0 -91 -62 -153 -153 -153h-235c-90 0 -152 62 -152 153v547h119v-541c0 -35 21 -55 55 -55h192c34 0 55 20 55 55v541z" />
    <glyph glyph-name="Uhungarumlaut" unicode="&#x170;" 
d="M486 700h119v-547c0 -91 -62 -153 -153 -153h-235c-90 0 -152 62 -152 153v547h119v-541c0 -35 21 -55 55 -55h192c34 0 55 20 55 55v541zM246 740h-88l92 145h116zM452 740h-88l92 145h116z" />
    <glyph glyph-name="Umacron" unicode="&#x16a;" 
d="M163 767v81h342v-81h-342zM486 700h119v-547c0 -91 -62 -153 -153 -153h-235c-90 0 -152 62 -152 153v547h119v-541c0 -35 21 -55 55 -55h192c34 0 55 20 55 55v541z" />
    <glyph glyph-name="Uogonek" unicode="&#x172;" 
d="M486 700h119v-547c0 -91 -62 -153 -153 -153h-49l-35 -50c-7 -10 -10 -22 -10 -31c0 -19 12 -33 35 -33h54v-86h-85c-52 0 -100 39 -100 96c0 26 9 54 31 85l13 19h-89c-90 0 -152 62 -152 153v547h119v-541c0 -35 21 -55 55 -55h192c34 0 55 20 55 55v541z" />
    <glyph glyph-name="Uring" unicode="&#x16e;" 
d="M486 700h119v-547c0 -91 -62 -153 -153 -153h-235c-90 0 -152 62 -152 153v547h119v-541c0 -35 21 -55 55 -55h192c34 0 55 20 55 55v541zM225 817c0 60 45 101 109 101c65 0 109 -41 109 -101s-44 -101 -109 -101c-64 0 -109 41 -109 101zM291 817c0 -32 15 -49 43 -49
c29 0 43 17 43 49c0 31 -14 49 -43 49c-28 0 -43 -18 -43 -49z" />
    <glyph glyph-name="Yacute" unicode="&#xdd;" horiz-adv-x="635" 
d="M377 257v-257h-119v257l-256 443h142l176 -323l178 323h134zM337 740h-95l87 145h124z" />
    <glyph glyph-name="Ydieresis" unicode="&#x178;" horiz-adv-x="635" 
d="M377 257v-257h-119v257l-256 443h142l176 -323l178 323h134zM146 744v121h96v-121h-96zM391 744v121h96v-121h-96z" />
    <glyph glyph-name="Zacute" unicode="&#x179;" horiz-adv-x="627" 
d="M55 104l376 493h-376v103h517v-103l-375 -493h375v-104h-517v104zM333 740h-95l87 145h124z" />
    <glyph glyph-name="Zcaron" unicode="&#x17d;" horiz-adv-x="627" 
d="M251 740l-104 145h103l64 -87l65 87h100l-104 -145h-124zM55 104l376 493h-376v103h517v-103l-375 -493h375v-104h-517v104z" />
    <glyph glyph-name="Zdotaccent" unicode="&#x17b;" horiz-adv-x="627" 
d="M258 740v129h111v-129h-111zM55 104l376 493h-376v103h517v-103l-375 -493h375v-104h-517v104z" />
    <glyph glyph-name="a" unicode="a" horiz-adv-x="546" 
d="M481 0h-85l-14 44c-26 -28 -65 -44 -111 -44h-79c-90 0 -149 60 -149 149v7c0 89 59 149 149 149h79c39 0 73 -12 98 -33v101c0 32 -19 51 -51 51h-90c-33 0 -52 -19 -52 -51v-23h-111v21c0 89 60 149 149 149h118c89 0 149 -60 149 -149v-371zM318 96c30 0 49 17 51 46
v23c0 33 -19 52 -51 52h-113c-32 0 -51 -19 -51 -52v-18c0 -32 19 -51 51 -51h113z" />
    <glyph glyph-name="b" unicode="b" horiz-adv-x="558" 
d="M65 0v740h111v-255c26 22 61 35 103 35h71c92 0 153 -61 153 -153v-214c0 -91 -61 -153 -153 -153h-71c-49 0 -89 17 -116 47l-13 -47h-85zM232 424c-34 0 -54 -18 -56 -50v-223c0 -34 21 -55 56 -55h105c34 0 55 21 55 55v218c0 35 -21 55 -55 55h-105z" />
    <glyph glyph-name="c" unicode="c" horiz-adv-x="538" 
d="M382 185h111v-32c0 -91 -61 -153 -153 -153h-133c-90 0 -152 62 -152 153v214c0 92 62 153 152 153h133c92 0 153 -61 153 -153v-32h-111v34c0 35 -21 55 -55 55h-105c-35 0 -56 -20 -56 -55v-218c0 -34 21 -55 56 -55h105c34 0 55 21 55 55v34z" />
    <glyph glyph-name="d" unicode="d" horiz-adv-x="558" 
d="M493 740v-740h-85l-14 47c-27 -30 -67 -47 -114 -47h-72c-92 0 -153 62 -153 153v214c0 92 61 153 153 153h72c41 0 76 -13 102 -35v255h111zM382 369c0 35 -21 55 -55 55h-105c-35 0 -56 -20 -56 -55v-218c0 -34 21 -55 56 -55h105c32 0 53 19 55 50v223z" />
    <glyph glyph-name="e" unicode="e" horiz-adv-x="548" 
d="M382 170h111v-17c0 -91 -61 -153 -153 -153h-133c-90 0 -152 62 -152 153v214c0 92 62 153 152 153h133c92 0 153 -61 153 -153v-147h-327v-69c0 -34 21 -55 56 -55h105c34 0 55 21 55 55v19zM166 369v-60h216v60c0 35 -21 55 -55 55h-105c-35 0 -56 -20 -56 -55z" />
    <glyph glyph-name="f" unicode="f" horiz-adv-x="361" 
d="M226 593v-73h135v-96h-135v-424h-111v424h-115v96h115v71c0 89 60 149 148 149h98v-96h-83c-33 0 -52 -19 -52 -51z" />
    <glyph glyph-name="g" unicode="g" horiz-adv-x="558" 
d="M493 520v-567c0 -92 -61 -153 -152 -153h-133c-92 0 -153 61 -153 153v17h111v-19c0 -34 21 -55 56 -55h105c34 0 55 21 55 55v84c-26 -23 -61 -35 -102 -35h-72c-92 0 -153 62 -153 153v214c0 92 61 153 153 153h72c47 0 87 -17 114 -47l14 47h85zM166 369v-218
c0 -34 21 -55 56 -55h105c34 0 55 21 55 55v218c0 35 -21 55 -55 55h-105c-35 0 -56 -20 -56 -55z" />
    <glyph glyph-name="h" unicode="h" horiz-adv-x="568" 
d="M503 0h-111v369c0 35 -21 55 -55 55h-105c-35 0 -56 -20 -56 -55v-369h-111v740h111v-255c26 22 61 35 103 35h71c92 0 153 -61 153 -153v-367z" />
    <glyph glyph-name="i" unicode="i" horiz-adv-x="241" 
d="M65 0v520h111v-520h-111zM65 595v129h111v-129h-111z" />
    <glyph glyph-name="j" unicode="j" horiz-adv-x="241" 
d="M65 -200v720h111v-720h-111zM65 595v129h111v-129h-111z" />
    <glyph glyph-name="k" unicode="k" horiz-adv-x="512" 
d="M386 0l-210 250v-250h-111v740h111v-471l207 251h134l-210 -253l225 -267h-146z" />
    <glyph glyph-name="l" unicode="l" horiz-adv-x="241" 
d="M65 0v740h111v-740h-111z" />
    <glyph glyph-name="m" unicode="m" horiz-adv-x="818" 
d="M465 0h-112v369c0 35 -20 55 -55 55h-66c-35 0 -56 -20 -56 -55v-369h-111v520h85l13 -47c27 30 67 47 116 47h33c55 0 99 -22 126 -60c26 37 70 60 125 60h37c92 0 153 -61 153 -153v-367h-111v369c0 35 -21 55 -56 55h-66c-35 0 -55 -20 -55 -55v-369z" />
    <glyph glyph-name="n" unicode="n" horiz-adv-x="568" 
d="M503 0h-111v369c0 35 -21 55 -55 55h-105c-34 0 -54 -18 -56 -50v-374h-111v520h85l13 -47c27 30 67 47 116 47h71c92 0 153 -61 153 -153v-367z" />
    <glyph glyph-name="o" unicode="o" horiz-adv-x="548" 
d="M382 151v218c0 35 -21 55 -55 55h-105c-35 0 -56 -20 -56 -55v-218c0 -34 21 -55 56 -55h105c34 0 55 21 55 55zM493 153c0 -91 -61 -153 -153 -153h-133c-90 0 -152 62 -152 153v214c0 92 62 153 152 153h133c92 0 153 -61 153 -153v-214z" />
    <glyph glyph-name="p" unicode="p" horiz-adv-x="558" 
d="M65 -200v720h85l13 -47c27 30 67 47 116 47h71c92 0 153 -61 153 -153v-214c0 -91 -61 -153 -153 -153h-71c-42 0 -77 13 -103 35v-235h-111zM392 151v218c0 35 -21 55 -55 55h-105c-34 0 -54 -18 -56 -50v-223c0 -34 21 -55 56 -55h105c34 0 55 21 55 55z" />
    <glyph glyph-name="q" unicode="q" horiz-adv-x="558" 
d="M493 520v-720h-111v235c-26 -23 -61 -35 -102 -35h-72c-92 0 -153 62 -153 153v214c0 92 61 153 153 153h72c47 0 87 -17 114 -47l14 47h85zM166 369v-218c0 -34 21 -55 56 -55h105c34 0 55 21 55 55v218c0 35 -21 55 -55 55h-105c-35 0 -56 -20 -56 -55z" />
    <glyph glyph-name="r" unicode="r" horiz-adv-x="370" 
d="M370 520v-96h-138c-35 0 -56 -20 -56 -55v-369h-111v520h85l13 -47c27 30 67 47 116 47h91z" />
    <glyph glyph-name="s" unicode="s" horiz-adv-x="548" 
d="M345 306c88 0 148 -60 148 -149v-8c0 -89 -60 -149 -148 -149h-141c-89 0 -149 60 -149 149v20h111v-22c0 -32 19 -51 52 -51h113c32 0 51 20 51 52v18c0 32 -19 52 -51 52h-123c-88 0 -148 59 -148 149v4c0 89 60 149 148 149h131c89 0 149 -60 149 -149v-20h-111v22
c0 32 -19 51 -51 51h-103c-33 0 -52 -19 -52 -51v-16c0 -32 19 -51 52 -51h122z" />
    <glyph glyph-name="t" unicode="t" horiz-adv-x="361" 
d="M0 424v96h125v150l111 33v-183h125v-96h-125v-424h-111v424h-125z" />
    <glyph glyph-name="u" unicode="u" horiz-adv-x="568" 
d="M65 520h111v-369c0 -34 21 -55 56 -55h105c32 0 53 19 55 50v374h111v-520h-85l-14 47c-27 -30 -66 -47 -114 -47h-72c-92 0 -153 61 -153 153v367z" />
    <glyph glyph-name="v" unicode="v" horiz-adv-x="528" 
d="M330 0h-132l-188 520h119l138 -395l139 395h112z" />
    <glyph glyph-name="w" unicode="w" horiz-adv-x="771" 
d="M287 0h-126l-151 520h115l105 -384l104 384h111l103 -384l106 384h107l-151 -520h-125l-100 353z" />
    <glyph glyph-name="x" unicode="x" horiz-adv-x="531" 
d="M377 0l-114 176l-117 -176h-125l180 257l-180 263h132l115 -176l117 176h124l-180 -258l180 -262h-132z" />
    <glyph glyph-name="y" unicode="y" horiz-adv-x="528" 
d="M258 -200h-119l72 200h-13l-188 520h119l139 -396l138 396h112z" />
    <glyph glyph-name="z" unicode="z" horiz-adv-x="496" 
d="M40 96l278 328h-278v96h416v-96l-278 -328h278v-96h-416v96z" />
    <glyph glyph-name="ae" unicode="&#xe6;" horiz-adv-x="862" 
d="M696 170h111v-17c0 -91 -61 -153 -153 -153h-110c-52 0 -95 20 -122 55c-26 -35 -68 -55 -119 -55h-111c-90 0 -149 60 -149 149v7c0 89 59 149 149 149h79c39 0 73 -12 98 -33v101c0 32 -19 51 -51 51h-90c-33 0 -52 -19 -52 -51v-23h-111v21c0 89 60 149 149 149h96
c49 0 90 -19 116 -51c27 32 68 51 118 51h110c92 0 153 -61 153 -153v-147h-326v-69c0 -34 20 -55 55 -55h105c35 0 55 21 55 55v19zM318 96c32 0 51 19 51 51v18c0 33 -19 52 -51 52h-113c-32 0 -51 -19 -51 -52v-18c0 -32 19 -51 51 -51h113zM481 369v-60h215v60
c0 35 -20 55 -55 55h-105c-35 0 -55 -20 -55 -55z" />
    <glyph glyph-name="germandbls" unicode="&#xdf;" horiz-adv-x="581" 
d="M251 0v96h108c35 0 55 21 55 55v139c0 34 -20 55 -55 55h-83v96h81c34 0 55 21 55 55v93c0 35 -21 55 -55 55h-129c-33 0 -52 -19 -52 -51v-593h-111v591c0 89 60 149 148 149h157c92 0 153 -61 153 -153v-59c0 -63 -29 -112 -78 -135c50 -23 81 -72 81 -135v-105
c0 -92 -62 -153 -153 -153h-122z" />
    <glyph glyph-name="eth" unicode="&#xf0;" horiz-adv-x="558" 
d="M158 740h147l54 -57l91 53l33 -57l-78 -45l34 -35c30 -31 54 -70 54 -122v-324c0 -91 -61 -153 -152 -153h-133c-92 0 -153 62 -153 153v149c0 92 61 153 153 153h72c41 0 76 -13 102 -35v67c0 18 -6 31 -16 42l-52 52l-93 -53l-33 57l78 45zM327 96c34 0 55 21 55 55
v153c0 35 -21 55 -55 55h-105c-35 0 -56 -20 -56 -55v-153c0 -34 21 -55 56 -55h105z" />
    <glyph glyph-name="oe" unicode="&#x153;" horiz-adv-x="875" 
d="M709 170h111v-17c0 -91 -61 -153 -153 -153h-110c-53 0 -95 22 -120 59c-24 -37 -67 -59 -120 -59h-110c-90 0 -152 62 -152 153v214c0 92 62 153 152 153h110c53 0 96 -22 120 -59c25 37 67 59 120 59h110c92 0 153 -61 153 -153v-147h-327v-69c0 -34 21 -55 55 -55h105
c35 0 56 21 56 55v19zM382 151v218c0 35 -21 55 -55 55h-105c-35 0 -56 -20 -56 -55v-218c0 -34 21 -55 56 -55h105c34 0 55 21 55 55zM493 369v-60h216v60c0 35 -21 55 -56 55h-105c-34 0 -55 -20 -55 -55z" />
    <glyph glyph-name="oslash" unicode="&#xf8;" horiz-adv-x="548" 
d="M493 153c0 -91 -61 -153 -153 -153h-133c-13 0 -26 1 -38 4l-42 -74l-64 37l40 70c-30 27 -48 67 -48 116v214c0 92 62 153 152 153h133c14 0 27 -2 39 -4l44 75l64 -38l-41 -71c30 -27 47 -67 47 -115v-214zM166 146l160 278h-104c-35 0 -56 -20 -56 -55v-223zM382 151
v220l-160 -275h105c34 0 55 21 55 55z" />
    <glyph glyph-name="thorn" unicode="&#xfe;" horiz-adv-x="558" 
d="M65 -200v940h111v-255c26 22 61 35 103 35h71c92 0 153 -61 153 -153v-214c0 -91 -61 -153 -153 -153h-71c-42 0 -77 13 -103 35v-235h-111zM392 151v218c0 35 -21 55 -55 55h-105c-34 0 -54 -18 -56 -50v-223c0 -34 21 -55 56 -55h105c34 0 55 21 55 55z" />
    <glyph glyph-name="aacute" unicode="&#xe1;" horiz-adv-x="546" 
d="M481 0h-85l-14 44c-26 -28 -65 -44 -111 -44h-79c-90 0 -149 60 -149 149v7c0 89 59 149 149 149h79c39 0 73 -12 98 -33v101c0 32 -19 51 -51 51h-90c-33 0 -52 -19 -52 -51v-23h-111v21c0 89 60 149 149 149h118c89 0 149 -60 149 -149v-371zM318 96c30 0 49 17 51 46
v23c0 33 -19 52 -51 52h-113c-32 0 -51 -19 -51 -52v-18c0 -32 19 -51 51 -51h113zM297 580h-88l92 160h116z" />
    <glyph glyph-name="abreve" unicode="&#x103;" horiz-adv-x="546" 
d="M481 0h-85l-14 44c-26 -28 -65 -44 -111 -44h-79c-90 0 -149 60 -149 149v7c0 89 59 149 149 149h79c39 0 73 -12 98 -33v101c0 32 -19 51 -51 51h-90c-33 0 -52 -19 -52 -51v-23h-111v21c0 89 60 149 149 149h118c89 0 149 -60 149 -149v-371zM318 96c30 0 49 17 51 46
v23c0 33 -19 52 -51 52h-113c-32 0 -51 -19 -51 -52v-18c0 -32 19 -51 51 -51h113zM134 740h84c0 -63 12 -90 55 -90s56 27 56 90h83c0 -115 -46 -162 -139 -162s-139 47 -139 162z" />
    <glyph glyph-name="acircumflex" unicode="&#xe2;" horiz-adv-x="546" 
d="M481 0h-85l-14 44c-26 -28 -65 -44 -111 -44h-79c-90 0 -149 60 -149 149v7c0 89 59 149 149 149h79c39 0 73 -12 98 -33v101c0 32 -19 51 -51 51h-90c-33 0 -52 -19 -52 -51v-23h-111v21c0 89 60 149 149 149h118c89 0 149 -60 149 -149v-371zM318 96c30 0 49 17 51 46
v23c0 33 -19 52 -51 52h-113c-32 0 -51 -19 -51 -52v-18c0 -32 19 -51 51 -51h113zM327 740l101 -160h-103l-54 90l-55 -90h-100l101 160h110z" />
    <glyph glyph-name="adieresis" unicode="&#xe4;" horiz-adv-x="546" 
d="M481 0h-85l-14 44c-26 -28 -65 -44 -111 -44h-79c-90 0 -149 60 -149 149v7c0 89 59 149 149 149h79c39 0 73 -12 98 -33v101c0 32 -19 51 -51 51h-90c-33 0 -52 -19 -52 -51v-23h-111v21c0 89 60 149 149 149h118c89 0 149 -60 149 -149v-371zM318 96c30 0 49 17 51 46
v23c0 33 -19 52 -51 52h-113c-32 0 -51 -19 -51 -52v-18c0 -32 19 -51 51 -51h113zM121 588v121h96v-121h-96zM326 588v121h96v-121h-96z" />
    <glyph glyph-name="agrave" unicode="&#xe0;" horiz-adv-x="546" 
d="M481 0h-85l-14 44c-26 -28 -65 -44 -111 -44h-79c-90 0 -149 60 -149 149v7c0 89 59 149 149 149h79c39 0 73 -12 98 -33v101c0 32 -19 51 -51 51h-90c-33 0 -52 -19 -52 -51v-23h-111v21c0 89 60 149 149 149h118c89 0 149 -60 149 -149v-371zM318 96c30 0 49 17 51 46
v23c0 33 -19 52 -51 52h-113c-32 0 -51 -19 -51 -52v-18c0 -32 19 -51 51 -51h113zM337 580h-88l-120 160h116z" />
    <glyph glyph-name="amacron" unicode="&#x101;" horiz-adv-x="546" 
d="M481 0h-85l-14 44c-26 -28 -65 -44 -111 -44h-79c-90 0 -149 60 -149 149v7c0 89 59 149 149 149h79c39 0 73 -12 98 -33v101c0 32 -19 51 -51 51h-90c-33 0 -52 -19 -52 -51v-23h-111v21c0 89 60 149 149 149h118c89 0 149 -60 149 -149v-371zM318 96c30 0 49 17 51 46
v23c0 33 -19 52 -51 52h-113c-32 0 -51 -19 -51 -52v-18c0 -32 19 -51 51 -51h113zM121 607v81h302v-81h-302z" />
    <glyph glyph-name="aogonek" unicode="&#x105;" horiz-adv-x="546" 
d="M481 0l-35 -50c-7 -10 -10 -22 -10 -31c0 -19 12 -33 35 -33h54v-86h-85c-52 0 -100 39 -100 96c0 26 9 54 31 85l21 31l-10 32c-26 -28 -65 -44 -111 -44h-79c-90 0 -149 60 -149 149v7c0 89 59 149 149 149h79c39 0 73 -12 98 -33v101c0 32 -19 51 -51 51h-90
c-33 0 -52 -19 -52 -51v-23h-111v21c0 89 60 149 149 149h118c89 0 149 -60 149 -149v-371zM318 96c30 0 49 17 51 46v23c0 33 -19 52 -51 52h-113c-32 0 -51 -19 -51 -52v-18c0 -32 19 -51 51 -51h113z" />
    <glyph glyph-name="aring" unicode="&#xe5;" horiz-adv-x="546" 
d="M481 0h-85l-14 44c-26 -28 -65 -44 -111 -44h-79c-90 0 -149 60 -149 149v7c0 89 59 149 149 149h79c39 0 73 -12 98 -33v101c0 32 -19 51 -51 51h-90c-33 0 -52 -19 -52 -51v-23h-111v21c0 89 60 149 149 149h118c89 0 149 -60 149 -149v-371zM318 96c30 0 49 17 51 46
v23c0 33 -19 52 -51 52h-113c-32 0 -51 -19 -51 -52v-18c0 -32 19 -51 51 -51h113zM163 654c0 60 45 101 109 101c65 0 109 -41 109 -101s-44 -101 -109 -101c-64 0 -109 41 -109 101zM229 654c0 -31 15 -49 43 -49c29 0 43 18 43 49c0 32 -14 49 -43 49
c-28 0 -43 -17 -43 -49z" />
    <glyph glyph-name="atilde" unicode="&#xe3;" horiz-adv-x="546" 
d="M481 0h-85l-14 44c-26 -28 -65 -44 -111 -44h-79c-90 0 -149 60 -149 149v7c0 89 59 149 149 149h79c39 0 73 -12 98 -33v101c0 32 -19 51 -51 51h-90c-33 0 -52 -19 -52 -51v-23h-111v21c0 89 60 149 149 149h118c89 0 149 -60 149 -149v-371zM318 96c30 0 49 17 51 46
v23c0 33 -19 52 -51 52h-113c-32 0 -51 -19 -51 -52v-18c0 -32 19 -51 51 -51h113zM214 658c-17 12 -36 8 -47 -10l-33 -53l-64 38l37 60c33 55 94 70 149 38l77 -48c17 -12 36 -8 47 10l30 47l64 -37l-33 -55c-33 -55 -94 -72 -150 -38z" />
    <glyph glyph-name="cacute" unicode="&#x107;" horiz-adv-x="538" 
d="M293 580h-88l92 160h116zM382 185h111v-32c0 -91 -61 -153 -153 -153h-133c-90 0 -152 62 -152 153v214c0 92 62 153 152 153h133c92 0 153 -61 153 -153v-32h-111v34c0 35 -21 55 -55 55h-105c-35 0 -56 -20 -56 -55v-218c0 -34 21 -55 56 -55h105c34 0 55 21 55 55v34z
" />
    <glyph glyph-name="ccaron" unicode="&#x10d;" horiz-adv-x="538" 
d="M213 580l-101 160h103l54 -90l55 90h100l-101 -160h-110zM382 185h111v-32c0 -91 -61 -153 -153 -153h-133c-90 0 -152 62 -152 153v214c0 92 62 153 152 153h133c92 0 153 -61 153 -153v-32h-111v34c0 35 -21 55 -55 55h-105c-35 0 -56 -20 -56 -55v-218
c0 -34 21 -55 56 -55h105c34 0 55 21 55 55v34z" />
    <glyph glyph-name="ccedilla" unicode="&#xe7;" horiz-adv-x="538" 
d="M382 185h111v-32c0 -91 -61 -153 -153 -153h-133c-90 0 -152 62 -152 153v214c0 92 62 153 152 153h133c92 0 153 -61 153 -153v-32h-111v34c0 35 -21 55 -55 55h-105c-35 0 -56 -20 -56 -55v-218c0 -34 21 -55 56 -55h105c34 0 55 21 55 55v34zM315 -200h-103l55 80
l-55 80h103l51 -80z" />
    <glyph glyph-name="cdotaccent" unicode="&#x10b;" horiz-adv-x="538" 
d="M382 185h111v-32c0 -91 -61 -153 -153 -153h-133c-90 0 -152 62 -152 153v214c0 92 62 153 152 153h133c92 0 153 -61 153 -153v-32h-111v34c0 35 -21 55 -55 55h-105c-35 0 -56 -20 -56 -55v-218c0 -34 21 -55 56 -55h105c34 0 55 21 55 55v34zM213 595v129h111v-129
h-111z" />
    <glyph glyph-name="dcaron" unicode="&#x10f;" horiz-adv-x="608" 
d="M538 580l8 200h105l-47 -200h-66zM493 740v-740h-85l-14 47c-27 -30 -67 -47 -114 -47h-72c-92 0 -153 62 -153 153v214c0 92 61 153 153 153h72c41 0 76 -13 102 -35v255h111zM382 369c0 35 -21 55 -55 55h-105c-35 0 -56 -20 -56 -55v-218c0 -34 21 -55 56 -55h105
c32 0 53 19 55 50v223z" />
    <glyph glyph-name="dcroat" unicode="&#x111;" horiz-adv-x="558" 
d="M493 740v-69h65v-81h-65v-590h-85l-14 47c-27 -30 -67 -47 -114 -47h-72c-92 0 -153 62 -153 153v214c0 92 61 153 153 153h72c41 0 76 -13 102 -35v105h-126v81h126v69h111zM382 369c0 35 -21 55 -55 55h-105c-35 0 -56 -20 -56 -55v-218c0 -34 21 -55 56 -55h105
c32 0 53 19 55 50v223z" />
    <glyph glyph-name="eacute" unicode="&#xe9;" horiz-adv-x="548" 
d="M298 580h-88l92 160h116zM382 170h111v-17c0 -91 -61 -153 -153 -153h-133c-90 0 -152 62 -152 153v214c0 92 62 153 152 153h133c92 0 153 -61 153 -153v-147h-327v-69c0 -34 21 -55 56 -55h105c34 0 55 21 55 55v19zM166 369v-60h216v60c0 35 -21 55 -55 55h-105
c-35 0 -56 -20 -56 -55z" />
    <glyph glyph-name="ecaron" unicode="&#x11b;" horiz-adv-x="548" 
d="M218 580l-101 160h103l54 -90l55 90h100l-101 -160h-110zM382 170h111v-17c0 -91 -61 -153 -153 -153h-133c-90 0 -152 62 -152 153v214c0 92 62 153 152 153h133c92 0 153 -61 153 -153v-147h-327v-69c0 -34 21 -55 56 -55h105c34 0 55 21 55 55v19zM166 369v-60h216v60
c0 35 -21 55 -55 55h-105c-35 0 -56 -20 -56 -55z" />
    <glyph glyph-name="ecircumflex" unicode="&#xea;" horiz-adv-x="548" 
d="M328 740l101 -160h-103l-54 90l-55 -90h-100l101 160h110zM382 170h111v-17c0 -91 -61 -153 -153 -153h-133c-90 0 -152 62 -152 153v214c0 92 62 153 152 153h133c92 0 153 -61 153 -153v-147h-327v-69c0 -34 21 -55 56 -55h105c34 0 55 21 55 55v19zM166 369v-60h216
v60c0 35 -21 55 -55 55h-105c-35 0 -56 -20 -56 -55z" />
    <glyph glyph-name="edieresis" unicode="&#xeb;" horiz-adv-x="548" 
d="M123 588v121h96v-121h-96zM328 588v121h96v-121h-96zM382 170h111v-17c0 -91 -61 -153 -153 -153h-133c-90 0 -152 62 -152 153v214c0 92 62 153 152 153h133c92 0 153 -61 153 -153v-147h-327v-69c0 -34 21 -55 56 -55h105c34 0 55 21 55 55v19zM166 369v-60h216v60
c0 35 -21 55 -55 55h-105c-35 0 -56 -20 -56 -55z" />
    <glyph glyph-name="edotaccent" unicode="&#x117;" horiz-adv-x="548" 
d="M382 170h111v-17c0 -91 -61 -153 -153 -153h-133c-90 0 -152 62 -152 153v214c0 92 62 153 152 153h133c92 0 153 -61 153 -153v-147h-327v-69c0 -34 21 -55 56 -55h105c34 0 55 21 55 55v19zM166 369v-60h216v60c0 35 -21 55 -55 55h-105c-35 0 -56 -20 -56 -55z
M218 595v129h111v-129h-111z" />
    <glyph glyph-name="egrave" unicode="&#xe8;" horiz-adv-x="548" 
d="M382 170h111v-17c0 -91 -61 -153 -153 -153h-133c-90 0 -152 62 -152 153v214c0 92 62 153 152 153h133c92 0 153 -61 153 -153v-147h-327v-69c0 -34 21 -55 56 -55h105c34 0 55 21 55 55v19zM166 369v-60h216v60c0 35 -21 55 -55 55h-105c-35 0 -56 -20 -56 -55z
M338 580h-88l-120 160h116z" />
    <glyph glyph-name="emacron" unicode="&#x113;" horiz-adv-x="548" 
d="M382 170h111v-17c0 -91 -61 -153 -153 -153h-133c-90 0 -152 62 -152 153v214c0 92 62 153 152 153h133c92 0 153 -61 153 -153v-147h-327v-69c0 -34 21 -55 56 -55h105c34 0 55 21 55 55v19zM166 369v-60h216v60c0 35 -21 55 -55 55h-105c-35 0 -56 -20 -56 -55z
M122 607v81h302v-81h-302z" />
    <glyph glyph-name="eogonek" unicode="&#x119;" horiz-adv-x="548" 
d="M382 170h111v-17c0 -35 -9 -66 -25 -90l-79 -113c-8 -10 -11 -21 -11 -30c0 -19 13 -34 35 -34h54v-86h-84c-53 0 -100 39 -100 96c0 26 9 54 30 85l12 19h-118c-90 0 -152 62 -152 153v214c0 92 62 153 152 153h133c92 0 153 -61 153 -153v-147h-327v-69
c0 -34 21 -55 56 -55h105c34 0 55 21 55 55v19zM166 369v-60h216v60c0 35 -21 55 -55 55h-105c-35 0 -56 -20 -56 -55z" />
    <glyph glyph-name="gbreve" unicode="&#x11f;" horiz-adv-x="558" 
d="M493 520v-567c0 -92 -61 -153 -152 -153h-133c-92 0 -153 61 -153 153v17h111v-19c0 -34 21 -55 56 -55h105c34 0 55 21 55 55v84c-26 -23 -61 -35 -102 -35h-72c-92 0 -153 62 -153 153v214c0 92 61 153 153 153h72c47 0 87 -17 114 -47l14 47h85zM166 369v-218
c0 -34 21 -55 56 -55h105c34 0 55 21 55 55v218c0 35 -21 55 -55 55h-105c-35 0 -56 -20 -56 -55zM140 740h84c0 -63 12 -90 55 -90s56 27 56 90h83c0 -115 -46 -162 -139 -162s-139 47 -139 162z" />
    <glyph glyph-name="gcommaaccent" unicode="&#x123;" horiz-adv-x="558" 
d="M331 740l-5 -150h-102l30 150h77zM493 520v-567c0 -92 -61 -153 -152 -153h-133c-92 0 -153 61 -153 153v17h111v-19c0 -34 21 -55 56 -55h105c34 0 55 21 55 55v84c-26 -23 -61 -35 -102 -35h-72c-92 0 -153 62 -153 153v214c0 92 61 153 153 153h72
c47 0 87 -17 114 -47l14 47h85zM166 369v-218c0 -34 21 -55 56 -55h105c34 0 55 21 55 55v218c0 35 -21 55 -55 55h-105c-35 0 -56 -20 -56 -55z" />
    <glyph glyph-name="gdotaccent" unicode="&#x121;" horiz-adv-x="558" 
d="M493 520v-567c0 -92 -61 -153 -152 -153h-133c-92 0 -153 61 -153 153v17h111v-19c0 -34 21 -55 56 -55h105c34 0 55 21 55 55v84c-26 -23 -61 -35 -102 -35h-72c-92 0 -153 62 -153 153v214c0 92 61 153 153 153h72c47 0 87 -17 114 -47l14 47h85zM166 369v-218
c0 -34 21 -55 56 -55h105c34 0 55 21 55 55v218c0 35 -21 55 -55 55h-105c-35 0 -56 -20 -56 -55zM223 595v129h111v-129h-111z" />
    <glyph glyph-name="hbar" unicode="&#x127;" horiz-adv-x="568" 
d="M0 590v81h65v69h111v-69h126v-81h-126v-105c26 22 61 35 103 35h71c92 0 153 -61 153 -153v-367h-111v369c0 35 -21 55 -55 55h-105c-35 0 -56 -20 -56 -55v-369h-111v590h-65z" />
    <glyph glyph-name="iacute" unicode="&#xed;" horiz-adv-x="241" 
d="M155 580h-88l92 160h116zM65 0v520h111v-520h-111z" />
    <glyph glyph-name="icircumflex" unicode="&#xee;" horiz-adv-x="241" 
d="M177 740l101 -160h-103l-54 90l-55 -90h-100l101 160h110zM65 0v520h111v-520h-111z" />
    <glyph glyph-name="idieresis" unicode="&#xef;" horiz-adv-x="241" 
d="M-29 588v121h96v-121h-96zM176 588v121h96v-121h-96zM65 0v520h111v-520h-111z" />
    <glyph glyph-name="dotlessi" unicode="&#x131;" horiz-adv-x="241" 
d="M65 0v520h111v-520h-111z" />
    <glyph glyph-name="igrave" unicode="&#xec;" horiz-adv-x="241" 
d="M65 0v520h111v-520h-111zM175 580h-88l-120 160h116z" />
    <glyph glyph-name="imacron" unicode="&#x12b;" horiz-adv-x="241" 
d="M65 0v520h111v-520h-111zM-30 607v81h302v-81h-302z" />
    <glyph glyph-name="iogonek" unicode="&#x12f;" horiz-adv-x="241" 
d="M65 0v520h111v-520l-35 -50c-7 -10 -10 -22 -10 -31c0 -19 12 -33 35 -33h54v-86h-85c-52 0 -100 39 -100 96c0 26 9 54 31 85l13 19h-14zM65 595v129h111v-129h-111z" />
    <glyph glyph-name="kcommaaccent" unicode="&#x137;" horiz-adv-x="512" 
d="M201 -200l5 150h102l-30 -150h-77zM386 0l-210 250v-250h-111v740h111v-471l207 251h134l-210 -253l225 -267h-146z" />
    <glyph glyph-name="lacute" unicode="&#x13a;" horiz-adv-x="241" 
d="M154 780h-95l87 145h124zM65 0v740h111v-740h-111z" />
    <glyph glyph-name="lcaron" unicode="&#x13e;" horiz-adv-x="291" 
d="M221 580l8 200h105l-47 -200h-66zM65 0v740h111v-740h-111z" />
    <glyph glyph-name="lcommaaccent" unicode="&#x13c;" horiz-adv-x="241" 
d="M67 -200l5 150h102l-30 -150h-77zM65 0v740h111v-740h-111z" />
    <glyph glyph-name="ldot" unicode="&#x140;" horiz-adv-x="385" 
d="M65 0v740h111v-740h-111zM254 325v129h111v-129h-111z" />
    <glyph glyph-name="lslash" unicode="&#x142;" horiz-adv-x="321" 
d="M20 262v96l85 28v354h111v-318l85 28v-96l-85 -28v-326h-111v290z" />
    <glyph glyph-name="nacute" unicode="&#x144;" horiz-adv-x="568" 
d="M308 580h-88l92 160h116zM503 0h-111v369c0 35 -21 55 -55 55h-105c-34 0 -54 -18 -56 -50v-374h-111v520h85l13 -47c27 30 67 47 116 47h71c92 0 153 -61 153 -153v-367z" />
    <glyph glyph-name="ncaron" unicode="&#x148;" horiz-adv-x="568" 
d="M228 580l-101 160h103l54 -90l55 90h100l-101 -160h-110zM503 0h-111v369c0 35 -21 55 -55 55h-105c-34 0 -54 -18 -56 -50v-374h-111v520h85l13 -47c27 30 67 47 116 47h71c92 0 153 -61 153 -153v-367z" />
    <glyph glyph-name="ncommaaccent" unicode="&#x146;" horiz-adv-x="568" 
d="M230 -200l5 150h102l-30 -150h-77zM503 0h-111v369c0 35 -21 55 -55 55h-105c-34 0 -54 -18 -56 -50v-374h-111v520h85l13 -47c27 30 67 47 116 47h71c92 0 153 -61 153 -153v-367z" />
    <glyph glyph-name="ntilde" unicode="&#xf1;" horiz-adv-x="568" 
d="M503 0h-111v369c0 35 -21 55 -55 55h-105c-34 0 -54 -18 -56 -50v-374h-111v520h85l13 -47c27 30 67 47 116 47h71c92 0 153 -61 153 -153v-367zM225 658c-17 12 -36 8 -47 -10l-33 -53l-64 38l37 60c33 55 94 70 149 38l77 -48c17 -12 36 -8 47 10l30 47l64 -37l-33 -55
c-33 -55 -94 -72 -150 -38z" />
    <glyph glyph-name="oacute" unicode="&#xf3;" horiz-adv-x="548" 
d="M298 580h-88l92 160h116zM382 151v218c0 35 -21 55 -55 55h-105c-35 0 -56 -20 -56 -55v-218c0 -34 21 -55 56 -55h105c34 0 55 21 55 55zM493 153c0 -91 -61 -153 -153 -153h-133c-90 0 -152 62 -152 153v214c0 92 62 153 152 153h133c92 0 153 -61 153 -153v-214z" />
    <glyph glyph-name="ocircumflex" unicode="&#xf4;" horiz-adv-x="548" 
d="M328 740l101 -160h-103l-54 90l-55 -90h-100l101 160h110zM382 151v218c0 35 -21 55 -55 55h-105c-35 0 -56 -20 -56 -55v-218c0 -34 21 -55 56 -55h105c34 0 55 21 55 55zM493 153c0 -91 -61 -153 -153 -153h-133c-90 0 -152 62 -152 153v214c0 92 62 153 152 153h133
c92 0 153 -61 153 -153v-214z" />
    <glyph glyph-name="odieresis" unicode="&#xf6;" horiz-adv-x="548" 
d="M123 588v121h96v-121h-96zM328 588v121h96v-121h-96zM382 151v218c0 35 -21 55 -55 55h-105c-35 0 -56 -20 -56 -55v-218c0 -34 21 -55 56 -55h105c34 0 55 21 55 55zM493 153c0 -91 -61 -153 -153 -153h-133c-90 0 -152 62 -152 153v214c0 92 62 153 152 153h133
c92 0 153 -61 153 -153v-214z" />
    <glyph glyph-name="ograve" unicode="&#xf2;" horiz-adv-x="548" 
d="M382 151v218c0 35 -21 55 -55 55h-105c-35 0 -56 -20 -56 -55v-218c0 -34 21 -55 56 -55h105c34 0 55 21 55 55zM493 153c0 -91 -61 -153 -153 -153h-133c-90 0 -152 62 -152 153v214c0 92 62 153 152 153h133c92 0 153 -61 153 -153v-214zM338 580h-88l-120 160h116z
" />
    <glyph glyph-name="ohungarumlaut" unicode="&#x151;" horiz-adv-x="548" 
d="M211 580h-76l78 160h105zM386 580h-83l78 160h112zM382 151v218c0 35 -21 55 -55 55h-105c-35 0 -56 -20 -56 -55v-218c0 -34 21 -55 56 -55h105c34 0 55 21 55 55zM493 153c0 -91 -61 -153 -153 -153h-133c-90 0 -152 62 -152 153v214c0 92 62 153 152 153h133
c92 0 153 -61 153 -153v-214z" />
    <glyph glyph-name="omacron" unicode="&#x14d;" horiz-adv-x="548" 
d="M122 607v81h302v-81h-302zM382 151v218c0 35 -21 55 -55 55h-105c-35 0 -56 -20 -56 -55v-218c0 -34 21 -55 56 -55h105c34 0 55 21 55 55zM493 153c0 -91 -61 -153 -153 -153h-133c-90 0 -152 62 -152 153v214c0 92 62 153 152 153h133c92 0 153 -61 153 -153v-214z" />
    <glyph glyph-name="otilde" unicode="&#xf5;" horiz-adv-x="548" 
d="M382 151v218c0 35 -21 55 -55 55h-105c-35 0 -56 -20 -56 -55v-218c0 -34 21 -55 56 -55h105c34 0 55 21 55 55zM493 153c0 -91 -61 -153 -153 -153h-133c-90 0 -152 62 -152 153v214c0 92 62 153 152 153h133c92 0 153 -61 153 -153v-214zM215 658c-17 12 -36 8 -47 -10
l-33 -53l-64 38l37 60c33 55 94 70 149 38l77 -48c17 -12 36 -8 47 10l30 47l64 -37l-33 -55c-33 -55 -94 -72 -150 -38z" />
    <glyph glyph-name="racute" unicode="&#x155;" horiz-adv-x="370" 
d="M209 580h-88l92 160h116zM370 520v-96h-138c-35 0 -56 -20 -56 -55v-369h-111v520h85l13 -47c27 30 67 47 116 47h91z" />
    <glyph glyph-name="rcaron" unicode="&#x159;" horiz-adv-x="370" 
d="M130 580l-101 160h103l54 -90l55 90h100l-101 -160h-110zM370 520v-96h-138c-35 0 -56 -20 -56 -55v-369h-111v520h85l13 -47c27 30 67 47 116 47h91z" />
    <glyph glyph-name="sacute" unicode="&#x15b;" horiz-adv-x="548" 
d="M298 580h-88l92 160h116zM345 306c88 0 148 -60 148 -149v-8c0 -89 -60 -149 -148 -149h-141c-89 0 -149 60 -149 149v20h111v-22c0 -32 19 -51 52 -51h113c32 0 51 20 51 52v18c0 32 -19 52 -51 52h-123c-88 0 -148 59 -148 149v4c0 89 60 149 148 149h131
c89 0 149 -60 149 -149v-20h-111v22c0 32 -19 51 -51 51h-103c-33 0 -52 -19 -52 -51v-16c0 -32 19 -51 52 -51h122z" />
    <glyph glyph-name="scaron" unicode="&#x161;" horiz-adv-x="548" 
d="M218 580l-101 160h103l54 -90l55 90h100l-101 -160h-110zM345 306c88 0 148 -60 148 -149v-8c0 -89 -60 -149 -148 -149h-141c-89 0 -149 60 -149 149v20h111v-22c0 -32 19 -51 52 -51h113c32 0 51 20 51 52v18c0 32 -19 52 -51 52h-123c-88 0 -148 59 -148 149v4
c0 89 60 149 148 149h131c89 0 149 -60 149 -149v-20h-111v22c0 32 -19 51 -51 51h-103c-33 0 -52 -19 -52 -51v-16c0 -32 19 -51 52 -51h122z" />
    <glyph glyph-name="scedilla" unicode="&#x15f;" horiz-adv-x="548" 
d="M345 306c88 0 148 -60 148 -149v-8c0 -89 -60 -149 -148 -149h-141c-89 0 -149 60 -149 149v20h111v-22c0 -32 19 -51 52 -51h113c32 0 51 20 51 52v18c0 32 -19 52 -51 52h-123c-88 0 -148 59 -148 149v4c0 89 60 149 148 149h131c89 0 149 -60 149 -149v-20h-111v22
c0 32 -19 51 -51 51h-103c-33 0 -52 -19 -52 -51v-16c0 -32 19 -51 52 -51h122zM320 -200h-103l55 80l-55 80h103l51 -80z" />
    <glyph glyph-name="uni0219" unicode="&#x219;" horiz-adv-x="548" 
d="M220 -200l5 150h102l-30 -150h-77zM345 306c88 0 148 -60 148 -149v-8c0 -89 -60 -149 -148 -149h-141c-89 0 -149 60 -149 149v20h111v-22c0 -32 19 -51 52 -51h113c32 0 51 20 51 52v18c0 32 -19 52 -51 52h-123c-88 0 -148 59 -148 149v4c0 89 60 149 148 149h131
c89 0 149 -60 149 -149v-20h-111v22c0 32 -19 51 -51 51h-103c-33 0 -52 -19 -52 -51v-16c0 -32 19 -51 52 -51h122z" />
    <glyph glyph-name="tcaron" unicode="&#x165;" horiz-adv-x="361" 
d="M281 580l8 200h105l-47 -200h-66zM0 424v96h125v150l111 33v-183h125v-96h-125v-424h-111v424h-125z" />
    <glyph glyph-name="uni021B" unicode="&#x21b;" horiz-adv-x="361" 
d="M127 -200l5 150h102l-30 -150h-77zM0 424v96h125v150l111 33v-183h125v-96h-125v-424h-111v424h-125z" />
    <glyph glyph-name="uacute" unicode="&#xfa;" horiz-adv-x="568" 
d="M278 580h-88l92 160h116zM65 520h111v-369c0 -34 21 -55 56 -55h105c32 0 53 19 55 50v374h111v-520h-85l-14 47c-27 -30 -66 -47 -114 -47h-72c-92 0 -153 61 -153 153v367z" />
    <glyph glyph-name="ucircumflex" unicode="&#xfb;" horiz-adv-x="568" 
d="M338 740l101 -160h-103l-54 90l-55 -90h-100l101 160h110zM65 520h111v-369c0 -34 21 -55 56 -55h105c32 0 53 19 55 50v374h111v-520h-85l-14 47c-27 -30 -66 -47 -114 -47h-72c-92 0 -153 61 -153 153v367z" />
    <glyph glyph-name="udieresis" unicode="&#xfc;" horiz-adv-x="568" 
d="M133 588v121h96v-121h-96zM338 588v121h96v-121h-96zM65 520h111v-369c0 -34 21 -55 56 -55h105c32 0 53 19 55 50v374h111v-520h-85l-14 47c-27 -30 -66 -47 -114 -47h-72c-92 0 -153 61 -153 153v367z" />
    <glyph glyph-name="ugrave" unicode="&#xf9;" horiz-adv-x="568" 
d="M65 520h111v-369c0 -34 21 -55 56 -55h105c32 0 53 19 55 50v374h111v-520h-85l-14 47c-27 -30 -66 -47 -114 -47h-72c-92 0 -153 61 -153 153v367zM378 580h-88l-120 160h116z" />
    <glyph glyph-name="uhungarumlaut" unicode="&#x171;" horiz-adv-x="568" 
d="M65 520h111v-369c0 -34 21 -55 56 -55h105c32 0 53 19 55 50v374h111v-520h-85l-14 47c-27 -30 -66 -47 -114 -47h-72c-92 0 -153 61 -153 153v367zM191 580h-76l78 160h105zM366 580h-83l78 160h112z" />
    <glyph glyph-name="umacron" unicode="&#x16b;" horiz-adv-x="568" 
d="M65 520h111v-369c0 -34 21 -55 56 -55h105c32 0 53 19 55 50v374h111v-520h-85l-14 47c-27 -30 -66 -47 -114 -47h-72c-92 0 -153 61 -153 153v367zM132 607v81h302v-81h-302z" />
    <glyph glyph-name="uogonek" unicode="&#x173;" horiz-adv-x="568" 
d="M65 520h111v-369c0 -34 21 -55 56 -55h105c32 0 53 19 55 50v374h111v-520h-1l-35 -50c-7 -10 -10 -22 -10 -31c0 -19 12 -33 35 -33h54v-86h-85c-52 0 -100 39 -100 96c0 26 9 54 31 85l22 32l-10 34c-27 -30 -66 -47 -114 -47h-72c-92 0 -153 61 -153 153v367z" />
    <glyph glyph-name="uring" unicode="&#x16f;" horiz-adv-x="568" 
d="M174 654c0 60 45 101 109 101c65 0 109 -41 109 -101s-44 -101 -109 -101c-64 0 -109 41 -109 101zM240 654c0 -31 15 -49 43 -49c29 0 43 18 43 49c0 32 -14 49 -43 49c-28 0 -43 -17 -43 -49zM65 520h111v-369c0 -34 21 -55 56 -55h105c32 0 53 19 55 50v374h111v-520
h-85l-14 47c-27 -30 -66 -47 -114 -47h-72c-92 0 -153 61 -153 153v367z" />
    <glyph glyph-name="yacute" unicode="&#xfd;" horiz-adv-x="528" 
d="M258 -200h-119l72 200h-13l-188 520h119l139 -396l138 396h112zM288 580h-88l92 160h116z" />
    <glyph glyph-name="ydieresis" unicode="&#xff;" horiz-adv-x="528" 
d="M258 -200h-119l72 200h-13l-188 520h119l139 -396l138 396h112zM112 588v121h96v-121h-96zM317 588v121h96v-121h-96z" />
    <glyph glyph-name="zacute" unicode="&#x17a;" horiz-adv-x="496" 
d="M272 580h-88l92 160h116zM40 96l278 328h-278v96h416v-96l-278 -328h278v-96h-416v96z" />
    <glyph glyph-name="zcaron" unicode="&#x17e;" horiz-adv-x="496" 
d="M192 580l-101 160h103l54 -90l55 90h100l-101 -160h-110zM40 96l278 328h-278v96h416v-96l-278 -328h278v-96h-416v96z" />
    <glyph glyph-name="zdotaccent" unicode="&#x17c;" horiz-adv-x="496" 
d="M40 96l278 328h-278v96h416v-96l-278 -328h278v-96h-416v96zM192 595v129h111v-129h-111z" />
    <glyph glyph-name="dollar" unicode="$" horiz-adv-x="630" 
d="M259 -100v100h-41c-91 0 -153 61 -153 153v62h119v-56c0 -35 21 -55 55 -55h152c34 0 55 20 55 55v85c0 34 -21 55 -55 55h-174c-90 0 -152 61 -152 153v95c0 92 62 153 152 153h42v100h111v-100h42c91 0 153 -61 153 -153v-62h-119v56c0 35 -21 56 -55 56h-152
c-34 0 -55 -21 -55 -56v-83c0 -35 21 -56 55 -56h174c90 0 152 -61 152 -153v-96c0 -92 -62 -153 -152 -153h-43v-100h-111z" />
    <glyph glyph-name="cent" unicode="&#xa2;" horiz-adv-x="551" 
d="M220 80v100h-23c-92 0 -152 63 -152 153v214c0 95 65 153 152 153h23v100h111v-100h22c91 0 153 -60 153 -153v-32h-112v34c0 34 -19 55 -55 55h-127c-34 0 -56 -20 -56 -55v-218c0 -36 23 -55 56 -55h127c36 0 55 21 55 55v34h112v-32c0 -90 -60 -153 -153 -153h-22
v-100h-111z" />
    <glyph glyph-name="sterling" unicode="&#xa3;" horiz-adv-x="618" 
d="M25 304v89h96v154c0 92 61 153 152 153h144c91 0 153 -61 153 -153v-62h-119v56c0 35 -21 56 -55 56h-101c-35 0 -56 -21 -56 -56v-148h187v-89h-187v-200h334v-104h-548v104h96v200h-96z" />
    <glyph glyph-name="yen" unicode="&#xa5;" horiz-adv-x="635" 
d="M77 314v89h99l-174 297h142l176 -323l178 323h134l-173 -297h99v-89h-147l-34 -57v-22h181v-88h-181v-147h-119v147h-181v88h181v22l-33 57h-148z" />
    <glyph glyph-name="Euro" unicode="&#x20ac;" horiz-adv-x="635" 
d="M25 390v88h65v69c0 92 62 153 152 153h195c91 0 153 -61 153 -153v-84h-119v78c0 35 -21 56 -55 56h-152c-34 0 -55 -21 -55 -56v-63h180v-88h-180v-79h180v-89h-180v-63c0 -35 21 -55 55 -55h152c34 0 55 20 55 55v79h119v-85c0 -91 -62 -153 -153 -153h-195
c-90 0 -152 62 -152 153v69h-65v89h65v79h-65z" />
    <glyph glyph-name="numbersign" unicode="#" horiz-adv-x="731" 
d="M332 0l57 179h-157l-57 -179h-98l57 179h-114v89h142l53 164h-107v89h136l57 179h98l-58 -179h158l57 179h98l-57 -179h114v-89h-143l-53 -164h108v-89h-136l-57 -179h-98zM313 432l-53 -164h158l52 164h-157z" />
    <glyph glyph-name="zero" unicode="0" horiz-adv-x="630" 
d="M446 159v382c0 35 -21 56 -55 56h-152c-34 0 -55 -21 -55 -56v-382c0 -35 21 -55 55 -55h152c34 0 55 20 55 55zM565 153c0 -91 -62 -153 -153 -153h-195c-90 0 -152 62 -152 153v394c0 92 62 153 152 153h195c91 0 153 -61 153 -153v-394z" />
    <glyph glyph-name="one" unicode="1" horiz-adv-x="371" 
d="M306 700v-700h-118v580l-155 -111v120l155 111h118z" />
    <glyph glyph-name="two" unicode="2" horiz-adv-x="610" 
d="M491 355l-269 -251h323v-104h-480v104l345 321c11 10 16 24 16 42v74c0 35 -20 56 -55 56h-132c-34 0 -55 -21 -55 -56v-98h-119v104c0 92 62 153 153 153h175c91 0 152 -61 152 -153v-70c0 -52 -22 -93 -54 -122z" />
    <glyph glyph-name="three" unicode="3" horiz-adv-x="613" 
d="M265 299v103h106c35 0 55 21 55 56v83c0 35 -20 56 -55 56h-132c-34 0 -55 -21 -55 -56v-78h-119v84c0 92 62 153 153 153h174c92 0 153 -61 153 -153v-61c0 -63 -29 -112 -78 -136c50 -22 81 -71 81 -135v-62c0 -92 -62 -153 -153 -153h-177c-91 0 -153 61 -153 153v85
h119v-79c0 -35 21 -55 55 -55h135c34 0 55 20 55 55v85c0 34 -21 55 -55 55h-109z" />
    <glyph glyph-name="four" unicode="4" horiz-adv-x="600" 
d="M381 0v123h-361v103l359 474h121v-474h80v-103h-80v-123h-119zM148 226h233v309z" />
    <glyph glyph-name="five" unicode="5" horiz-adv-x="610" 
d="M65 266v434h460v-103h-341v-181c25 18 57 29 95 29h113c92 0 153 -61 153 -153v-139c0 -91 -61 -153 -153 -153h-174c-91 0 -153 62 -153 153v45h119v-39c0 -35 21 -55 55 -55h132c35 0 55 20 55 55v127c0 35 -20 55 -55 55h-132c-34 0 -55 -20 -55 -55v-20h-119z" />
    <glyph glyph-name="six" unicode="6" horiz-adv-x="610" 
d="M184 541v-160c25 18 57 29 95 29h113c92 0 153 -61 153 -153v-104c0 -91 -61 -153 -153 -153h-175c-90 0 -152 62 -152 153v394c0 92 62 153 152 153h175c92 0 153 -61 153 -153v-62h-119v56c0 35 -20 56 -55 56h-132c-34 0 -55 -21 -55 -56zM371 104c35 0 55 20 55 55
v92c0 35 -20 55 -55 55h-132c-33 0 -53 -18 -55 -50v-97c0 -35 21 -55 55 -55h132z" />
    <glyph glyph-name="seven" unicode="7" horiz-adv-x="560" 
d="M94 0l305 597h-361v103h484v-103l-305 -597h-123z" />
    <glyph glyph-name="eight" unicode="8" horiz-adv-x="630" 
d="M218 0c-91 0 -153 62 -153 153v62c0 64 30 113 80 135c-48 24 -77 73 -77 136v61c0 92 61 153 153 153h189c91 0 153 -61 153 -153v-61c0 -63 -30 -112 -78 -136c50 -22 80 -71 80 -135v-62c0 -91 -61 -153 -153 -153h-194zM391 299h-152c-34 0 -55 -21 -55 -55v-85
c0 -35 21 -55 55 -55h152c35 0 55 20 55 55v85c0 34 -20 55 -55 55zM389 597h-147c-35 0 -56 -21 -56 -56v-83c0 -35 21 -56 56 -56h147c34 0 55 21 55 56v83c0 35 -21 56 -55 56z" />
    <glyph glyph-name="nine" unicode="9" horiz-adv-x="610" 
d="M371 104c35 0 55 20 55 55v142c-25 -18 -58 -28 -94 -28h-114c-91 0 -153 61 -153 153v121c0 92 62 153 153 153h175c91 0 152 -61 152 -153v-394c0 -92 -61 -153 -152 -153h-175c-91 0 -153 61 -153 153v47h119v-41c0 -35 21 -55 55 -55h132zM239 597
c-34 0 -55 -21 -55 -56v-109c0 -35 21 -56 55 -56h132c33 0 53 19 55 51v114c0 35 -20 56 -55 56h-132z" />
    <glyph glyph-name="asciicircum" unicode="^" horiz-adv-x="526" 
d="M206 844h114l176 -470h-116l-120 352l-119 -352h-111z" />
    <glyph glyph-name="plus" unicode="+" horiz-adv-x="512" 
d="M205 399v183h101v-183h176v-96h-176v-182h-101v182h-175v96h175z" />
    <glyph glyph-name="multiply" unicode="&#xd7;" horiz-adv-x="512" 
d="M255 420l150 150l69 -68l-151 -151l147 -147l-68 -68l-147 148l-150 -150l-68 68l150 149l-147 147l68 68z" />
    <glyph glyph-name="less" unicode="&#x3c;" horiz-adv-x="512" 
d="M482 130l-452 173v97l452 172v-107l-331 -114l331 -114v-107z" />
    <glyph glyph-name="greater" unicode="&#x3e;" horiz-adv-x="512" 
d="M30 572l452 -172v-97l-452 -173v107l332 114l-332 114v107z" />
    <glyph glyph-name="equal" unicode="=" horiz-adv-x="512" 
d="M30 524h452v-96h-452v96zM30 274h452v-96h-452v96z" />
    <glyph glyph-name="bar" unicode="|" horiz-adv-x="230" 
d="M65 -135v970h100v-970h-100z" />
    <glyph glyph-name="ordfeminine" unicode="&#xaa;" horiz-adv-x="308" 
d="M285 388h-59l-9 26c-15 -17 -39 -26 -66 -26h-39c-53 0 -89 36 -89 89v5c0 53 36 89 89 89h39c23 0 44 -7 59 -20v53c0 19 -11 30 -30 30h-39c-19 0 -30 -11 -30 -30v-6h-75v13c0 53 36 89 89 89h72c52 0 88 -36 88 -89v-223zM180 450c17 0 28 9 30 26v7
c0 19 -11 30 -30 30h-52c-19 0 -30 -11 -30 -30v-3c0 -19 11 -30 30 -30h52z" />
    <glyph glyph-name="ordmasculine" unicode="&#xba;" horiz-adv-x="308" 
d="M210 487v115c0 20 -12 32 -32 32h-48c-20 0 -32 -12 -32 -32v-115c0 -21 12 -33 32 -33h48c20 0 32 12 32 33zM285 480c0 -55 -37 -92 -91 -92h-80c-54 0 -91 37 -91 92v128c0 55 37 92 91 92h80c54 0 91 -37 91 -92v-128z" />
    <glyph glyph-name="quotesingle" unicode="'" horiz-adv-x="256" 
d="M80 434l-15 266h126l-15 -266h-96z" />
    <glyph glyph-name="quotedbl" unicode="&#x22;" horiz-adv-x="428" 
d="M80 434l-15 266h126l-15 -266h-96zM251 434l-15 266h127l-15 -266h-97z" />
    <glyph glyph-name="underscore" unicode="_" horiz-adv-x="510" 
d="M505 -91h-500v81h500v-81z" />
    <glyph glyph-name="emdash" unicode="&#x2014;" horiz-adv-x="1010" 
d="M5 214v96h1000v-96h-1000z" />
    <glyph glyph-name="endash" unicode="&#x2013;" horiz-adv-x="510" 
d="M5 214v96h500v-96h-500z" />
    <glyph glyph-name="hyphen" unicode="-" horiz-adv-x="276" 
d="M30 214v96h216v-96h-216z" />
    <glyph glyph-name="guilsinglleft" unicode="&#x2039;" horiz-adv-x="270" 
d="M240 56l-220 154v100l220 154v-112l-127 -92l127 -91v-113z" />
    <glyph glyph-name="guilsinglright" unicode="&#x203a;" horiz-adv-x="270" 
d="M23 464l219 -154v-100l-219 -154v112l126 92l-126 91v113z" />
    <glyph glyph-name="guillemotleft" unicode="&#xab;" horiz-adv-x="480" 
d="M240 56l-220 154v100l220 154v-112l-127 -92l127 -91v-113zM450 56l-220 154v100l220 154v-112l-127 -92l127 -91v-113z" />
    <glyph glyph-name="guillemotright" unicode="&#xbb;" horiz-adv-x="480" 
d="M240 464l220 -154v-100l-220 -154v112l127 92l-127 91v113zM30 464l220 -154v-100l-220 -154v112l127 92l-127 91v113z" />
    <glyph glyph-name="quoteright" unicode="&#x2019;" horiz-adv-x="256" 
d="M65 548v258h126l-45 -258h-81z" />
    <glyph glyph-name="quotedblright" unicode="&#x201d;" horiz-adv-x="428" 
d="M65 548v258h126l-45 -258h-81zM236 548v258h127l-45 -258h-82z" />
    <glyph glyph-name="quoteleft" unicode="&#x2018;" horiz-adv-x="256" 
d="M191 806v-258h-126l45 258h81z" />
    <glyph glyph-name="quotedblleft" unicode="&#x201c;" horiz-adv-x="428" 
d="M363 806v-258h-127l45 258h82zM191 806v-258h-126l45 258h81z" />
    <glyph glyph-name="comma" unicode="," horiz-adv-x="256" 
d="M65 -115v259h126l-45 -259h-81z" />
    <glyph glyph-name="period" unicode="." horiz-adv-x="256" 
d="M65 0v144h126v-144h-126z" />
    <glyph glyph-name="colon" unicode=":" horiz-adv-x="256" 
d="M65 0v144h126v-144h-126zM65 376v144h126v-144h-126z" />
    <glyph glyph-name="semicolon" unicode=";" horiz-adv-x="256" 
d="M65 376v144h126v-144h-126zM65 -115v259h126l-45 -259h-81z" />
    <glyph glyph-name="question" unicode="?" horiz-adv-x="632" 
d="M248 208v42c0 89 59 149 148 149h9c32 0 51 19 51 51v103c0 32 -19 51 -51 51h-177c-33 0 -52 -19 -52 -51v-68h-111v66c0 89 60 149 148 149h205c90 0 149 -60 149 -149v-99c0 -90 -59 -149 -149 -149h-8c-32 0 -51 -19 -51 -52v-43h-111zM359 129v-129h-111v129h111z
" />
    <glyph glyph-name="questiondown" unicode="&#xbf;" horiz-adv-x="632" 
d="M274 313h111v-42c0 -90 -60 -149 -148 -149h-9c-33 0 -52 -19 -52 -52v-103c0 -32 19 -51 52 -51h177c32 0 51 19 51 51v68h111v-66c0 -89 -59 -149 -148 -149h-205c-89 0 -149 60 -149 149v100c0 89 60 149 149 149h8c33 0 52 19 52 51v44zM274 391v129h111v-129h-111z
" />
    <glyph glyph-name="exclam" unicode="!" horiz-adv-x="281" 
d="M196 700v-492h-111v492h111zM196 129v-129h-111v129h111z" />
    <glyph glyph-name="exclamdown" unicode="&#xa1;" horiz-adv-x="281" 
d="M85 -180v493h111v-493h-111zM85 391v129h111v-129h-111z" />
    <glyph glyph-name="parenleft" unicode="(" horiz-adv-x="309" 
d="M289 835v-103h-50c-34 0 -55 -21 -55 -56v-652c0 -35 21 -56 55 -56h50v-103h-72c-90 0 -152 61 -152 153v664c0 92 62 153 152 153h72z" />
    <glyph glyph-name="parenright" unicode=")" horiz-adv-x="309" 
d="M20 -135v103h50c35 0 55 21 55 56v652c0 35 -20 56 -55 56h-50v103h72c91 0 152 -61 152 -153v-664c0 -92 -61 -153 -152 -153h-72z" />
    <glyph glyph-name="bracketleft" unicode="[" horiz-adv-x="309" 
d="M289 835v-103h-105v-764h105v-103h-224v970h224z" />
    <glyph glyph-name="bracketright" unicode="]" horiz-adv-x="309" 
d="M20 -135v103h105v764h-105v103h224v-970h-224z" />
    <glyph glyph-name="braceleft" unicode="{" horiz-adv-x="339" 
d="M95 18v225c0 35 -20 56 -54 56h-41v103h41c34 0 54 21 54 55v225c0 92 61 153 152 153h72v-103h-50c-35 0 -55 -21 -55 -56v-191c0 -63 -30 -112 -78 -135c48 -23 78 -72 78 -135v-191c0 -35 20 -56 55 -56h50v-103h-72c-91 0 -152 61 -152 153z" />
    <glyph glyph-name="braceright" unicode="}" horiz-adv-x="339" 
d="M244 682v-225c0 -34 20 -55 54 -55h41v-104h-41c-34 0 -54 -21 -54 -55v-225c0 -92 -61 -153 -152 -153h-72v103h50c35 0 55 21 55 56v191c0 63 30 112 78 135c-48 23 -78 72 -78 135v191c0 35 -20 56 -55 56h-50v103h72c91 0 152 -61 152 -153z" />
    <glyph glyph-name="slash" unicode="/" horiz-adv-x="330" 
d="M-45 -135l322 970h98l-322 -970h-98z" />
    <glyph glyph-name="asterisk" unicode="*" horiz-adv-x="466" 
d="M30 521l25 77l147 -59l-9 161h80l-10 -159l149 58l24 -77l-152 -40l100 -122l-65 -47l-86 136l-87 -136l-65 47l100 121z" />
    <glyph glyph-name="bullet" unicode="&#x2022;" horiz-adv-x="338" 
d="M33 350c0 81 56 137 136 137c81 0 137 -56 137 -137c0 -80 -56 -136 -137 -136c-80 0 -136 56 -136 136z" />
    <glyph glyph-name="section" unicode="&#xa7;" horiz-adv-x="603" 
d="M538 253c0 -49 -18 -90 -50 -116c32 -26 50 -67 50 -116v-72c0 -89 -60 -149 -148 -149h-171c-89 0 -149 60 -149 149v42h111v-44c0 -32 19 -51 52 -51h143c32 0 51 19 51 51v76c0 32 -19 51 -51 51h-163c-88 0 -148 60 -148 149v24c0 50 18 90 49 116
c-31 26 -49 67 -49 116v72c0 89 60 149 148 149h171c89 0 149 -60 149 -149v-42h-111v44c0 32 -19 51 -51 51h-143c-33 0 -52 -19 -52 -51v-75c0 -33 19 -52 52 -52h162c88 0 148 -59 148 -149v-24zM376 330h-148c-33 0 -52 -19 -52 -52v-56c0 -32 19 -52 52 -52h152
c29 2 47 21 47 52v56c0 33 -19 52 -51 52z" />
    <glyph glyph-name="dagger" unicode="&#x2020;" horiz-adv-x="549" 
d="M334 -60h-119l15 455l-210 -15v104l210 -15l-15 231h119l-15 -231l210 15v-104l-210 15z" />
    <glyph glyph-name="copyright" unicode="&#xa9;" horiz-adv-x="880" 
d="M158 350c0 -176 111 -290 282 -290s283 114 283 290s-112 290 -283 290s-282 -114 -282 -290zM80 350c0 218 142 360 360 360s360 -142 360 -360s-142 -360 -360 -360s-360 142 -360 360zM532 294h77v-44c0 -64 -42 -107 -106 -107h-127c-62 0 -105 43 -105 107v200
c0 64 43 107 105 107h127c64 0 106 -43 106 -107v-41h-77v37c0 27 -16 43 -43 43h-98c-26 0 -43 -16 -43 -43v-192c0 -26 17 -43 43 -43h98c27 0 43 17 43 43v40z" />
    <glyph glyph-name="registered" unicode="&#xae;" horiz-adv-x="366" 
d="M30 547c0 93 60 153 153 153s153 -60 153 -153s-60 -153 -153 -153s-153 60 -153 153zM64 547c0 -74 47 -122 119 -122s119 48 119 122c0 75 -47 122 -119 122s-119 -47 -119 -122zM253 557c0 -19 -11 -33 -27 -38l27 -59h-42l-26 58h-31v-58h-39v175h100
c22 0 38 -15 38 -38v-40zM214 566v22c0 8 -4 13 -12 13h-48v-48h48c8 0 12 5 12 13z" />
    <glyph glyph-name="trademark" unicode="&#x2122;" horiz-adv-x="746" 
d="M23 633v67h297v-67h-111v-283h-76v283h-110zM618 350v216l-95 -166l-96 166v-216h-76v350h74l98 -169l97 169h73v-350h-75z" />
    <glyph glyph-name="at" unicode="@" horiz-adv-x="1039" 
d="M756 0c-88 0 -136 48 -144 115l-86 -73c-32 -27 -74 -42 -119 -42c-91 0 -140 62 -124 152l38 215c16 92 88 153 180 153h61c47 0 84 -17 103 -50l10 50h111l-65 -372c-8 -44 10 -71 49 -71c82 0 142 141 142 275c0 177 -117 288 -311 288c-261 0 -473 -199 -473 -492
c0 -177 116 -288 311 -288c80 0 155 18 221 53l27 -67c-75 -36 -159 -56 -248 -56c-244 0 -389 138 -389 358c0 334 247 562 551 562c243 0 388 -138 388 -358c0 -193 -92 -352 -233 -352zM440 96c18 0 32 6 44 15l139 118l26 145c3 31 -14 50 -47 50h-105
c-34 0 -58 -20 -64 -55l-39 -218c-6 -34 11 -55 46 -55z" />
    <glyph glyph-name="ampersand" unicode="&#x26;" horiz-adv-x="638" 
d="M548 299v-299h-88l-15 47c-27 -32 -68 -47 -115 -47h-113c-90 0 -152 62 -152 153v62c0 64 31 113 80 135c-48 24 -77 73 -77 136v61c0 92 61 153 153 153h174c91 0 153 -61 153 -153v-58h-119v52c0 35 -21 56 -55 56h-132c-35 0 -56 -21 -56 -56v-83
c0 -35 21 -56 56 -56h396v-103h-90zM374 104c34 0 55 22 55 50v145h-190c-34 0 -55 -21 -55 -55v-85c0 -35 21 -55 55 -55h135z" />
    <glyph glyph-name="percent" unicode="%" horiz-adv-x="794" 
d="M239 444v162c0 17 -10 27 -26 27h-61c-16 0 -26 -10 -26 -27v-162c0 -17 10 -26 26 -26h61c16 0 26 9 26 26zM315 426c0 -46 -30 -76 -76 -76h-113c-45 0 -76 30 -76 76v198c0 46 31 76 76 76h113c46 0 76 -30 76 -76v-198zM668 94v162c0 17 -9 27 -26 27h-60
c-17 0 -26 -10 -26 -27v-162c0 -17 9 -26 26 -26h60c17 0 26 9 26 26zM744 76c0 -46 -30 -76 -76 -76h-112c-45 0 -76 30 -76 76v198c0 46 31 76 76 76h112c46 0 76 -30 76 -76v-198zM107 0l482 700h98l-481 -700h-99z" />
    <glyph glyph-name="perthousand" unicode="&#x2030;" horiz-adv-x="1159" 
d="M239 444v162c0 17 -10 27 -26 27h-61c-16 0 -26 -10 -26 -27v-162c0 -17 10 -26 26 -26h61c16 0 26 9 26 26zM315 426c0 -46 -30 -76 -76 -76h-113c-45 0 -76 30 -76 76v198c0 46 31 76 76 76h113c46 0 76 -30 76 -76v-198zM668 94v162c0 17 -9 27 -26 27h-60
c-17 0 -26 -10 -26 -27v-162c0 -17 9 -26 26 -26h60c17 0 26 9 26 26zM744 76c0 -46 -30 -76 -76 -76h-112c-45 0 -76 30 -76 76v198c0 46 31 76 76 76h112c46 0 76 -30 76 -76v-198zM107 0l482 700h98l-481 -700h-99zM1033 94v162c0 17 -10 27 -26 27h-60
c-17 0 -27 -10 -27 -27v-162c0 -17 10 -26 27 -26h60c16 0 26 9 26 26zM1109 76c0 -46 -30 -76 -76 -76h-113c-45 0 -76 30 -76 76v198c0 46 31 76 76 76h113c46 0 76 -30 76 -76v-198z" />
    </font>
</defs>
</svg>
