<?xml version="1.0" standalone="no"?>
<!DOCTYPE svg PUBLIC "-//W3C//DTD SVG 1.1//EN" "http://www.w3.org/Graphics/SVG/1.1/DTD/svg11.dtd" >
<svg xmlns="http://www.w3.org/2000/svg">
<metadata></metadata>
<defs>
<font id="frutiger_lt_std75_black" horiz-adv-x="1251" >
<font-face units-per-em="2048" ascent="1536" descent="-512" />
<missing-glyph horiz-adv-x="626" />
<glyph horiz-adv-x="2048" />
<glyph horiz-adv-x="2048" />
<glyph unicode="&#xd;" horiz-adv-x="626" />
<glyph unicode=" "  horiz-adv-x="626" />
<glyph unicode="&#x09;" horiz-adv-x="626" />
<glyph unicode="&#xa0;" horiz-adv-x="626" />
<glyph unicode="!" horiz-adv-x="909" d="M264 1430h381l-53 -945h-275zM283 0v332h344v-332h-344z" />
<glyph unicode="&#x22;" d="M291 874v556h270v-556h-270zM690 874v556h271v-556h-271z" />
<glyph unicode="#" horiz-adv-x="1253" d="M119 383v221h203l30 225h-172v222h203l53 379h217l-53 -379h178l51 379h215l-51 -379h142v-222h-172l-31 -225h141v-221h-172l-53 -383h-215l53 383h-178l-53 -383h-217l53 383h-172zM539 604h178l31 225h-179z" />
<glyph unicode="$" horiz-adv-x="1253" d="M78 1024q0 111 39 189.5t106.5 131t156.5 79t191 30.5v174h123v-174q96 0 201.5 -14.5t177.5 -48.5l-24 -277q-70 35 -168.5 58.5t-186.5 23.5v-309q98 -23 185.5 -51.5t154 -81t105.5 -133t39 -203.5q0 -113 -44 -195t-117 -137t-164 -82t-185 -29v-176h-123v176 q-49 0 -108.5 4.5t-117 10.5t-107.5 16t-81 23l27 290q96 -39 194.5 -56t192.5 -17v346q-86 12 -170 45t-149.5 86t-106.5 128t-41 173zM410 1057q0 -68 48 -102.5t113 -43.5v285q-70 -4 -115.5 -42t-45.5 -97zM668 246q82 8 130 48t48 128q0 37 -16.5 63.5t-42 44 t-57.5 27.5t-62 16v-327z" />
<glyph unicode="%" horiz-adv-x="2048" d="M98 1030q0 88 18.5 166t60.5 135.5t110.5 90t169.5 32.5q100 0 168.5 -32.5t110.5 -90t60.5 -135.5t18.5 -166q0 -92 -18.5 -170t-60.5 -134t-110.5 -88t-168.5 -32t-169 32t-111 88t-60.5 134t-18.5 170zM356 1030q0 -39 2 -81t11.5 -77.5t30 -58t57.5 -22.5t57.5 22.5 t29.5 58t11 77.5t2 81t-2 81t-11 77t-29.5 58.5t-57.5 23.5t-57.5 -23.5t-30 -58.5t-11.5 -77t-2 -81zM518 -45l782 1520h224l-781 -1520h-225zM1233 399q0 88 18.5 166t60.5 135.5t110.5 90t168.5 32.5t169 -32.5t111 -90t60.5 -135.5t18.5 -166q0 -92 -18.5 -169.5 t-60.5 -134t-110.5 -88.5t-169.5 -32q-100 0 -168.5 32t-110.5 88.5t-60.5 134t-18.5 169.5zM1491 399q0 -39 2 -81t11 -77.5t29.5 -58t57.5 -22.5t57.5 22.5t30 58t11.5 77.5t2 81t-2 81t-11.5 77t-30 58.5t-57.5 23.5t-57.5 -23.5t-29.5 -58.5t-11 -77t-2 -81z" />
<glyph unicode="&#x26;" horiz-adv-x="1593" d="M90 410q0 150 74 238.5t207 150.5q-86 68 -129 143.5t-43 169.5t43 159.5t110.5 105.5t152.5 58.5t169 18.5q94 0 183 -17.5t158.5 -58.5t111.5 -108.5t42 -167.5q0 -68 -26.5 -120t-69.5 -95t-98 -78t-113 -68q125 -111 246 -227q49 53 69.5 120.5t24.5 137.5h332 q-6 -137 -62.5 -264t-156.5 -225l254 -283h-408q-23 29 -43 56.5t-43 52.5q-92 -80 -209.5 -107t-234.5 -27q-102 0 -199.5 27t-173.5 80t-122 135t-46 193zM438 418q0 -47 19.5 -83t52.5 -61.5t74 -39t84 -13.5q66 0 114.5 18.5t102.5 59.5q-78 86 -157 163t-161 152 q-59 -33 -94 -75.5t-35 -120.5zM526 1094q0 -31 13.5 -58.5t34 -52.5t44 -45t46.5 -37q27 14 56.5 33.5t56 43t44 52.5t17.5 64q0 63 -47.5 95t-112.5 32q-66 0 -109 -37t-43 -90z" />
<glyph unicode="'" horiz-adv-x="681" d="M207 874v556h270v-556h-270z" />
<glyph unicode="(" horiz-adv-x="796" d="M141 631q0 252 92.5 482t233.5 435h301q-135 -211 -215 -438t-80 -479q0 -248 78 -477.5t203 -440.5h-291q-152 205 -237 433.5t-85 484.5z" />
<glyph unicode=")" horiz-adv-x="796" d="M29 -287q133 209 214 439.5t81 478.5t-81 479t-214 438h301q154 -199 239.5 -431t85.5 -486q0 -252 -92 -482.5t-233 -435.5h-301z" />
<glyph unicode="*" d="M197 1028l77 238l273 -136l-43 300h250l-41 -295l266 131l76 -240l-295 -51l209 -211l-207 -150l-137 265l-148 -263l-201 146l211 211z" />
<glyph unicode="+" horiz-adv-x="1228" d="M96 389v258h389v389h258v-389h390v-258h-390v-389h-258v389h-389z" />
<glyph unicode="," horiz-adv-x="626" d="M4 -223l137 555h344l-200 -555h-281z" />
<glyph unicode="-" horiz-adv-x="681" d="M63 416v270h555v-270h-555z" />
<glyph unicode="." horiz-adv-x="626" d="M141 0v332h344v-332h-344z" />
<glyph unicode="/" horiz-adv-x="569" d="M-43 -25l397 1479h258l-397 -1479h-258z" />
<glyph unicode="0" horiz-adv-x="1253" d="M72 715q0 139 20.5 272t79.5 236.5t168 167t287 63.5t286.5 -63.5t168 -167t80 -236.5t20.5 -272t-20.5 -272.5t-80 -237t-168 -167t-286.5 -63.5t-287 63.5t-168 167t-79.5 236.5t-20.5 273zM440 715q0 -86 5.5 -171t23.5 -155t55 -113t103 -43q63 0 101 43t56.5 113 t23.5 155t5 171t-5 171t-23.5 154.5t-56.5 112.5t-101 43q-66 0 -103 -43t-55 -112.5t-23.5 -154.5t-5.5 -171z" />
<glyph unicode="1" horiz-adv-x="1253" d="M133 1114l485 316h336v-1430h-381v1049l-270 -193z" />
<glyph unicode="2" horiz-adv-x="1253" d="M86 0v272q109 94 220.5 191.5t201.5 191t147.5 179.5t57.5 157q0 96 -58.5 138t-144.5 42q-47 0 -98.5 -8t-102.5 -21.5t-96 -31.5t-78 -37l-14 297q154 55 257 69.5t167 14.5q119 0 220 -25.5t174 -78t114 -131t41 -185.5q0 -104 -49.5 -206.5t-119 -191.5t-143 -162 t-125.5 -116l-102 -88h565v-270h-1034z" />
<glyph unicode="3" horiz-adv-x="1253" d="M86 25l18 301q70 -41 161 -54.5t194 -13.5q43 0 93 8t93 27.5t73 55.5t30 91t-28 88t-69 49.5t-86 21.5t-78 5q-47 0 -86 -1t-73 -3v254q49 -4 86 -4h78q33 0 73.5 8t75.5 26.5t59.5 49.5t24.5 74q0 51 -22.5 82.5t-57.5 50t-79 24.5t-87 6q-96 0 -183 -14t-149 -43 l-18 281q98 29 197.5 44t218.5 15q100 0 200.5 -17.5t180.5 -61.5t130 -119.5t50 -192.5q0 -123 -71.5 -202t-190.5 -111v-5q129 -27 206.5 -108.5t77.5 -216.5q0 -133 -58 -218t-149.5 -136.5t-202 -71t-214.5 -19.5q-121 0 -230.5 10.5t-187.5 39.5z" />
<glyph unicode="4" horiz-adv-x="1253" d="M16 272v303l574 855h422v-900h202v-258h-202v-272h-357v272h-639zM287 530h393v605h-4z" />
<glyph unicode="5" horiz-adv-x="1253" d="M139 27l6 309q82 -41 169 -59.5t180 -18.5q51 0 103 10.5t93 36t66.5 70.5t25.5 112q0 59 -28.5 99.5t-73.5 65t-101.5 34.5t-113.5 10q-78 0 -156 -7t-155 -27l10 768h932v-259h-604v-237q41 4 67.5 6t44.5 2q109 0 208 -24.5t174 -78t120 -137.5t45 -202 q0 -150 -53.5 -250t-141.5 -161.5t-201.5 -87.5t-232.5 -26q-106 0 -200.5 14.5t-182.5 37.5z" />
<glyph unicode="6" horiz-adv-x="1253" d="M84 653q0 164 31.5 309.5t105.5 255t195 173t299 63.5q111 0 200 -16.5t170 -48.5l-22 -281q-47 31 -122 53.5t-179 22.5q-96 0 -159.5 -30t-101.5 -85t-55.5 -133t-17.5 -172h4q51 72 126 108.5t183 36.5q98 0 177 -34.5t135.5 -95t86 -142.5t29.5 -178 q0 -98 -39.5 -186.5t-110.5 -155t-169 -104.5t-217 -38q-154 0 -258.5 55.5t-169 149.5t-93 216t-28.5 257zM444 440q0 -88 47.5 -153.5t139.5 -65.5q90 0 136 59.5t46 143.5q0 45 -10 86t-31.5 72.5t-56.5 50t-84 18.5q-47 0 -82 -17.5t-58.5 -47t-35 -67.5t-11.5 -79z" />
<glyph unicode="7" horiz-adv-x="1253" d="M102 1159v271h1028v-310l-512 -1120h-409l532 1159h-639z" />
<glyph unicode="8" horiz-adv-x="1253" d="M68 383q0 78 22.5 136.5t61 101.5t90 70.5t108.5 43.5v2q-49 16 -94 46t-79 70t-53.5 88t-19.5 101q0 115 44.5 194t118 127t171 69.5t203.5 21.5t196.5 -21.5t156 -66.5t102.5 -114.5t37 -164.5q0 -66 -19.5 -119t-51.5 -92.5t-75 -68.5t-90 -47v-4q57 -18 110.5 -45 t92.5 -69t62.5 -100.5t23.5 -138.5q0 -115 -46 -196.5t-123 -132.5t-178.5 -75t-213.5 -24q-115 0 -216.5 22.5t-177 72t-119.5 126t-44 187.5zM436 412q0 -78 54.5 -128.5t130.5 -50.5q82 0 139 48.5t57 136.5q0 47 -20.5 82t-51 58.5t-68.5 39.5t-75 27q-70 -33 -118 -81 t-48 -132zM449 1040q0 -41 15 -69.5t40.5 -50t57.5 -38t65 -30.5q76 43 118.5 88t42.5 117q0 39 -15 67.5t-39.5 47t-55.5 27.5t-62 9q-70 0 -118.5 -47t-48.5 -121z" />
<glyph unicode="9" horiz-adv-x="1253" d="M84 971q0 98 40 186t110.5 154.5t169 104.5t217.5 38q154 0 258 -55.5t168.5 -149.5t93 -216t28.5 -257q0 -164 -31.5 -310.5t-105.5 -255t-194.5 -172t-298.5 -63.5q-111 0 -200 16.5t-171 49.5l22 281q47 -31 122 -53.5t180 -22.5q94 0 158.5 29.5t102.5 85t55 133 t17 172.5h-4q-51 -72 -125.5 -109t-183.5 -37q-98 0 -177 35t-135.5 95.5t-86 142t-29.5 178.5zM440 1006q0 -45 10.5 -86t32 -73t56 -50.5t84.5 -18.5q47 0 81.5 17.5t58 46t35 67.5t11.5 80q0 88 -47 153.5t-139 65.5q-90 0 -136.5 -59t-46.5 -143z" />
<glyph unicode=":" horiz-adv-x="626" d="M141 0v332h344v-332h-344zM141 735v332h344v-332h-344z" />
<glyph unicode=";" horiz-adv-x="626" d="M4 -223l137 555h344l-200 -555h-281zM141 735v332h344v-332h-344z" />
<glyph unicode="&#x3c;" horiz-adv-x="1228" d="M96 410v217l1037 426v-250l-699 -285l699 -285v-249z" />
<glyph unicode="=" horiz-adv-x="1228" d="M96 154v258h1037v-258h-1037zM96 625v258h1037v-258h-1037z" />
<glyph unicode="&#x3e;" horiz-adv-x="1228" d="M96 -16v249l699 285l-699 285v250l1037 -426v-217z" />
<glyph unicode="?" horiz-adv-x="1138" d="M133 1395q104 33 212 46t218 13q84 0 172 -17.5t160 -58.5t117 -106.5t45 -161.5q0 -70 -23.5 -124t-58.5 -101t-77 -89t-79 -89.5t-63.5 -100.5t-32.5 -121h-299q0 98 41 171t91 134.5t91 120t41 125.5q0 39 -21.5 66.5t-54 46t-72.5 27t-77 8.5q-172 0 -322 -76zM401 0 v332h344v-332h-344z" />
<glyph unicode="@" horiz-adv-x="1638" d="M76 715q0 158 58.5 293t161.5 234t246.5 155.5t313.5 56.5q141 0 270 -42t225.5 -120t154 -188.5t57.5 -247.5q0 -113 -31 -200t-79 -150.5t-108.5 -105.5t-118 -67.5t-107.5 -36.5t-79 -11q-41 0 -71.5 24.5t-32.5 75.5h-4q-37 -41 -91.5 -70.5t-115.5 -29.5 q-63 0 -120.5 29.5t-100.5 82t-68.5 125t-25.5 158.5q0 80 27.5 154.5t78.5 131t123 91.5t160 35q76 0 138 -28t107 -89l19 96h192l-69 -428q-8 -41 -14.5 -68.5t-6.5 -44.5q0 -16 5.5 -27t21.5 -11q29 0 59.5 17t55 53t42 93.5t17.5 137.5q2 221 -125 342.5t-401 121.5 q-121 0 -219.5 -40.5t-167 -113.5t-106.5 -173.5t-38 -218.5q0 -131 40 -231.5t114 -169t176 -103.5t225 -35q129 0 227.5 30.5t163.5 78.5h209q-109 -150 -259 -228t-337 -78q-168 0 -313 55.5t-251.5 154t-167 233.5t-60.5 297zM631 678q0 -84 43 -140.5t129 -56.5 q90 0 140 62.5t50 161.5q0 84 -46 137t-124 53q-45 0 -80.5 -18.5t-60.5 -49t-38 -69.5t-13 -80z" />
<glyph unicode="A" horiz-adv-x="1593" d="M16 0l543 1430h467l551 -1430h-418l-106 305h-537l-113 -305h-387zM604 575h359l-170 560h-5z" />
<glyph unicode="B" horiz-adv-x="1366" d="M123 0v1430h657q100 0 185.5 -23t148 -67t97 -112.5t34.5 -160.5q0 -135 -65.5 -214t-186.5 -120v-4q289 -59 289 -315q0 -129 -51 -209t-131 -126t-179.5 -62.5t-195.5 -16.5h-602zM504 270h112q51 0 102.5 5.5t92.5 22.5t65.5 50t24.5 88q0 57 -25.5 92t-65.5 51.5 t-90 21.5t-99 5h-117v-336zM504 864h106q47 0 92.5 7.5t81 23.5t58 46t22.5 75q0 49 -21.5 77.5t-56 43t-79.5 18.5t-93 4h-110v-295z" />
<glyph unicode="C" horiz-adv-x="1366" d="M80 709q0 186 61.5 326.5t171 233.5t260 139t326.5 46q111 0 215.5 -21.5t208.5 -52.5l-31 -309q-92 51 -183 75.5t-189 24.5q-102 0 -184.5 -34.5t-140.5 -96t-90 -146.5t-32 -185q0 -104 36 -188.5t98.5 -143t150.5 -89t192 -30.5q94 0 186.5 21.5t170.5 52.5l18 -299 q-82 -20 -180 -39t-244 -19q-143 0 -289.5 39t-264.5 125t-192.5 226.5t-74.5 343.5z" />
<glyph unicode="D" horiz-adv-x="1593" d="M133 0v1430h520q186 0 342 -33t267.5 -114t174 -218t62.5 -344q0 -201 -63.5 -338t-176 -222t-268 -123t-338.5 -38h-520zM514 283h148q215 0 329.5 108.5t114.5 323.5t-117 323.5t-327 108.5h-148v-864z" />
<glyph unicode="E" d="M123 0v1430h1007v-271h-626v-295h592v-270h-592v-324h649v-270h-1030z" />
<glyph unicode="F" horiz-adv-x="1138" d="M123 0v1430h956v-271h-575v-313h551v-271h-551v-575h-381z" />
<glyph unicode="G" horiz-adv-x="1593" d="M80 709q0 203 67.5 344t187.5 230t285.5 130t362.5 41q35 0 87 -2t111.5 -9t120 -19.5t113.5 -32.5l-31 -312q-90 53 -185 72.5t-163 19.5q-117 0 -219 -25.5t-179 -80.5t-121 -143t-44 -213q0 -104 36 -188.5t98.5 -143t150.5 -89t192 -30.5q82 0 135 25v282h-223v271 h592v-795q-182 -47 -318.5 -56.5t-234.5 -9.5q-143 0 -289.5 39t-264.5 125t-192.5 226.5t-74.5 343.5z" />
<glyph unicode="H" horiz-adv-x="1478" d="M133 0v1430h381v-547h451v547h381v-1430h-381v612h-451v-612h-381z" />
<glyph unicode="I" horiz-adv-x="684" d="M152 0v1430h380v-1430h-380z" />
<glyph unicode="J" horiz-adv-x="909" d="M29 14v316q74 -35 172 -35q43 0 77.5 16.5t61.5 53t41 96t14 147.5v822h381v-936q0 -115 -25.5 -210.5t-85 -164t-157.5 -106.5t-244 -38q-63 0 -124.5 13.5t-110.5 25.5z" />
<glyph unicode="K" horiz-adv-x="1478" d="M133 0v1430h381v-584h4l430 584h459l-528 -666l569 -764h-485l-445 649h-4v-649h-381z" />
<glyph unicode="L" horiz-adv-x="1138" d="M133 0v1430h381v-1147h590v-283h-971z" />
<glyph unicode="M" horiz-adv-x="2048" d="M123 0v1430h600l303 -951h4l318 951h577v-1430h-373l7 1098h-5l-364 -1098h-350l-348 1098h-5l9 -1098h-373z" />
<glyph unicode="N" horiz-adv-x="1593" d="M139 0v1430h486l483 -971h4l-6 971h348v-1430h-473l-500 977h-4l12 -977h-350z" />
<glyph unicode="O" horiz-adv-x="1593" d="M80 715q0 172 46 309t136 232.5t224.5 146.5t310.5 51t310 -51t224 -146.5t136 -232.5t46 -309q0 -170 -46 -307.5t-137 -233.5t-225 -147.5t-308 -51.5q-176 0 -309.5 51.5t-224.5 147.5t-137 233.5t-46 307.5zM473 715q0 -88 18.5 -171t57.5 -146.5t100.5 -101.5 t147.5 -38t147.5 38t100 101.5t57 146.5t18.5 171q0 92 -18.5 175t-57 145.5t-100 99t-147.5 36.5t-147.5 -36.5t-100.5 -99t-57.5 -145.5t-18.5 -175z" />
<glyph unicode="P" d="M113 0v1430h454q330 0 485.5 -114t155.5 -355q0 -217 -149.5 -339t-417.5 -122h-147v-500h-381zM494 770h98q49 0 92 9t75 33t50 61.5t18 93.5q0 55 -18 92t-50 59.5t-75 31.5t-92 9h-98v-389z" />
<glyph unicode="Q" horiz-adv-x="1593" d="M80 715q0 172 46 309t136 232.5t224.5 146.5t310.5 51t310 -51t224 -146.5t136 -232.5t46 -309q0 -242 -92 -414t-272 -254l338 -317h-430l-240 245h-20q-176 0 -309.5 51.5t-224.5 147.5t-137 233.5t-46 307.5zM473 715q0 -88 18.5 -171t57.5 -146.5t100.5 -101.5 t147.5 -38t147.5 38t100 101.5t57 146.5t18.5 171q0 92 -18.5 175t-57 145.5t-100 99t-147.5 36.5t-147.5 -36.5t-100.5 -99t-57.5 -145.5t-18.5 -175z" />
<glyph unicode="R" horiz-adv-x="1366" d="M123 0v1430h680q94 0 178 -22t147.5 -67t99.5 -112.5t36 -159.5q0 -143 -68 -235.5t-207 -124.5v-4q45 -12 73 -39t48 -67t37.5 -92t44.5 -118l139 -389h-397l-82 258q-29 92 -54.5 151.5t-55 94.5t-67.5 48t-91 13h-80v-565h-381zM504 836h100q45 0 95.5 3t90 19 t66.5 49t27 94q0 49 -23.5 81t-61.5 48.5t-88.5 22.5t-105.5 6h-100v-323z" />
<glyph unicode="S" d="M90 1016q0 129 57.5 214t146.5 134t199.5 69.5t219.5 20.5q104 0 200.5 -14.5t167.5 -38.5l-24 -295q-74 35 -155 50t-163 15q-37 0 -81 -3t-82.5 -16t-65.5 -40t-27 -74q0 -57 50.5 -87.5t125 -53.5t162.5 -47.5t163 -71.5t125 -125t50 -207q0 -139 -53 -230 t-141 -144.5t-202 -75t-233 -21.5q-100 0 -214.5 15.5t-211.5 46.5l33 315q74 -41 174.5 -67.5t218.5 -26.5q45 0 88.5 5t76 20.5t52 43t19.5 70.5q0 68 -50 103t-125 60.5t-163 51t-163 71.5t-125 124t-50 209z" />
<glyph unicode="T" horiz-adv-x="1138" d="M27 1147v283h1085v-283h-352v-1147h-381v1147h-352z" />
<glyph unicode="U" horiz-adv-x="1478" d="M113 543v887h381v-824q0 -72 11 -134t38.5 -110.5t75 -76t120.5 -27.5q74 0 121 27.5t75 76t39 111t11 133.5v824h381v-887q0 -147 -45 -254t-128 -176.5t-198.5 -103.5t-255.5 -34q-139 0 -254.5 34t-198.5 103.5t-128 176t-45 254.5z" />
<glyph unicode="V" horiz-adv-x="1478" d="M20 1430h406l317 -1123h5l319 1123h391l-487 -1430h-471z" />
<glyph unicode="W" horiz-adv-x="2048" d="M16 1430h390l184 -1098h4l192 1098h484l200 -1098h5l186 1098h371l-320 -1430h-489l-203 1098h-4l-189 -1098h-493z" />
<glyph unicode="X" horiz-adv-x="1478" d="M20 0l463 752l-413 678h444l240 -472l245 472h418l-418 -678l459 -752h-454l-277 526l-274 -526h-433z" />
<glyph unicode="Y" horiz-adv-x="1478" d="M23 1430h438l280 -574l277 574h438l-524 -891v-539h-381v539z" />
<glyph unicode="Z" d="M53 0v303l680 844h-661v283h1095v-304l-700 -843h704v-283h-1118z" />
<glyph unicode="[" horiz-adv-x="796" d="M180 -287v1835h541v-233h-234v-1368h234v-234h-541z" />
<glyph unicode="\" horiz-adv-x="569" d="M-43 1454h258l397 -1479h-258z" />
<glyph unicode="]" horiz-adv-x="796" d="M76 -53h233v1368h-233v233h540v-1835h-540v234z" />
<glyph unicode="^" horiz-adv-x="1228" d="M143 682l357 748h229l356 -748h-249l-222 465l-221 -465h-250z" />
<glyph unicode="_" horiz-adv-x="1024" d="M0 -154h1024v-102h-1024v102z" />
<glyph unicode="`" horiz-adv-x="681" d="M-18 1493h383l139 -295h-258z" />
<glyph unicode="a" d="M63 311q0 123 58.5 195t143.5 109.5t180.5 49t168.5 11.5q45 0 91.5 -4t80.5 -10q0 55 -19 89.5t-53 56t-78 30t-93 8.5q-90 0 -176 -18.5t-164 -61.5l-6 250q98 41 202.5 58.5t223.5 17.5q102 0 194 -24t162 -76t110.5 -136t40.5 -207v-397q0 -63 4.5 -126t16.5 -126 h-338q-2 43 -5 85t-3 83h-4q-63 -100 -143 -146.5t-195 -46.5q-80 0 -151.5 19.5t-127 61.5t-88.5 105.5t-33 149.5zM408 338q0 -55 43 -86t108 -31q51 0 94 21.5t72 57.5t45 81t16 92q-35 2 -74.5 4t-80.5 2q-94 0 -158.5 -31.5t-64.5 -109.5z" />
<glyph unicode="b" horiz-adv-x="1368" d="M106 0v1536h371v-606h4q72 90 164 126t203 36t195.5 -48.5t143 -125t88.5 -173t30 -192.5q0 -119 -32 -223.5t-93.5 -183t-152.5 -125t-210 -46.5q-63 0 -121.5 16.5t-107.5 46.5t-84 68.5t-53 83.5h-5v-190h-340zM475 530q0 -59 17.5 -108t48 -86t71.5 -57.5t88 -20.5 q104 0 164 79t60 208q0 53 -14.5 101t-43 84t-70.5 57.5t-96 21.5q-102 0 -163.5 -79t-61.5 -200z" />
<glyph unicode="c" horiz-adv-x="1024" d="M63 532q0 133 47.5 236.5t131.5 175.5t196.5 110t245.5 38q84 0 156.5 -14.5t136.5 -45.5l-27 -270q-51 31 -104 45t-119 14q-59 0 -111.5 -20.5t-90.5 -58t-59.5 -92t-21.5 -124.5q0 -63 25 -115.5t67 -89t97 -56t115 -19.5q63 0 122.5 13t106.5 38l8 -274 q-70 -23 -148.5 -35.5t-152.5 -12.5q-133 0 -245.5 38t-196.5 109t-131.5 174t-47.5 236z" />
<glyph unicode="d" horiz-adv-x="1368" d="M63 553q0 98 30 194.5t88.5 173t143.5 124t195 47.5q111 0 203 -35t164 -127h4v606h371v-1536h-340v190h-4q-18 -45 -53.5 -83.5t-84.5 -68.5t-107.5 -46.5t-121.5 -16.5q-119 0 -210 46.5t-152.5 125t-93.5 183t-32 223.5zM444 545q0 -129 59.5 -208t164.5 -79 q45 0 86 20.5t71.5 57.5t49 86t18.5 108q0 123 -61.5 201t-163.5 78q-53 0 -95.5 -21.5t-71 -57.5t-43 -84t-14.5 -101z" />
<glyph unicode="e" d="M63 535q0 131 43.5 235t119 175t180 109t229.5 38q147 0 250.5 -49.5t167 -131.5t92.5 -190.5t29 -226.5v-68h-738q16 -111 97 -158t217 -47q76 0 158.5 18.5t166.5 63.5v-260q-90 -35 -188.5 -51.5t-202.5 -16.5q-133 0 -245.5 38t-196.5 110t-131.5 175t-47.5 237z M432 635h410q0 92 -47 157.5t-158 65.5q-100 0 -149.5 -65.5t-55.5 -157.5z" />
<glyph unicode="f" horiz-adv-x="909" d="M27 809v258h223v66q0 119 27.5 200.5t84 132t139.5 73t193 22.5q59 0 106.5 -7.5t82.5 -13.5l-23 -254q-23 8 -49.5 12.5t-67.5 4.5q-72 0 -101.5 -46.5t-29.5 -123.5v-66h262v-258h-262v-809h-368v809h-217z" />
<glyph unicode="g" horiz-adv-x="1368" d="M63 537q0 119 29 220t88.5 176t149.5 117t215 42q119 0 211 -59.5t151 -158.5h4v193h334v-942q0 -164 -40 -275.5t-119.5 -179t-200.5 -96.5t-283 -29q-133 0 -237.5 22.5t-169.5 45.5l18 291q84 -41 165 -64.5t195 -23.5q160 0 244 75.5t84 233.5v57h-4 q-66 -94 -157 -138t-201 -44q-111 0 -199 40t-149.5 110.5t-94.5 169t-33 217.5zM444 543q0 -61 17.5 -110.5t46.5 -82.5t66.5 -50t78.5 -17q49 0 92 19.5t75 56t50.5 87t18.5 111.5q0 45 -13.5 90t-42 81t-73.5 58.5t-107 22.5q-51 0 -90 -21.5t-65.5 -57.5t-40 -84 t-13.5 -103z" />
<glyph unicode="h" horiz-adv-x="1366" d="M115 0v1536h368v-627h4q59 84 147.5 133.5t209.5 49.5q109 0 186.5 -36t126.5 -94.5t71.5 -136t22.5 -159.5v-666h-368v516q0 150 -47.5 209t-122.5 59q-115 0 -172.5 -79.5t-57.5 -253.5v-451h-368z" />
<glyph unicode="i" horiz-adv-x="684" d="M158 0v1067h368v-1067h-368zM158 1241v270h368v-270h-368z" />
<glyph unicode="j" horiz-adv-x="684" d="M-51 -436l8 233q20 -4 39.5 -5t38.5 -1q43 0 67.5 18.5t37 48t15.5 66.5t3 76v1067h368v-1077q0 -100 -17 -182t-60 -140.5t-115 -90.5t-178 -32q-59 0 -108.5 4.5t-98.5 14.5zM158 1241v270h368v-270h-368z" />
<glyph unicode="k" d="M115 0v1536h368v-918h4l308 449h403l-371 -489l402 -578h-447l-295 528h-4v-528h-368z" />
<glyph unicode="l" horiz-adv-x="684" d="M158 0v1536h368v-1536h-368z" />
<glyph unicode="m" horiz-adv-x="2048" d="M115 0v1067h336v-197h4q55 117 158.5 169.5t230.5 52.5q115 0 203 -50.5t131 -154.5q66 109 165 157t213 48q115 0 189 -32t116 -91.5t57 -145.5t15 -194v-629h-368v573q0 92 -35 151.5t-113 59.5q-98 0 -153.5 -79.5t-55.5 -253.5v-451h-368v573q0 92 -35 151.5 t-113 59.5q-98 0 -153.5 -79.5t-55.5 -253.5v-451h-368z" />
<glyph unicode="n" horiz-adv-x="1366" d="M115 0v1067h336v-197h4q55 117 158.5 169.5t230.5 52.5q109 0 186.5 -36t126.5 -94.5t71.5 -136t22.5 -159.5v-666h-368v516q0 150 -47.5 209t-122.5 59q-115 0 -172.5 -79.5t-57.5 -253.5v-451h-368z" />
<glyph unicode="o" horiz-adv-x="1368" d="M63 532q0 133 47.5 236.5t131.5 175.5t196.5 110t245.5 38q131 0 244.5 -38t197.5 -110t131.5 -175t47.5 -237q0 -133 -47.5 -236t-131.5 -174t-197.5 -109t-244.5 -38q-133 0 -245.5 38t-196.5 109t-131.5 174t-47.5 236zM444 532q0 -59 13.5 -113t43 -95t75 -66 t108.5 -25t108.5 25t75 66t43 95t13.5 113t-13.5 113.5t-43 96.5t-74.5 67t-109 25q-63 0 -108.5 -25t-75 -67t-43 -96t-13.5 -114z" />
<glyph unicode="p" horiz-adv-x="1368" d="M106 -430v1497h340v-193h5q55 113 162.5 165.5t234.5 52.5q111 0 195.5 -48.5t143 -125t88.5 -173t30 -192.5q0 -119 -32 -223.5t-93.5 -183t-152.5 -125t-210 -46.5q-98 0 -191.5 39t-146.5 136h-4v-580h-369zM475 530q0 -59 17.5 -108t48 -86t71.5 -57.5t88 -20.5 q104 0 164 79t60 208q0 53 -14.5 101t-43 84t-70.5 57.5t-96 21.5q-102 0 -163.5 -79t-61.5 -200z" />
<glyph unicode="q" horiz-adv-x="1368" d="M63 553q0 98 30 194.5t88.5 173t143.5 124t195 47.5q127 0 234.5 -51.5t163.5 -166.5h4v193h340v-1497h-369v580h-4q-53 -96 -146.5 -135.5t-191.5 -39.5q-119 0 -210 46.5t-152.5 125t-93.5 183t-32 223.5zM444 545q0 -129 59.5 -208t164.5 -79q45 0 86 20.5t71.5 57.5 t49 86t18.5 108q0 123 -61.5 201t-163.5 78q-53 0 -95.5 -21.5t-71 -57.5t-43 -84t-14.5 -101z" />
<glyph unicode="r" horiz-adv-x="909" d="M115 0v1067h336v-197h4q47 102 120.5 162t194.5 60q33 0 64.5 -4.5t60.5 -8.5l-18 -307q-31 10 -62 11t-63 1q-129 0 -199 -88t-70 -245v-451h-368z" />
<glyph unicode="s" horiz-adv-x="1024" d="M66 745q0 92 40.5 158t106.5 108t146.5 61.5t160.5 19.5q96 0 190.5 -13.5t184.5 -48.5l-29 -256q-59 35 -138 53.5t-148 18.5q-31 0 -61 -3t-54.5 -11.5t-39.5 -22.5t-15 -37q0 -41 41 -61.5t101 -36t132 -32.5t132.5 -52t101 -96.5t40.5 -161.5q0 -106 -44 -176 t-114.5 -110t-159.5 -55.5t-179 -15.5q-125 0 -215 12.5t-172 39.5l20 268q66 -29 156 -51.5t190 -22.5q57 0 103.5 15.5t46.5 70.5q0 45 -39 68.5t-97.5 40t-126 34t-126 51.5t-97 91t-38.5 153z" />
<glyph unicode="t" horiz-adv-x="909" d="M20 809v258h218v240l362 112v-352h258v-258h-258v-393q0 -98 29.5 -146.5t118.5 -48.5q29 0 56 5t56 10l12 -240q-53 -6 -107 -13.5t-124 -7.5q-123 0 -203 27t-126 78t-63.5 125t-17.5 170v434h-211z" />
<glyph unicode="u" horiz-adv-x="1366" d="M115 401v666h368v-516q0 -76 12.5 -127t35 -83t54 -45t68.5 -13q115 0 172.5 79.5t57.5 253.5v451h368v-1067h-336v197h-4q-55 -117 -158.5 -169.5t-230.5 -52.5q-109 0 -186.5 36t-126.5 94.5t-71.5 135t-22.5 160.5z" />
<glyph unicode="v" d="M20 1067h396l221 -760h4l223 760h367l-395 -1067h-420z" />
<glyph unicode="w" horiz-adv-x="1933" d="M18 1067h385l172 -768h5l184 768h442l180 -768h5l168 768h356l-326 -1067h-428l-180 772h-4l-203 -772h-428z" />
<glyph unicode="x" d="M18 0l363 543l-334 524h436l158 -319l166 319h403l-333 -520l356 -547h-445l-178 332l-176 -332h-416z" />
<glyph unicode="y" d="M16 1067h398l229 -696h4l219 696h369l-391 -993q-39 -100 -78 -195.5t-95.5 -169.5t-139 -119t-209.5 -45q-117 0 -230 25l25 280q37 -12 71.5 -17t73.5 -5q68 0 117 38t70 109z" />
<glyph unicode="z" horiz-adv-x="1024" d="M53 0v295l488 502h-478v270h900v-295l-488 -502h496v-270h-918z" />
<glyph unicode="{" horiz-adv-x="796" d="M61 539v184q18 0 48 4t59 17.5t49.5 40t20.5 73.5v410q0 74 24.5 126t66.5 87t94 51t107 16h205v-184h-96q-41 0 -64.5 -12.5t-36 -32t-15.5 -43t-3 -43.5v-375q0 -70 -25.5 -113t-61.5 -67.5t-77 -33.5t-73 -11v-4q33 -2 73.5 -9.5t76.5 -31t61.5 -70.5t25.5 -129v-360 q0 -20 3 -44t15.5 -43.5t36 -31.5t64.5 -12h96v-185h-205q-55 0 -107 16.5t-94 51.5t-66.5 87t-24.5 126v395q0 51 -20.5 81t-49.5 45t-58.5 19.5t-48.5 4.5z" />
<glyph unicode="|" horiz-adv-x="454" d="M98 -512v2048h258v-2048h-258z" />
<glyph unicode="}" horiz-adv-x="796" d="M61 -102h97q41 0 64.5 12t35.5 31.5t15 43t3 44.5v374q0 70 26 113t61.5 67.5t76.5 34t74 11.5v4q-33 2 -74 9t-76.5 30.5t-61.5 71t-26 128.5v361q0 20 -3 43.5t-15 43t-35.5 32t-64.5 12.5h-97v184h205q55 0 107.5 -16t94.5 -51t66.5 -87.5t24.5 -125.5v-396 q0 -51 20.5 -80.5t49 -45t58.5 -19.5t48 -4v-184q-18 0 -48 -4.5t-58.5 -17.5t-49 -40.5t-20.5 -73.5v-409q0 -74 -24.5 -126t-66.5 -87t-94 -51.5t-108 -16.5h-205v185z" />
<glyph unicode="~" horiz-adv-x="1228" d="M141 537q16 33 40 64.5t54.5 56t70.5 40t91 15.5q61 0 119.5 -20.5t113 -45t104.5 -45t100 -20.5q61 0 103 44t77 97l73 -223q-16 -33 -39.5 -65t-54 -56.5t-70.5 -39.5t-92 -15q-61 0 -119.5 20.5t-112.5 45t-104.5 45t-99.5 20.5q-61 0 -103 -44t-77 -98z" />
<glyph unicode="&#xa1;" horiz-adv-x="909" d="M264 -362l53 944h275l53 -944h-381zM283 735v332h344v-332h-344z" />
<glyph unicode="&#xa2;" horiz-adv-x="1253" d="M150 532q0 133 47 236.5t131 175.5t196.5 110t245.5 38q53 0 107 -7l73 240h121l-80 -264q20 -6 38 -13.5t34 -15.5l-27 -270q-29 16 -58.5 29.5t-62.5 21.5l-165 -555q43 -12 84 -12q63 0 122.5 13t106.5 38l8 -274q-70 -23 -148.5 -35.5t-152.5 -12.5q-53 0 -102 7 l-82 -269h-123l88 293q-180 51 -290.5 186.5t-110.5 339.5zM530 526q0 -72 32 -128t81 -91l154 514q-115 -4 -191 -81.5t-76 -213.5z" />
<glyph unicode="&#xa3;" horiz-adv-x="1253" d="M109 0v270h188v389h-172v185h176v108q0 258 153.5 380t424.5 122q72 0 140 -10t136 -27l-16 -270q-41 14 -82 19t-88 5q-84 0 -140.5 -17t-90 -51t-47 -82t-13.5 -110v-67h311v-185h-311v-389h461v-270h-1030z" />
<glyph unicode="&#xa4;" horiz-adv-x="1253" d="M94 309l119 117q-27 27 -44 61.5t-28.5 72.5t-16.5 78t-5 77t5 76.5t16.5 77.5t28.5 73t44 62l-119 116l129 127l117 -110q27 20 62.5 36.5t73.5 27.5t77 16.5t74 5.5q33 0 72.5 -5.5t77.5 -16.5t74 -27.5t62 -36.5l117 110l129 -127l-119 -116q27 -27 44.5 -62t28.5 -73 t16.5 -77.5t5.5 -76.5t-5.5 -77t-16.5 -78t-28.5 -72.5t-44.5 -61.5l119 -117l-129 -127l-117 111q-27 -23 -62.5 -38t-73.5 -26.5t-78 -16.5t-72 -5q-35 0 -74 5t-77 16.5t-73.5 26.5t-62.5 38l-117 -111zM389 715q0 -109 67 -179.5t171 -70.5t170.5 70.5t66.5 179.5 t-66.5 179.5t-170.5 70.5t-171 -71t-67 -179z" />
<glyph unicode="&#xa5;" horiz-adv-x="1253" d="M0 1430h381l246 -578l241 578h385l-338 -680h199v-172h-283l-20 -39v-88h303v-172h-303v-279h-369v279h-303v172h303v88l-18 39h-285v172h199z" />
<glyph unicode="&#xa6;" horiz-adv-x="454" d="M98 -358v716h258v-716h-258zM98 666v716h258v-716h-258z" />
<glyph unicode="&#xa7;" d="M123 588q0 98 49 161.5t135 116.5q-70 31 -116 96.5t-46 141.5q0 111 49.5 178.5t126 106t172 52t185.5 13.5q84 0 168 -14.5t164 -36.5l-17 -254q-74 29 -155.5 44t-161.5 15q-63 0 -112.5 -18.5t-49.5 -75.5q0 -41 45 -68.5t113.5 -54t148.5 -55.5t148.5 -74 t113.5 -109.5t45 -160.5q0 -88 -48 -157.5t-119 -121.5q33 -16 59.5 -43.5t44.5 -60.5t28.5 -70t10.5 -73q0 -96 -52.5 -163t-131 -108t-173 -59.5t-178.5 -18.5q-123 0 -226 20.5t-171 39.5l18 268q78 -35 179.5 -58.5t185.5 -23.5q76 0 128 20.5t52 86.5q0 45 -45 75.5 t-113.5 58t-147.5 57.5t-147.5 73t-113.5 103.5t-45 150.5zM430 639q0 -51 35 -84q55 -53 132 -81t163 -62q27 31 44 72.5t17 82.5q0 35 -21.5 57.5t-43.5 37.5q-53 33 -122.5 62t-135.5 58q-25 -29 -46.5 -65.5t-21.5 -77.5z" />
<glyph unicode="&#xa8;" horiz-adv-x="681" d="M-39 1198v295h295v-295h-295zM428 1198v295h295v-295h-295z" />
<glyph unicode="&#xa9;" horiz-adv-x="1638" d="M80 715q0 154 58.5 288t158.5 234t234.5 158.5t287.5 58.5q154 0 288 -58.5t234.5 -158.5t159 -234.5t58.5 -287.5q0 -154 -58.5 -288t-159 -234.5t-234.5 -159t-288 -58.5t-288 58.5t-234 159t-158.5 234.5t-58.5 288zM313 715q0 -115 40 -211t108.5 -168t161 -112 t196.5 -40t196.5 40t161 112t108.5 168t40 211q0 113 -40 210t-108.5 168.5t-160.5 111.5t-197 40q-104 0 -196.5 -40t-161 -111.5t-108.5 -168.5t-40 -210zM432 715q0 90 27.5 168t79 134t125 89t165.5 33q160 0 250 -82t95 -228h-197q-16 55 -47 84t-101 29 q-78 0 -120.5 -61.5t-42.5 -165.5t43 -167t120 -63q70 0 101 29t47 84h197q-4 -145 -94.5 -227t-250.5 -82q-92 0 -165.5 32.5t-125 89t-79 134.5t-27.5 170z" />
<glyph unicode="&#xaa;" horiz-adv-x="813" d="M43 983q0 74 37 118t89 66.5t107.5 29.5t90.5 7q53 0 87.5 -3l57.5 -5q0 70 -46 92.5t-112 22.5q-59 0 -115.5 -11.5t-109.5 -39.5v149q123 45 277 45q66 0 129 -8t112 -32.5t80 -72t31 -127.5v-294q4 -66 12 -125h-242l-12 96h-4q-68 -113 -211 -113q-51 0 -98 12.5 t-82 37t-56.5 63.5t-21.5 92zM289 999q0 -39 23.5 -58t64.5 -19q59 0 97 45t38 106h-88q-61 0 -98 -16.5t-37 -57.5z" />
<glyph unicode="&#xab;" d="M96 551l244 418h303l-225 -418l225 -418h-303zM584 551l243 418h303l-225 -418l225 -418h-303z" />
<glyph unicode="&#xac;" horiz-adv-x="1228" d="M96 625v258h1037v-662h-259v404h-778z" />
<glyph unicode="&#xad;" horiz-adv-x="681" d="M63 416v270h555v-270h-555z" />
<glyph unicode="&#xae;" horiz-adv-x="1638" d="M80 715q0 154 58.5 288t158.5 234t234.5 158.5t287.5 58.5q154 0 288 -58.5t234.5 -158.5t159 -234.5t58.5 -287.5q0 -154 -58.5 -288t-159 -234.5t-234.5 -159t-288 -58.5t-288 58.5t-234 159t-158.5 234.5t-58.5 288zM313 715q0 -115 40 -211t108.5 -168t161 -112 t196.5 -40t196.5 40t161 112t108.5 168t40 211q0 113 -40 210t-108.5 168.5t-160.5 111.5t-197 40q-104 0 -196.5 -40t-161 -111.5t-108.5 -169t-40 -209.5zM526 315v805h328q152 0 230.5 -50t78.5 -185q0 -115 -64.5 -166t-160.5 -55l192 -349h-196l-176 336h-35v-336h-197 zM723 807h119q55 0 90 19.5t35 68.5q0 23 -13.5 37t-34 21.5t-46 9.5t-48.5 2h-102v-158z" />
<glyph unicode="&#xaf;" horiz-adv-x="681" d="M-43 1276v172h768v-172h-768z" />
<glyph unicode="&#xb0;" horiz-adv-x="819" d="M109 1153q0 61 23.5 116.5t64.5 96.5t96 64.5t117 23.5q61 0 116.5 -23.5t96.5 -64.5t64.5 -96.5t23.5 -116.5t-23.5 -116.5t-64.5 -96.5t-96.5 -64.5t-116.5 -23.5t-116.5 23.5t-96.5 64.5t-64.5 96.5t-23.5 116.5zM264 1153q0 -59 43 -102t103 -43q59 0 102 43t43 102 t-43 102t-102 43t-102.5 -43t-43.5 -102z" />
<glyph unicode="&#xb1;" horiz-adv-x="1228" d="M96 0v258h1037v-258h-1037zM96 549v258h389v229h258v-229h390v-258h-390v-230h-258v230h-389z" />
<glyph unicode="&#xb2;" horiz-adv-x="815" d="M61 578v184q66 45 135.5 98t128 107.5t96.5 106.5t38 93q0 45 -37 67.5t-88 22.5q-57 0 -120.5 -12t-117.5 -37l-10 197q74 23 157 36t185 13q63 0 122.5 -16.5t104.5 -48t72 -78.5t27 -109q0 -59 -24.5 -112.5t-64.5 -102.5t-92.5 -97t-105.5 -95l-37 -33h307v-184h-676 z" />
<glyph unicode="&#xb3;" horiz-adv-x="815" d="M57 590l13 213q47 -23 106.5 -34t118.5 -11q82 0 131 21.5t49 62.5q0 47 -48 62.5t-114 15.5q-31 0 -56.5 -1t-47.5 -4v183q23 -4 51.5 -5t61.5 -1q68 0 103.5 24.5t35.5 65.5q0 23 -15.5 37t-38 23t-49 12t-51.5 3q-55 0 -110.5 -12t-96.5 -28l-12 200q66 18 131.5 27.5 t155.5 9.5q66 0 132 -10t118.5 -38t85 -74t32.5 -115q0 -74 -47 -121t-127 -68v-4q86 -14 137.5 -64.5t51.5 -130.5t-38 -132t-96.5 -81.5t-132 -42t-143.5 -12.5q-92 0 -164.5 6t-126.5 23z" />
<glyph unicode="&#xb4;" horiz-adv-x="681" d="M203 1198l139 295h383l-264 -295h-258z" />
<glyph unicode="&#xb5;" horiz-adv-x="1366" d="M115 -430v1497h368v-516q0 -76 12.5 -127t35 -83t54 -45t68.5 -13q115 0 172.5 79.5t57.5 253.5v451h368v-1067h-336v197h-4q-55 -117 -158.5 -169.5t-230.5 -52.5h-35v-405h-372z" />
<glyph unicode="&#xb6;" horiz-adv-x="1269" d="M37 1071q0 104 36 173t97 111t144 58.5t180 16.5h690v-1688h-246v1503h-199v-1503h-245v971q-96 0 -179.5 16t-144.5 58t-97 111t-36 173z" />
<glyph unicode="&#xb7;" horiz-adv-x="626" d="M123 557q0 39 15.5 74t41 60.5t60 41t73.5 15.5t74 -15.5t60.5 -41t41 -60.5t15.5 -74t-15.5 -73.5t-41 -60.5t-60.5 -41t-74 -15t-73.5 15t-60 41t-41 60.5t-15.5 73.5z" />
<glyph unicode="&#xb8;" horiz-adv-x="681" d="M113 -408l34 95q45 -20 89.5 -31.5t89.5 -11.5q49 0 76.5 14t27.5 49q0 43 -23.5 57.5t-54.5 14.5q-27 0 -57 -12l-80 49l86 184h135l-55 -133q23 4 43 7t55 3q29 0 57.5 -9t51 -30.5t37 -55.5t14.5 -83q0 -43 -21.5 -72.5t-58.5 -47t-86 -26t-104 -8.5 q-84 0 -143.5 12.5t-112.5 34.5z" />
<glyph unicode="&#xb9;" horiz-adv-x="815" d="M61 1247l312 191h231v-860h-270v589l-162 -98z" />
<glyph unicode="&#xba;" horiz-adv-x="888" d="M35 1116q0 80 30.5 142.5t86 106.5t130 66.5t162.5 22.5t163 -22.5t130.5 -66.5t86 -106.5t30.5 -142.5t-30.5 -142.5t-86 -106.5t-130.5 -66.5t-163 -22.5t-162.5 22.5t-130 66.5t-86 106.5t-30.5 142.5zM293 1116q0 -63 36 -114.5t115 -51.5q80 0 116 51.5t36 114.5 q0 61 -36 113.5t-116 52.5t-115.5 -52.5t-35.5 -113.5z" />
<glyph unicode="&#xbb;" d="M121 133l225 418l-225 418h303l244 -418l-244 -418h-303zM608 133l226 418l-226 418h303l244 -418l-244 -418h-303z" />
<glyph unicode="&#xbc;" horiz-adv-x="1875" d="M61 1251l312 191h231v-860h-270v589l-162 -98zM428 -45l793 1520h223l-793 -1520h-223zM1032 145v207l367 508h309v-530h123v-185h-123v-145h-246v145h-430zM1210 330h252v352h-4z" />
<glyph unicode="&#xbd;" horiz-adv-x="1875" d="M45 1247l311 191h232v-860h-271v589l-161 -98zM412 -45l792 1520h223l-792 -1520h-223zM1139 0v184q66 45 135 98.5t127.5 107.5t96.5 106.5t38 93.5q0 45 -37 67.5t-88 22.5q-57 0 -120.5 -12.5t-116.5 -36.5l-11 196q74 23 157 36.5t185 13.5q63 0 123 -16.5t105 -48.5 t71.5 -79t26.5 -108q0 -59 -24.5 -112.5t-64.5 -103t-92.5 -97.5t-105.5 -95l-37 -33h308v-184h-676z" />
<glyph unicode="&#xbe;" horiz-adv-x="1875" d="M57 590l13 213q47 -23 106.5 -34t118.5 -11q82 0 131 21.5t49 62.5q0 47 -48 62.5t-114 15.5q-31 0 -56.5 -1t-47.5 -4v183q23 -4 51.5 -5t61.5 -1q68 0 103.5 24.5t35.5 65.5q0 23 -15.5 37t-38 23t-49 12t-51.5 3q-55 0 -110.5 -12t-96.5 -28l-12 200q66 18 131.5 27.5 t155.5 9.5q66 0 132 -10t118.5 -38t85 -74t32.5 -115q0 -74 -47 -121t-127 -68v-4q86 -14 137.5 -64.5t51.5 -130.5t-38 -132t-96.5 -81.5t-132 -42t-143.5 -12.5q-92 0 -164.5 6t-126.5 23zM428 -45l793 1520h223l-793 -1520h-223zM1032 145v207l367 508h309v-530h123v-185 h-123v-145h-246v145h-430zM1210 330h252v352h-4z" />
<glyph unicode="&#xbf;" horiz-adv-x="1138" d="M82 -43q0 70 23.5 124t58.5 101t77 89t78.5 89.5t63.5 100.5t33 121h299q0 -98 -41 -171t-91.5 -134.5t-91 -120t-40.5 -125.5q0 -39 21.5 -66.5t54 -46t72.5 -27t77 -8.5q172 0 321 76l9 -287q-104 -33 -212 -46t-219 -13q-84 0 -172 17.5t-159.5 58.5t-116.5 106.5 t-45 161.5zM393 735v332h344v-332h-344z" />
<glyph unicode="&#xc0;" horiz-adv-x="1593" d="M16 0l543 1430h467l551 -1430h-418l-106 305h-537l-113 -305h-387zM438 1800h383l140 -295h-259zM604 575h359l-170 560h-5z" />
<glyph unicode="&#xc1;" horiz-adv-x="1593" d="M16 0l543 1430h467l551 -1430h-418l-106 305h-537l-113 -305h-387zM604 575h359l-170 560h-5zM631 1505l139 295h383l-264 -295h-258z" />
<glyph unicode="&#xc2;" horiz-adv-x="1593" d="M16 0l543 1430h467l551 -1430h-418l-106 305h-537l-113 -305h-387zM403 1505l232 295h332l223 -295h-256l-133 160l-142 -160h-256zM604 575h359l-170 560h-5z" />
<glyph unicode="&#xc3;" horiz-adv-x="1593" d="M16 0l543 1430h467l551 -1430h-418l-106 305h-537l-113 -305h-387zM397 1505q6 53 24.5 105.5t50.5 93.5t78 65.5t107 24.5q41 0 81 -11t78 -25.5t72 -26t62 -11.5q88 0 103 80h147q-6 -59 -24.5 -111.5t-51 -91t-79 -62.5t-109.5 -24q-41 0 -81 11.5t-79 26t-72.5 25.5 t-58.5 11q-47 0 -68.5 -20.5t-31.5 -59.5h-148zM604 575h359l-170 560h-5z" />
<glyph unicode="&#xc4;" horiz-adv-x="1593" d="M16 0l543 1430h467l551 -1430h-418l-106 305h-537l-113 -305h-387zM418 1505v295h295v-295h-295zM604 575h359l-170 560h-5zM885 1505v295h295v-295h-295z" />
<glyph unicode="&#xc5;" horiz-adv-x="1593" d="M16 0l543 1430h467l551 -1430h-418l-106 305h-537l-113 -305h-387zM569 1724q0 47 18.5 89t49.5 73t73 49.5t89 18.5t89 -18.5t72.5 -49.5t49 -72.5t18.5 -89.5q0 -47 -18.5 -89t-49 -72.5t-72.5 -49t-89 -18.5t-89 18.5t-73 49t-49.5 72.5t-18.5 89zM604 575h359 l-170 560h-5zM700 1724q0 -41 29 -69.5t70 -28.5t69.5 28.5t28.5 69.5t-28.5 70t-69.5 29t-70 -29t-29 -70z" />
<glyph unicode="&#xc6;" horiz-adv-x="2048" d="M-8 0l747 1430h1205v-271h-586v-295h549v-270h-549v-324h610v-270h-991v305h-436l-150 -305h-399zM674 575h303v584h-19z" />
<glyph unicode="&#xc7;" horiz-adv-x="1366" d="M80 709q0 186 61.5 326.5t171 233.5t260 139t326.5 46q111 0 215.5 -21.5t208.5 -52.5l-31 -309q-92 51 -183 75.5t-189 24.5q-102 0 -184.5 -34.5t-140.5 -96t-90 -146.5t-32 -185q0 -104 36 -188.5t98.5 -143t150.5 -89t192 -30.5q94 0 186.5 21.5t170.5 52.5l18 -299 q-82 -20 -180 -39t-244 -19h-22l-45 -108q23 4 43 7t55 3q29 0 57.5 -9t51 -30.5t37 -55.5t14.5 -83q0 -43 -21.5 -72.5t-58.5 -47t-86 -26t-105 -8.5q-84 0 -143.5 12.5t-112.5 34.5l35 95q45 -20 89 -31.5t89 -11.5q49 0 77 14t28 49q0 43 -23.5 57.5t-54.5 14.5 q-27 0 -57 -12l-80 49l80 172q-127 18 -247 67t-214 136.5t-150.5 214t-56.5 303.5z" />
<glyph unicode="&#xc8;" d="M123 0v1430h1007v-271h-626v-295h592v-270h-592v-324h649v-270h-1030zM266 1800h383l139 -295h-258z" />
<glyph unicode="&#xc9;" d="M123 0v1430h1007v-271h-626v-295h592v-270h-592v-324h649v-270h-1030zM459 1505l139 295h383l-264 -295h-258z" />
<glyph unicode="&#xca;" d="M123 0v1430h1007v-271h-626v-295h592v-270h-592v-324h649v-270h-1030zM231 1505l232 295h332l223 -295h-256l-133 160l-142 -160h-256z" />
<glyph unicode="&#xcb;" d="M123 0v1430h1007v-271h-626v-295h592v-270h-592v-324h649v-270h-1030zM246 1505v295h295v-295h-295zM713 1505v295h295v-295h-295z" />
<glyph unicode="&#xcc;" horiz-adv-x="684" d="M-16 1800h383l139 -295h-258zM152 0v1430h380v-1430h-380z" />
<glyph unicode="&#xcd;" horiz-adv-x="684" d="M152 0v1430h380v-1430h-380zM174 1505l139 295h383l-264 -295h-258z" />
<glyph unicode="&#xce;" horiz-adv-x="684" d="M-51 1505l231 295h332l223 -295h-256l-133 160l-141 -160h-256zM152 0v1430h380v-1430h-380z" />
<glyph unicode="&#xcf;" horiz-adv-x="684" d="M-37 1505v295h295v-295h-295zM152 0v1430h380v-1430h-380zM430 1505v295h295v-295h-295z" />
<glyph unicode="&#xd0;" horiz-adv-x="1593" d="M-4 639v209h137v582h520q186 0 342 -33t267.5 -114t174 -218t62.5 -344q0 -201 -63.5 -338t-176 -222t-268 -123t-338.5 -38h-520v639h-137zM514 283h148q215 0 329.5 108.5t114.5 323.5t-117 323.5t-327 108.5h-148v-299h342v-209h-342v-356z" />
<glyph unicode="&#xd1;" horiz-adv-x="1593" d="M139 0v1430h486l483 -971h4l-6 971h348v-1430h-473l-500 977h-4l12 -977h-350zM397 1505q6 53 24.5 105.5t50.5 93.5t78 65.5t107 24.5q41 0 81 -11t78 -25.5t72 -26t62 -11.5q88 0 103 80h147q-6 -59 -24.5 -111.5t-51 -91t-79 -62.5t-109.5 -24q-41 0 -81 11.5t-79 26 t-72.5 25.5t-58.5 11q-47 0 -68.5 -20.5t-31.5 -59.5h-148z" />
<glyph unicode="&#xd2;" horiz-adv-x="1593" d="M80 715q0 172 46 309t136 232.5t224.5 146.5t310.5 51t310 -51t224 -146.5t136 -232.5t46 -309q0 -170 -46 -307.5t-137 -233.5t-225 -147.5t-308 -51.5q-176 0 -309.5 51.5t-224.5 147.5t-137 233.5t-46 307.5zM438 1800h383l140 -295h-259zM473 715q0 -88 18.5 -171 t57.5 -146.5t100.5 -101.5t147.5 -38t147.5 38t100 101.5t57 146.5t18.5 171q0 92 -18.5 175t-57 145.5t-100 99t-147.5 36.5t-147.5 -36.5t-100.5 -99t-57.5 -145.5t-18.5 -175z" />
<glyph unicode="&#xd3;" horiz-adv-x="1593" d="M80 715q0 172 46 309t136 232.5t224.5 146.5t310.5 51t310 -51t224 -146.5t136 -232.5t46 -309q0 -170 -46 -307.5t-137 -233.5t-225 -147.5t-308 -51.5q-176 0 -309.5 51.5t-224.5 147.5t-137 233.5t-46 307.5zM473 715q0 -88 18.5 -171t57.5 -146.5t100.5 -101.5 t147.5 -38t147.5 38t100 101.5t57 146.5t18.5 171q0 92 -18.5 175t-57 145.5t-100 99t-147.5 36.5t-147.5 -36.5t-100.5 -99t-57.5 -145.5t-18.5 -175zM631 1505l139 295h383l-264 -295h-258z" />
<glyph unicode="&#xd4;" horiz-adv-x="1593" d="M80 715q0 172 46 309t136 232.5t224.5 146.5t310.5 51t310 -51t224 -146.5t136 -232.5t46 -309q0 -170 -46 -307.5t-137 -233.5t-225 -147.5t-308 -51.5q-176 0 -309.5 51.5t-224.5 147.5t-137 233.5t-46 307.5zM403 1505l232 295h332l223 -295h-256l-133 160l-142 -160 h-256zM473 715q0 -88 18.5 -171t57.5 -146.5t100.5 -101.5t147.5 -38t147.5 38t100 101.5t57 146.5t18.5 171q0 92 -18.5 175t-57 145.5t-100 99t-147.5 36.5t-147.5 -36.5t-100.5 -99t-57.5 -145.5t-18.5 -175z" />
<glyph unicode="&#xd5;" horiz-adv-x="1593" d="M80 715q0 172 46 309t136 232.5t224.5 146.5t310.5 51t310 -51t224 -146.5t136 -232.5t46 -309q0 -170 -46 -307.5t-137 -233.5t-225 -147.5t-308 -51.5q-176 0 -309.5 51.5t-224.5 147.5t-137 233.5t-46 307.5zM397 1505q6 53 24.5 105.5t50.5 93.5t78 65.5t107 24.5 q41 0 81 -11t78 -25.5t72 -26t62 -11.5q88 0 103 80h147q-6 -59 -24.5 -111.5t-51 -91t-79 -62.5t-109.5 -24q-41 0 -81 11.5t-79 26t-72.5 25.5t-58.5 11q-47 0 -68.5 -20.5t-31.5 -59.5h-148zM473 715q0 -88 18.5 -171t57.5 -146.5t100.5 -101.5t147.5 -38t147.5 38 t100 101.5t57 146.5t18.5 171q0 92 -18.5 175t-57 145.5t-100 99t-147.5 36.5t-147.5 -36.5t-100.5 -99t-57.5 -145.5t-18.5 -175z" />
<glyph unicode="&#xd6;" horiz-adv-x="1593" d="M80 715q0 172 46 309t136 232.5t224.5 146.5t310.5 51t310 -51t224 -146.5t136 -232.5t46 -309q0 -170 -46 -307.5t-137 -233.5t-225 -147.5t-308 -51.5q-176 0 -309.5 51.5t-224.5 147.5t-137 233.5t-46 307.5zM418 1505v295h295v-295h-295zM473 715q0 -88 18.5 -171 t57.5 -146.5t100.5 -101.5t147.5 -38t147.5 38t100 101.5t57 146.5t18.5 171q0 92 -18.5 175t-57 145.5t-100 99t-147.5 36.5t-147.5 -36.5t-100.5 -99t-57.5 -145.5t-18.5 -175zM885 1505v295h295v-295h-295z" />
<glyph unicode="&#xd7;" horiz-adv-x="1228" d="M127 207l311 311l-311 311l176 177l311 -312l312 312l176 -177l-314 -311l314 -311l-176 -176l-312 313l-311 -313z" />
<glyph unicode="&#xd8;" horiz-adv-x="1593" d="M31 35l186 198q-137 184 -137 482q0 172 46 309t136 232.5t224.5 146.5t310.5 51q137 0 246.5 -30.5t195.5 -90.5l172 187l131 -123l-172 -187q143 -190 143 -495q0 -170 -46 -307.5t-137 -233.5t-225 -147.5t-308 -51.5q-281 0 -455 131l-180 -194zM473 715 q0 -47 5 -94.5t18 -88.5l512 551q-39 41 -91.5 64.5t-119.5 23.5q-86 0 -147.5 -36.5t-100.5 -99t-57.5 -145.5t-18.5 -175zM578 358q37 -47 91 -73.5t128 -26.5q86 0 147.5 38t100 101.5t57 146.5t18.5 171q0 111 -24 200z" />
<glyph unicode="&#xd9;" horiz-adv-x="1478" d="M113 543v887h381v-824q0 -72 11 -134t38.5 -110.5t75 -76t120.5 -27.5q74 0 121 27.5t75 76t39 111t11 133.5v824h381v-887q0 -147 -45 -254t-128 -176.5t-198.5 -103.5t-255.5 -34q-139 0 -254.5 34t-198.5 103.5t-128 176t-45 254.5zM381 1800h383l139 -295h-258z" />
<glyph unicode="&#xda;" horiz-adv-x="1478" d="M113 543v887h381v-824q0 -72 11 -134t38.5 -110.5t75 -76t120.5 -27.5q74 0 121 27.5t75 76t39 111t11 133.5v824h381v-887q0 -147 -45 -254t-128 -176.5t-198.5 -103.5t-255.5 -34q-139 0 -254.5 34t-198.5 103.5t-128 176t-45 254.5zM573 1505l140 295h383l-265 -295 h-258z" />
<glyph unicode="&#xdb;" horiz-adv-x="1478" d="M113 543v887h381v-824q0 -72 11 -134t38.5 -110.5t75 -76t120.5 -27.5q74 0 121 27.5t75 76t39 111t11 133.5v824h381v-887q0 -147 -45 -254t-128 -176.5t-198.5 -103.5t-255.5 -34q-139 0 -254.5 34t-198.5 103.5t-128 176t-45 254.5zM346 1505l232 295h331l224 -295 h-256l-134 160l-141 -160h-256z" />
<glyph unicode="&#xdc;" horiz-adv-x="1478" d="M113 543v887h381v-824q0 -72 11 -134t38.5 -110.5t75 -76t120.5 -27.5q74 0 121 27.5t75 76t39 111t11 133.5v824h381v-887q0 -147 -45 -254t-128 -176.5t-198.5 -103.5t-255.5 -34q-139 0 -254.5 34t-198.5 103.5t-128 176t-45 254.5zM360 1505v295h295v-295h-295z M827 1505v295h295v-295h-295z" />
<glyph unicode="&#xdd;" horiz-adv-x="1478" d="M23 1430h438l280 -574l277 574h438l-524 -891v-539h-381v539zM602 1505l139 295h383l-264 -295h-258z" />
<glyph unicode="&#xde;" d="M113 0v1430h381v-179h73q164 0 285 -24.5t199.5 -80.5t117.5 -145.5t39 -218.5q0 -236 -149.5 -348t-417.5 -112h-147v-322h-381zM494 592h98q49 0 92 9t75 32.5t50 61.5t18 93t-18 92.5t-50 60t-75 31.5t-92 9h-98v-389z" />
<glyph unicode="&#xdf;" horiz-adv-x="1366" d="M115 0v1012q0 172 54 279.5t139 168t187.5 81t200.5 20.5t194.5 -20.5t172.5 -70t122 -130t46 -201.5q0 -141 -63.5 -221t-192.5 -125v-5q168 -27 239.5 -120t71.5 -236q0 -133 -46 -218t-121 -136t-169 -70.5t-188 -19.5q-59 0 -103.5 4t-78.5 8l10 268q31 -4 64.5 -7 t68.5 -3q39 0 75 10.5t62.5 35t42 64.5t15.5 101q0 98 -54.5 149.5t-132.5 51.5h-51.5t-48.5 -4v262h51q78 0 129 54t51 140q0 96 -46 144.5t-130 48.5q-59 0 -98 -23.5t-61.5 -61.5t-33 -88t-10.5 -104v-1038h-368z" />
<glyph unicode="&#xe0;" d="M63 311q0 123 58.5 195t143.5 109.5t180.5 49t168.5 11.5q45 0 91.5 -4t80.5 -10q0 55 -19 89.5t-53 56t-78 30t-93 8.5q-90 0 -176 -18.5t-164 -61.5l-6 250q98 41 202.5 58.5t223.5 17.5q102 0 194 -24t162 -76t110.5 -136t40.5 -207v-397q0 -63 4.5 -126t16.5 -126 h-338q-2 43 -5 85t-3 83h-4q-63 -100 -143 -146.5t-195 -46.5q-80 0 -151.5 19.5t-127 61.5t-88.5 105.5t-33 149.5zM266 1493h383l139 -295h-258zM408 338q0 -55 43 -86t108 -31q51 0 94 21.5t72 57.5t45 81t16 92q-35 2 -74.5 4t-80.5 2q-94 0 -158.5 -31.5t-64.5 -109.5z " />
<glyph unicode="&#xe1;" d="M63 311q0 123 58.5 195t143.5 109.5t180.5 49t168.5 11.5q45 0 91.5 -4t80.5 -10q0 55 -19 89.5t-53 56t-78 30t-93 8.5q-90 0 -176 -18.5t-164 -61.5l-6 250q98 41 202.5 58.5t223.5 17.5q102 0 194 -24t162 -76t110.5 -136t40.5 -207v-397q0 -63 4.5 -126t16.5 -126 h-338q-2 43 -5 85t-3 83h-4q-63 -100 -143 -146.5t-195 -46.5q-80 0 -151.5 19.5t-127 61.5t-88.5 105.5t-33 149.5zM408 338q0 -55 43 -86t108 -31q51 0 94 21.5t72 57.5t45 81t16 92q-35 2 -74.5 4t-80.5 2q-94 0 -158.5 -31.5t-64.5 -109.5zM487 1198l140 295h383 l-265 -295h-258z" />
<glyph unicode="&#xe2;" d="M63 311q0 123 58.5 195t143.5 109.5t180.5 49t168.5 11.5q45 0 91.5 -4t80.5 -10q0 55 -19 89.5t-53 56t-78 30t-93 8.5q-90 0 -176 -18.5t-164 -61.5l-6 250q98 41 202.5 58.5t223.5 17.5q102 0 194 -24t162 -76t110.5 -136t40.5 -207v-397q0 -63 4.5 -126t16.5 -126 h-338q-2 43 -5 85t-3 83h-4q-63 -100 -143 -146.5t-195 -46.5q-80 0 -151.5 19.5t-127 61.5t-88.5 105.5t-33 149.5zM231 1198l232 295h332l223 -295h-256l-133 160l-142 -160h-256zM408 338q0 -55 43 -86t108 -31q51 0 94 21.5t72 57.5t45 81t16 92q-35 2 -74.5 4t-80.5 2 q-94 0 -158.5 -31.5t-64.5 -109.5z" />
<glyph unicode="&#xe3;" d="M63 311q0 123 58.5 195t143.5 109.5t180.5 49t168.5 11.5q45 0 91.5 -4t80.5 -10q0 55 -19 89.5t-53 56t-78 30t-93 8.5q-90 0 -176 -18.5t-164 -61.5l-6 250q98 41 202.5 58.5t223.5 17.5q102 0 194 -24t162 -76t110.5 -136t40.5 -207v-397q0 -63 4.5 -126t16.5 -126 h-338q-2 43 -5 85t-3 83h-4q-63 -100 -143 -146.5t-195 -46.5q-80 0 -151.5 19.5t-127 61.5t-88.5 105.5t-33 149.5zM225 1198q6 53 24.5 105.5t50.5 93.5t78 65.5t107 24.5q41 0 81 -11.5t78 -25.5t72 -25.5t62 -11.5q88 0 103 80h147q-6 -59 -24.5 -111.5t-51 -91.5 t-79 -62.5t-109.5 -23.5q-41 0 -81 11.5t-79 25.5t-72.5 25.5t-58.5 11.5q-47 0 -68.5 -20.5t-31.5 -59.5h-148zM408 338q0 -55 43 -86t108 -31q51 0 94 21.5t72 57.5t45 81t16 92q-35 2 -74.5 4t-80.5 2q-94 0 -158.5 -31.5t-64.5 -109.5z" />
<glyph unicode="&#xe4;" d="M63 311q0 123 58.5 195t143.5 109.5t180.5 49t168.5 11.5q45 0 91.5 -4t80.5 -10q0 55 -19 89.5t-53 56t-78 30t-93 8.5q-90 0 -176 -18.5t-164 -61.5l-6 250q98 41 202.5 58.5t223.5 17.5q102 0 194 -24t162 -76t110.5 -136t40.5 -207v-397q0 -63 4.5 -126t16.5 -126 h-338q-2 43 -5 85t-3 83h-4q-63 -100 -143 -146.5t-195 -46.5q-80 0 -151.5 19.5t-127 61.5t-88.5 105.5t-33 149.5zM246 1198v295h295v-295h-295zM408 338q0 -55 43 -86t108 -31q51 0 94 21.5t72 57.5t45 81t16 92q-35 2 -74.5 4t-80.5 2q-94 0 -158.5 -31.5t-64.5 -109.5z M713 1198v295h295v-295h-295z" />
<glyph unicode="&#xe5;" d="M63 311q0 123 58.5 195t143.5 109.5t180.5 49t168.5 11.5q45 0 91.5 -4t80.5 -10q0 55 -19 89.5t-53 56t-78 30t-93 8.5q-90 0 -176 -18.5t-164 -61.5l-6 250q98 41 202.5 58.5t223.5 17.5q102 0 194 -24t162 -76t110.5 -136t40.5 -207v-397q0 -63 4.5 -126t16.5 -126 h-338q-2 43 -5 85t-3 83h-4q-63 -100 -143 -146.5t-195 -46.5q-80 0 -151.5 19.5t-127 61.5t-88.5 105.5t-33 149.5zM397 1389q0 47 18.5 89t49.5 72.5t73 49t89 18.5t89 -18.5t72.5 -49t49 -72.5t18.5 -89t-18.5 -89.5t-49 -73t-72.5 -49t-89 -18.5t-89 18.5t-73 49 t-49.5 73t-18.5 89.5zM408 338q0 -55 43 -86t108 -31q51 0 94 21.5t72 57.5t45 81t16 92q-35 2 -74.5 4t-80.5 2q-94 0 -158.5 -31.5t-64.5 -109.5zM528 1389q0 -41 29 -70t70 -29t69.5 29t28.5 70t-28.5 69.5t-69.5 28.5t-70 -28.5t-29 -69.5z" />
<glyph unicode="&#xe6;" horiz-adv-x="1933" d="M45 313q0 121 58.5 193t143.5 109.5t180 49t169 11.5q45 0 91 -3t81 -7q0 53 -19.5 87.5t-53 55t-78 29t-93.5 8.5q-90 0 -176 -18.5t-164 -61.5l-6 252q98 39 202.5 56.5t223.5 17.5q109 -4 204 -33t155 -98q72 57 165 94t211 37q147 0 251 -49.5t167.5 -131.5 t92 -190.5t28.5 -226.5v-68h-737q16 -111 97 -158t216 -47q76 0 159 18.5t167 63.5v-260q-90 -35 -188.5 -51.5t-202.5 -16.5q-68 0 -136.5 8.5t-132 34t-119 72.5t-98.5 125q-39 -72 -88 -118t-107.5 -72.5t-125 -38t-138.5 -11.5q-80 0 -151.5 19.5t-126.5 61.5t-88 105.5 t-33 151.5zM389 340q0 -57 43 -88t109 -31q51 0 94 22.5t71.5 59.5t45 83t16.5 93h-141q-104 0 -171 -30.5t-67 -108.5zM1137 635h409q0 92 -47 157.5t-158 65.5q-100 0 -149 -65.5t-55 -157.5z" />
<glyph unicode="&#xe7;" horiz-adv-x="1024" d="M63 532q0 133 47.5 236.5t131.5 175.5t196.5 110t245.5 38q84 0 156.5 -14.5t136.5 -45.5l-27 -270q-51 31 -104 45t-119 14q-59 0 -111.5 -20.5t-90.5 -58t-59.5 -92t-21.5 -124.5q0 -63 25 -115.5t67 -89t97 -56t115 -19.5q63 0 122.5 13t106.5 38l8 -274 q-70 -23 -148.5 -35.5t-152.5 -12.5h-16.5t-14.5 2l-45 -110q23 4 43.5 7t55.5 3q29 0 57.5 -9t51 -30.5t36.5 -55.5t14 -83q0 -43 -21.5 -72.5t-58 -47t-86 -26t-104.5 -8.5q-84 0 -143.5 12.5t-112.5 34.5l35 95q45 -20 89 -31.5t89 -11.5q49 0 76.5 14t27.5 49 q0 43 -23.5 57.5t-53.5 14.5q-27 0 -58 -12l-80 49l82 178q-102 18 -186 63t-145.5 114t-95.5 160t-34 201z" />
<glyph unicode="&#xe8;" d="M63 535q0 131 43.5 235t119 175t180 109t229.5 38q147 0 250.5 -49.5t167 -131.5t92.5 -190.5t29 -226.5v-68h-738q16 -111 97 -158t217 -47q76 0 158.5 18.5t166.5 63.5v-260q-90 -35 -188.5 -51.5t-202.5 -16.5q-133 0 -245.5 38t-196.5 110t-131.5 175t-47.5 237z M266 1493h383l139 -295h-258zM432 635h410q0 92 -47 157.5t-158 65.5q-100 0 -149.5 -65.5t-55.5 -157.5z" />
<glyph unicode="&#xe9;" d="M63 535q0 131 43.5 235t119 175t180 109t229.5 38q147 0 250.5 -49.5t167 -131.5t92.5 -190.5t29 -226.5v-68h-738q16 -111 97 -158t217 -47q76 0 158.5 18.5t166.5 63.5v-260q-90 -35 -188.5 -51.5t-202.5 -16.5q-133 0 -245.5 38t-196.5 110t-131.5 175t-47.5 237z M432 635h410q0 92 -47 157.5t-158 65.5q-100 0 -149.5 -65.5t-55.5 -157.5zM487 1198l140 295h383l-265 -295h-258z" />
<glyph unicode="&#xea;" d="M63 535q0 131 43.5 235t119 175t180 109t229.5 38q147 0 250.5 -49.5t167 -131.5t92.5 -190.5t29 -226.5v-68h-738q16 -111 97 -158t217 -47q76 0 158.5 18.5t166.5 63.5v-260q-90 -35 -188.5 -51.5t-202.5 -16.5q-133 0 -245.5 38t-196.5 110t-131.5 175t-47.5 237z M231 1198l232 295h332l223 -295h-256l-133 160l-142 -160h-256zM432 635h410q0 92 -47 157.5t-158 65.5q-100 0 -149.5 -65.5t-55.5 -157.5z" />
<glyph unicode="&#xeb;" d="M63 535q0 131 43.5 235t119 175t180 109t229.5 38q147 0 250.5 -49.5t167 -131.5t92.5 -190.5t29 -226.5v-68h-738q16 -111 97 -158t217 -47q76 0 158.5 18.5t166.5 63.5v-260q-90 -35 -188.5 -51.5t-202.5 -16.5q-133 0 -245.5 38t-196.5 110t-131.5 175t-47.5 237z M246 1198v295h295v-295h-295zM432 635h410q0 92 -47 157.5t-158 65.5q-100 0 -149.5 -65.5t-55.5 -157.5zM713 1198v295h295v-295h-295z" />
<glyph unicode="&#xec;" horiz-adv-x="684" d="M-16 1493h383l139 -295h-258zM158 0v1067h368v-1067h-368z" />
<glyph unicode="&#xed;" horiz-adv-x="684" d="M158 0v1067h368v-1067h-368zM205 1198l139 295h383l-264 -295h-258z" />
<glyph unicode="&#xee;" horiz-adv-x="684" d="M-51 1198l231 295h332l223 -295h-256l-133 160l-141 -160h-256zM158 0v1067h368v-1067h-368z" />
<glyph unicode="&#xef;" horiz-adv-x="684" d="M-37 1198v295h295v-295h-295zM158 0v1067h368v-1067h-368zM430 1198v295h295v-295h-295z" />
<glyph unicode="&#xf0;" horiz-adv-x="1368" d="M63 510q0 106 37 202.5t103.5 169t159 114.5t200.5 42q49 0 99.5 -8t94.5 -27.5t78.5 -51t55.5 -79.5l4 5q-35 113 -120 195.5t-191 146.5l-295 -136l-123 134l219 100q-47 20 -94 36.5t-88 32.5l213 224q172 -59 317 -135l299 135l127 -131l-246 -111q88 -61 161 -137 t124 -168t79 -202.5t28 -242.5q0 -147 -42 -267t-124 -202.5t-200 -128t-271 -45.5q-285 0 -445 131.5t-160 403.5zM444 510q0 -51 12.5 -100.5t40 -88t71.5 -63.5t108 -25q68 0 115 25t76.5 63.5t43 89t13.5 101.5t-13.5 99t-43 86t-77 60.5t-114.5 22.5 q-63 0 -107.5 -22.5t-72 -60.5t-40 -87t-12.5 -100z" />
<glyph unicode="&#xf1;" horiz-adv-x="1366" d="M115 0v1067h336v-197h4q55 117 158.5 169.5t230.5 52.5q109 0 186.5 -36t126.5 -94.5t71.5 -136t22.5 -159.5v-666h-368v516q0 150 -47.5 209t-122.5 59q-115 0 -172.5 -79.5t-57.5 -253.5v-451h-368zM283 1198q6 53 24.5 105.5t50 93.5t77.5 65.5t108 24.5 q41 0 81 -11.5t77.5 -25.5t71.5 -25.5t63 -11.5q88 0 102 80h147q-6 -59 -24.5 -111.5t-51 -91.5t-78.5 -62.5t-110 -23.5q-41 0 -81 11.5t-78.5 25.5t-72.5 25.5t-59 11.5q-47 0 -68.5 -20.5t-31.5 -59.5h-147z" />
<glyph unicode="&#xf2;" horiz-adv-x="1368" d="M63 532q0 133 47.5 236.5t131.5 175.5t196.5 110t245.5 38q131 0 244.5 -38t197.5 -110t131.5 -175t47.5 -237q0 -133 -47.5 -236t-131.5 -174t-197.5 -109t-244.5 -38q-133 0 -245.5 38t-196.5 109t-131.5 174t-47.5 236zM326 1493h383l139 -295h-258zM444 532 q0 -59 13.5 -113t43 -95t75 -66t108.5 -25t108.5 25t75 66t43 95t13.5 113t-13.5 113.5t-43 96.5t-74.5 67t-109 25q-63 0 -108.5 -25t-75 -67t-43 -96t-13.5 -114z" />
<glyph unicode="&#xf3;" horiz-adv-x="1368" d="M63 532q0 133 47.5 236.5t131.5 175.5t196.5 110t245.5 38q131 0 244.5 -38t197.5 -110t131.5 -175t47.5 -237q0 -133 -47.5 -236t-131.5 -174t-197.5 -109t-244.5 -38q-133 0 -245.5 38t-196.5 109t-131.5 174t-47.5 236zM444 532q0 -59 13.5 -113t43 -95t75 -66 t108.5 -25t108.5 25t75 66t43 95t13.5 113t-13.5 113.5t-43 96.5t-74.5 67t-109 25q-63 0 -108.5 -25t-75 -67t-43 -96t-13.5 -114zM547 1198l139 295h383l-264 -295h-258z" />
<glyph unicode="&#xf4;" horiz-adv-x="1368" d="M63 532q0 133 47.5 236.5t131.5 175.5t196.5 110t245.5 38q131 0 244.5 -38t197.5 -110t131.5 -175t47.5 -237q0 -133 -47.5 -236t-131.5 -174t-197.5 -109t-244.5 -38q-133 0 -245.5 38t-196.5 109t-131.5 174t-47.5 236zM291 1198l231 295h332l223 -295h-256l-133 160 l-141 -160h-256zM444 532q0 -59 13.5 -113t43 -95t75 -66t108.5 -25t108.5 25t75 66t43 95t13.5 113t-13.5 113.5t-43 96.5t-74.5 67t-109 25q-63 0 -108.5 -25t-75 -67t-43 -96t-13.5 -114z" />
<glyph unicode="&#xf5;" horiz-adv-x="1368" d="M63 532q0 133 47.5 236.5t131.5 175.5t196.5 110t245.5 38q131 0 244.5 -38t197.5 -110t131.5 -175t47.5 -237q0 -133 -47.5 -236t-131.5 -174t-197.5 -109t-244.5 -38q-133 0 -245.5 38t-196.5 109t-131.5 174t-47.5 236zM285 1198q6 53 24.5 105.5t50 93.5t77.5 65.5 t108 24.5q41 0 81 -11.5t77.5 -25.5t71.5 -25.5t63 -11.5q88 0 102 80h147q-6 -59 -24.5 -111.5t-51 -91.5t-78.5 -62.5t-110 -23.5q-41 0 -81 11.5t-78.5 25.5t-72.5 25.5t-59 11.5q-47 0 -68.5 -20.5t-31.5 -59.5h-147zM444 532q0 -59 13.5 -113t43 -95t75 -66t108.5 -25 t108.5 25t75 66t43 95t13.5 113t-13.5 113.5t-43 96.5t-74.5 67t-109 25q-63 0 -108.5 -25t-75 -67t-43 -96t-13.5 -114z" />
<glyph unicode="&#xf6;" horiz-adv-x="1368" d="M63 532q0 133 47.5 236.5t131.5 175.5t196.5 110t245.5 38q131 0 244.5 -38t197.5 -110t131.5 -175t47.5 -237q0 -133 -47.5 -236t-131.5 -174t-197.5 -109t-244.5 -38q-133 0 -245.5 38t-196.5 109t-131.5 174t-47.5 236zM305 1198v295h295v-295h-295zM444 532 q0 -59 13.5 -113t43 -95t75 -66t108.5 -25t108.5 25t75 66t43 95t13.5 113t-13.5 113.5t-43 96.5t-74.5 67t-109 25q-63 0 -108.5 -25t-75 -67t-43 -96t-13.5 -114zM772 1198v295h295v-295h-295z" />
<glyph unicode="&#xf7;" horiz-adv-x="1228" d="M96 389v258h1037v-258h-1037zM422 92q0 39 15.5 74t41 60.5t60 41t73.5 15.5t74 -15.5t60.5 -41t41 -60.5t15.5 -74t-15.5 -73.5t-41 -60.5t-60.5 -41t-74 -15t-73.5 15t-60 41t-41 60.5t-15.5 73.5zM422 944q0 39 15.5 74t41 60.5t60 41t73.5 15.5t74 -15.5t60.5 -41 t41 -60.5t15.5 -74t-15.5 -73.5t-41 -60.5t-60.5 -41t-74 -15t-73.5 15t-60 41t-41 60.5t-15.5 73.5z" />
<glyph unicode="&#xf8;" horiz-adv-x="1368" d="M63 532q0 133 47.5 236.5t131.5 175.5t196.5 110t245.5 38q96 0 183 -19.5t159 -60.5l154 159l125 -118l-140 -146q66 -72 103 -165t37 -210q0 -133 -47.5 -236t-131.5 -174t-197.5 -109t-244.5 -38q-193 0 -340 80l-154 -159l-124 118l139 144q-66 70 -104 164t-38 210z M444 532q0 -61 13 -112l360 375q-55 39 -133 39q-63 0 -108.5 -25t-75 -67t-43 -96t-13.5 -114zM553 272q51 -39 131 -39q63 0 108.5 25t75 66t43 95t13.5 113q0 57 -13 111z" />
<glyph unicode="&#xf9;" horiz-adv-x="1366" d="M115 401v666h368v-516q0 -76 12.5 -127t35 -83t54 -45t68.5 -13q115 0 172.5 79.5t57.5 253.5v451h368v-1067h-336v197h-4q-55 -117 -158.5 -169.5t-230.5 -52.5q-109 0 -186.5 36t-126.5 94.5t-71.5 135t-22.5 160.5zM324 1493h383l139 -295h-258z" />
<glyph unicode="&#xfa;" horiz-adv-x="1366" d="M115 401v666h368v-516q0 -76 12.5 -127t35 -83t54 -45t68.5 -13q115 0 172.5 79.5t57.5 253.5v451h368v-1067h-336v197h-4q-55 -117 -158.5 -169.5t-230.5 -52.5q-109 0 -186.5 36t-126.5 94.5t-71.5 135t-22.5 160.5zM545 1198l139 295h383l-264 -295h-258z" />
<glyph unicode="&#xfb;" horiz-adv-x="1366" d="M115 401v666h368v-516q0 -76 12.5 -127t35 -83t54 -45t68.5 -13q115 0 172.5 79.5t57.5 253.5v451h368v-1067h-336v197h-4q-55 -117 -158.5 -169.5t-230.5 -52.5q-109 0 -186.5 36t-126.5 94.5t-71.5 135t-22.5 160.5zM289 1198l231 295h332l223 -295h-256l-133 160 l-141 -160h-256z" />
<glyph unicode="&#xfc;" horiz-adv-x="1366" d="M115 401v666h368v-516q0 -76 12.5 -127t35 -83t54 -45t68.5 -13q115 0 172.5 79.5t57.5 253.5v451h368v-1067h-336v197h-4q-55 -117 -158.5 -169.5t-230.5 -52.5q-109 0 -186.5 36t-126.5 94.5t-71.5 135t-22.5 160.5zM303 1198v295h295v-295h-295zM770 1198v295h295 v-295h-295z" />
<glyph unicode="&#xfd;" d="M16 1067h398l229 -696h4l219 696h369l-391 -993q-39 -100 -78 -195.5t-95.5 -169.5t-139 -119t-209.5 -45q-117 0 -230 25l25 280q37 -12 71.5 -17t73.5 -5q68 0 117 38t70 109zM487 1198l140 295h383l-265 -295h-258z" />
<glyph unicode="&#xfe;" horiz-adv-x="1368" d="M106 -430v1966h371v-606h4q72 90 164 126t203 36t195.5 -48.5t143 -125t88.5 -173t30 -192.5q0 -119 -32 -223.5t-93.5 -183t-152.5 -125t-210 -46.5q-98 0 -191.5 39t-146.5 136h-4v-580h-369zM475 530q0 -59 17.5 -108t48 -86t71.5 -57.5t88 -20.5q104 0 164 79t60 208 q0 53 -14.5 101t-43 84t-70.5 57.5t-96 21.5q-102 0 -163.5 -79t-61.5 -200z" />
<glyph unicode="&#xff;" d="M16 1067h398l229 -696h4l219 696h369l-391 -993q-39 -100 -78 -195.5t-95.5 -169.5t-139 -119t-209.5 -45q-117 0 -230 25l25 280q37 -12 71.5 -17t73.5 -5q68 0 117 38t70 109zM246 1198v295h295v-295h-295zM713 1198v295h295v-295h-295z" />
<glyph unicode="&#x152;" horiz-adv-x="2048" d="M37 715q0 166 46 301t136 229t224.5 145.5t310.5 51.5q143 0 284 -6q72 -2 142.5 -4t140.5 -2h668v-271h-594v-295h555v-270h-549v-324h610v-270h-852q-100 0 -201 -6q-51 -2 -101 -4t-103 -2q-176 0 -309.5 51t-224.5 146.5t-137 229.5t-46 300zM430 715 q0 -84 21.5 -164t65.5 -142.5t111.5 -100.5t162.5 -38q63 0 119.5 4.5t97.5 4.5v872q-59 0 -124 4t-130 4q-98 0 -162 -36t-99.5 -97t-49 -142t-13.5 -169z" />
<glyph unicode="&#x153;" horiz-adv-x="2048" d="M55 532q0 141 47.5 246t126 174.5t184 104.5t222.5 35q135 0 239.5 -33t182.5 -129q43 47 92 78.5t101.5 50t104.5 26t99 7.5q147 0 250.5 -49.5t167 -131.5t92.5 -190.5t29 -226.5v-68h-738q16 -111 97.5 -158t216.5 -47q76 0 158.5 18.5t166.5 63.5v-260 q-90 -35 -188 -51.5t-203 -16.5q-68 0 -131 8.5t-119.5 28t-104.5 52t-87 83.5q-41 -55 -92 -88.5t-108.5 -52t-118 -25t-119.5 -6.5q-121 0 -224.5 36t-179.5 105.5t-120 174t-44 241.5zM436 532q0 -57 13.5 -113.5t41 -100.5t69.5 -70.5t99 -26.5t99.5 26.5t70 70.5 t41 100.5t13.5 113.5t-13.5 113.5t-41 102t-69.5 72t-100 26.5q-57 0 -99 -26.5t-69.5 -72t-41 -102t-13.5 -113.5zM1251 635h410q0 92 -47 157.5t-158 65.5q-100 0 -149.5 -65.5t-55.5 -157.5z" />
<glyph unicode="&#x178;" horiz-adv-x="1478" d="M23 1430h438l280 -574l277 574h438l-524 -891v-539h-381v539zM360 1505v295h295v-295h-295zM827 1505v295h295v-295h-295z" />
<glyph unicode="&#x2c6;" horiz-adv-x="681" d="M-53 1198l231 295h332l223 -295h-256l-133 160l-141 -160h-256z" />
<glyph unicode="&#x2dc;" horiz-adv-x="681" d="M-59 1198q6 53 24.5 105.5t50 93.5t77.5 65.5t108 24.5q41 0 81 -11.5t77.5 -25.5t71.5 -25.5t63 -11.5q88 0 102 80h147q-6 -59 -24.5 -111.5t-51 -91.5t-78.5 -62.5t-110 -23.5q-41 0 -81 11.5t-78.5 25.5t-72.5 25.5t-59 11.5q-47 0 -68.5 -20.5t-31.5 -59.5h-147z " />
<glyph unicode="&#x2000;" horiz-adv-x="977" />
<glyph unicode="&#x2001;" horiz-adv-x="1954" />
<glyph unicode="&#x2002;" horiz-adv-x="977" />
<glyph unicode="&#x2003;" horiz-adv-x="1954" />
<glyph unicode="&#x2004;" horiz-adv-x="651" />
<glyph unicode="&#x2005;" horiz-adv-x="488" />
<glyph unicode="&#x2006;" horiz-adv-x="325" />
<glyph unicode="&#x2007;" horiz-adv-x="325" />
<glyph unicode="&#x2008;" horiz-adv-x="244" />
<glyph unicode="&#x2009;" horiz-adv-x="390" />
<glyph unicode="&#x200a;" horiz-adv-x="108" />
<glyph unicode="&#x2010;" horiz-adv-x="681" d="M63 416v270h555v-270h-555z" />
<glyph unicode="&#x2011;" horiz-adv-x="681" d="M63 416v270h555v-270h-555z" />
<glyph unicode="&#x2012;" horiz-adv-x="681" d="M63 416v270h555v-270h-555z" />
<glyph unicode="&#x2013;" horiz-adv-x="1024" d="M0 422v258h1024v-258h-1024z" />
<glyph unicode="&#x2014;" horiz-adv-x="2048" d="M0 422v258h2048v-258h-2048z" />
<glyph unicode="&#x2018;" horiz-adv-x="681" d="M100 874l201 556h281l-138 -556h-344z" />
<glyph unicode="&#x2019;" horiz-adv-x="681" d="M100 874l138 556h344l-201 -556h-281z" />
<glyph unicode="&#x201a;" horiz-adv-x="681" d="M100 -223l138 555h344l-201 -555h-281z" />
<glyph unicode="&#x201c;" d="M150 874l200 556h281l-137 -556h-344zM621 874l200 556h281l-137 -556h-344z" />
<glyph unicode="&#x201d;" d="M150 874l137 556h344l-201 -556h-280zM621 874l137 556h344l-201 -556h-280z" />
<glyph unicode="&#x201e;" d="M150 -223l137 555h346l-201 -555h-282zM618 -223l138 555h346l-201 -555h-283z" />
<glyph unicode="&#x2022;" horiz-adv-x="1024" d="M156 715q0 74 27.5 138.5t76.5 113.5t113.5 76.5t138.5 27.5t139.5 -27.5t113.5 -76.5t76.5 -114t28.5 -138q0 -74 -28.5 -139.5t-76.5 -113.5t-113.5 -77t-139.5 -29t-138.5 29t-113.5 77t-76.5 113.5t-27.5 139.5z" />
<glyph unicode="&#x2026;" horiz-adv-x="2048" d="M170 0v332h344v-332h-344zM852 0v332h344v-332h-344zM1534 0v332h344v-332h-344z" />
<glyph unicode="&#x202f;" horiz-adv-x="390" />
<glyph unicode="&#x2039;" horiz-adv-x="681" d="M57 551l244 418h303l-225 -418l225 -418h-303z" />
<glyph unicode="&#x203a;" horiz-adv-x="681" d="M78 133l225 418l-225 418h303l244 -418l-244 -418h-303z" />
<glyph unicode="&#x205f;" horiz-adv-x="488" />
<glyph unicode="&#x20ac;" horiz-adv-x="1253" d="M4 502l35 141h158q-6 72 0 143h-193l35 142h180q31 123 98.5 220t160.5 164.5t207 104.5t239 37q193 0 366 -57l-67 -262q-49 23 -110.5 32t-115.5 9q-129 0 -224 -66t-142 -182h540l-34 -142h-547q-10 -72 0 -143h512l-37 -141h-434q47 -113 143 -177.5t221 -64.5 q53 0 116 10.5t112 30.5l12 -287q-72 -23 -149.5 -31t-151.5 -8q-129 0 -246 33t-211 99.5t-161.5 165t-98.5 229.5h-213z" />
<glyph unicode="&#x2122;" horiz-adv-x="2048" d="M76 1245v185h704v-185h-241v-667h-222v667h-241zM977 578v852h315l183 -496l182 496h315v-852h-221v557h-4l-182 -557h-181l-182 557h-4v-557h-221z" />
<glyph unicode="&#xe000;" horiz-adv-x="1064" d="M0 0v1065h1065v-1065h-1065z" />
<glyph unicode="&#xfb01;" horiz-adv-x="1593" d="M27 809v258h223v66q0 119 27.5 200.5t84 132t139.5 73t193 22.5q59 0 106.5 -7.5t82.5 -13.5l-23 -254q-23 8 -49.5 12.5t-67.5 4.5q-72 0 -101.5 -46.5t-29.5 -123.5v-66h262v-258h-262v-809h-368v809h-217zM1067 0v1067h369v-1067h-369zM1067 1241v270h369v-270h-369z " />
<glyph unicode="&#xfb02;" horiz-adv-x="1593" d="M27 809v258h223v66q0 119 27.5 200.5t84 132t139.5 73t193 22.5q59 0 106.5 -7.5t82.5 -13.5l-23 -254q-23 8 -49.5 12.5t-67.5 4.5q-72 0 -101.5 -46.5t-29.5 -123.5v-66h262v-258h-262v-809h-368v809h-217zM1067 0v1536h369v-1536h-369z" />
</font>
</defs>
</svg>
